<svg>
    <symbol xmlns="http://www.w3.org/2000/svg" viewBox="0 0 511.628 511.628" id="productivity">
        <path d="M431.731 376.759l22.696-86.185c16.438-4.483 28.56-19.536 28.56-37.374 0-16.966-10.968-31.41-26.182-36.64l-27.49-74.547c6.522-2.707 11.124-9.138 11.124-16.628v-19.59c10.543-4.193 18.02-14.492 18.02-26.512V44.335c5.738-2.794 9.712-8.668 9.712-15.468V17.212C468.17 7.721 460.449 0 450.958 0h-29.147c-4.143 0-7.5 3.358-7.5 7.5s3.357 7.5 7.5 7.5h29.147c1.22 0 2.212.992 2.212 2.212v11.655c0 1.22-.992 2.212-2.212 2.212H69.738a2.214 2.214 0 01-2.212-2.212V17.212c0-1.22.992-2.212 2.212-2.212h320.11c4.143 0 7.5-3.358 7.5-7.5s-3.357-7.5-7.5-7.5H69.738c-9.49 0-17.212 7.721-17.212 17.212v11.655c0 6.8 3.974 12.674 9.712 15.468v34.948c0 11.245 6.543 20.988 16.02 25.631v20.471c0 7.821 5.023 14.474 12.005 16.951L62.892 216.56c-15.214 5.23-26.182 19.674-26.182 36.64 0 17.839 12.123 32.891 28.56 37.374l24.447 92.836H76.144a25.225 25.225 0 00-19.278 8.932l-23.78 28.061a25.3 25.3 0 00-5.991 16.337v62.827c0 6.65 5.41 12.06 12.06 12.06h62.694c5.986 0 11.075-4.646 11.588-10.579 1.557-18.061 16.998-32.208 35.154-32.208 18.157 0 33.6 14.147 35.155 32.209.513 5.932 5.602 10.579 11.588 10.579h114.188c5.986 0 11.076-4.646 11.588-10.579 1.557-18.061 16.999-32.208 35.155-32.208s33.599 14.147 35.155 32.209c.512 5.932 5.602 10.579 11.588 10.579h69.466c6.649 0 12.06-5.41 12.06-12.06v-62.961c0-30.718-23.078-56.128-52.803-59.849zm37.803 59.847v28.802h-17.788v-38.793a3.095 3.095 0 013.092-3.092h12.764a45.215 45.215 0 011.932 13.083zM178.729 92.808l23.394-46.729h35.179l-23.395 46.729zm-51.952 0l23.394-46.729h35.178l-23.394 46.729zM93.012 218.685a38.424 38.424 0 00-13.439-4.005l26.291-71.296h14.916zm43.141-90.301H96.256a3.003 3.003 0 01-2.999-2.999v-17.577h45.895v17.577a3.003 3.003 0 01-2.999 2.999zm117.923-82.305h35.178L265.86 92.808h-35.178zm87.13 0l-23.395 46.729h-35.178l23.395-46.729zm51.953 0l-23.394 46.729h-35.179l23.395-46.729zm32.28 79.306a3.003 3.003 0 01-2.999 2.999h-39.896a3.003 3.003 0 01-2.999-2.999v-17.577h45.895v17.577zm-189.038-17.577h45.895v17.577a3.003 3.003 0 01-2.999 2.999H239.4a3.003 3.003 0 01-2.999-2.999zm16.449 35.576h13.996v56.959c-2.272-.416-4.608-.645-6.998-.645s-4.726.229-6.998.645zm6.998 71.314c13.091 0 23.741 10.65 23.741 23.742 0 13.091-10.65 23.741-23.741 23.741s-23.741-10.65-23.741-23.741c0-13.092 10.65-23.742 23.741-23.742zm-6.998 61.837c2.272.416 4.608.645 6.998.645s4.726-.229 6.998-.645v22.231H252.85zm28.996-6.23c10.106-6.998 16.743-18.669 16.743-31.865 0-13.197-6.637-24.867-16.743-31.865v-63.392c8.718-1.245 15.449-8.74 15.449-17.797v-17.577h67.249v17.577c0 9.925 8.074 17.999 17.999 17.999h.386l6.295 17.07a7.503 7.503 0 007.038 4.907 7.499 7.499 0 007.036-10.096l-4.381-11.88h14.915l26.291 71.296a38.397 38.397 0 00-13.439 4.005l-12.327-33.43a7.5 7.5 0 00-14.074 5.189l14.066 38.144c-5.523 6.697-8.844 15.274-8.844 24.611a38.516 38.516 0 007.314 22.613l-17.091 64.9c-10.466-25.234-35.241-41.947-62.79-41.947h-51.091v-28.462zm143.533 16.714a38.425 38.425 0 0013.283 4.514l-22.315 84.739h-7.966l-3.724-10.565zm42.608-33.819c0 13.091-10.65 23.741-23.741 23.741s-23.741-10.65-23.741-23.741 10.65-23.741 23.741-23.741 23.741 10.65 23.741 23.741zM443.458 79.283c0 7.458-6.067 13.525-13.524 13.525h-43.396l23.394-46.729h33.526zM77.238 46.079h56.159l-23.394 46.729H90.762c-7.457 0-13.524-6.067-13.524-13.525zM51.709 253.2c0-13.091 10.65-23.741 23.741-23.741s23.741 10.65 23.741 23.741-10.65 23.741-23.741 23.741-23.741-10.65-23.741-23.741zm53.112 128.663l-23.787-90.329a38.425 38.425 0 0013.299-4.523l25.535 96.4h-14.809a7.572 7.572 0 00-.238-1.548zm-50.665 36.878H74.92v13.5H43.139c.372-.763.834-1.484 1.39-2.139zm44.704 77.887H42.094v-16.219h62.145a50.012 50.012 0 00-5.379 16.219zm94.082-16.219h87.577v16.219h-82.197a50.038 50.038 0 00-5.38-16.219zm113.592 16.219h-11.015v-16.219h16.394a50.012 50.012 0 00-5.379 16.219zm17.65-31.219h-28.665v-74.136h72.654a9.702 9.702 0 007.908-4.092 9.7 9.7 0 001.228-8.815l-8.544-24.239c-5.347-15.169-19.745-25.36-35.828-25.36h-93.21a37.967 37.967 0 00-31.342 16.523l-21.112 30.825a9.665 9.665 0 00-.574 9.99 9.664 9.664 0 008.568 5.168h85.252v74.136h-99.847a50.12 50.12 0 00-32.082-11.568 50.127 50.127 0 00-32.081 11.568H42.094v-18.168h35.17c6.979 0 12.656-5.678 12.656-12.657v-18.186c0-6.979-5.678-12.657-12.656-12.657H66.868l1.441-1.701a10.252 10.252 0 017.835-3.63h70.457c4.521 0 8.745-2.227 11.302-5.958l13.778-20.119a7.5 7.5 0 10-12.375-8.476l-13.391 19.552h-10.531l-28.503-107.603c4.593-6.368 7.31-14.174 7.31-22.607 0-9.338-3.321-17.914-8.844-24.611l31.431-85.236c9.634-.334 17.373-8.254 17.373-17.967v-17.577h64.356l.026.001.021-.001h2.846v17.577c0 9.402 7.249 17.131 16.449 17.921v63.268c-10.106 6.999-16.743 18.669-16.743 31.865s6.637 24.867 16.743 31.865v28.49a67.952 67.952 0 00-54.217 29.543l-6.257 9.136a7.5 7.5 0 1012.375 8.476l6.258-9.136a52.96 52.96 0 0143.718-23.047h93.21c22.435 0 42.518 14.216 49.976 35.374l11.628 32.988a13.719 13.719 0 0012.919 9.145h16.74c14.397 0 27.239 6.754 35.549 17.251h-4.911c-9.976 0-18.092 8.116-18.092 18.092v38.793h-48.399a50.12 50.12 0 00-32.082-11.568 50.115 50.115 0 00-32.08 11.568zm-28.665-121.643h37.418c9.732 0 18.446 6.167 21.682 15.347l6.048 17.16H295.52v-32.507zm-15 32.506h-75.174l15.416-22.508a22.975 22.975 0 0118.966-9.999h40.792zm125.478 120.356a50.014 50.014 0 00-5.38-16.219h68.917v16.219z"></path>
        <path d="M259.848 247.828a7.5 7.5 0 007.5-7.5v-2.889c0-4.142-3.357-7.5-7.5-7.5s-7.5 3.358-7.5 7.5v2.889a7.5 7.5 0 007.5 7.5zm176.898 4.372v2.889c0 4.142 3.357 7.5 7.5 7.5s7.5-3.358 7.5-7.5V252.2c0-4.142-3.357-7.5-7.5-7.5s-7.5 3.358-7.5 7.5zm-353.795 2.889V252.2c0-4.142-3.357-7.5-7.5-7.5s-7.5 3.358-7.5 7.5v2.889c0 4.142 3.357 7.5 7.5 7.5s7.5-3.358 7.5-7.5z"></path>
    </symbol>
    <symbol xmlns="http://www.w3.org/2000/svg" viewBox="0 0 503.856 503.856" id="factory">
        <path d="M490.374 488.856H483.8l-5.797-43.772a7.497 7.497 0 00-8.42-6.451 7.5 7.5 0 00-6.45 8.42l5.536 41.803H44.776L57.82 390.36a2.17 2.17 0 012.146-1.88H453.48c1.081 0 2.003.808 2.146 1.88l3.307 24.971c.544 4.105 4.306 7 8.42 6.45a7.5 7.5 0 006.45-8.42l-3.307-24.97c-1.125-8.501-8.44-14.911-17.016-14.911h-7.122l-8.41-63.095a7.495 7.495 0 00-8.425-6.443 7.499 7.499 0 00-6.443 8.425l1.334 10.004h-68.237l7.736-58.036a1.05 1.05 0 011.037-.908h50.69c.522 0 .968.391 1.038.908l2.142 16.069a7.5 7.5 0 008.425 6.443 7.499 7.499 0 006.443-8.425l-2.142-16.07c-1.059-7.938-7.897-13.925-15.906-13.925h-50.69c-8.009 0-14.847 5.987-15.905 13.926L334.231 373.48h-21.227l-15.22-151.7a15.996 15.996 0 00-15.966-14.444h-50.192c-8.276 0-15.14 6.21-15.966 14.444l-15.22 151.7h-19.746l-15.732-252.818c-.525-8.439-7.56-15.05-16.016-15.05H99.354c-8.456 0-15.49 6.611-16.015 15.05L67.606 373.48h-7.64c-8.575 0-15.89 6.41-17.016 14.911L29.645 488.856H25.73a7.5 7.5 0 000 15h464.643a7.5 7.5 0 00.001-15zM354.176 337.372h72.236l4.813 36.109h-81.862zm-129.77-52.502h64.633l3.762 37.501h-72.158zm7.22-62.534h50.192c.54 0 .987.405 1.041.941l4.674 46.592H225.91l4.674-46.592a1.045 1.045 0 011.042-.941zm-12.488 115.036h75.168l3.623 36.109h-82.413zm-59.919-67.502H89.082l2.334-37.502h65.469zm-3.268-52.502H92.349l2.334-37.501h58.935zM88.148 284.87h72.003l2.334 37.501h-76.67zm11.206-164.258h49.593c.552 0 1.01.431 1.045.981l2.693 43.273H95.616l2.693-43.273c.034-.55.493-.981 1.045-.981zm-14.473 216.76h78.538l2.247 36.109H82.634z"></path>
        <path d="M236.251 414.87c-8.023 0-14.55 6.527-14.55 14.549v25.499c0 8.023 6.527 14.55 14.55 14.55h40.941c8.023 0 14.55-6.527 14.55-14.55v-25.499c0-8.022-6.527-14.549-14.55-14.549zm40.492 39.597h-40.041V429.87h40.041zM103.68 414.87c-8.023 0-14.55 6.527-14.55 14.549v25.499c0 8.023 6.527 14.55 14.55 14.55h40.941c8.023 0 14.55-6.527 14.55-14.55v-25.499c0-8.022-6.527-14.549-14.55-14.549zm40.49 39.597h-40.04V429.87h40.041v24.597zm224.654-39.597c-8.023 0-14.55 6.527-14.55 14.549v25.499c0 8.023 6.527 14.55 14.55 14.55h40.941c8.023 0 14.55-6.527 14.55-14.55v-25.499c0-8.022-6.527-14.549-14.55-14.549zm40.49 39.597h-40.041V429.87h40.041zM90.635 15h55.673c11.501 0 20.858 9.357 20.858 20.858s-9.357 20.857-20.858 20.857h-.695c-8.383 0-15.204 6.82-15.204 15.204V88.24a7.5 7.5 0 0015 0V71.919c0-.112.091-.204.204-.204h.695c19.772 0 35.858-16.085 35.858-35.857S166.08 0 146.308 0H90.635a7.5 7.5 0 000 15zm-77.152 0h45.189a7.5 7.5 0 000-15H13.483a7.5 7.5 0 000 15z"></path>
        <path d="M102.384 55.361V88.24a7.5 7.5 0 0015 0V55.361c0-10.998-8.947-19.945-19.945-19.945H13.483a7.5 7.5 0 000 15h83.955a4.95 4.95 0 014.946 4.945zm99.436 60.307h77.615c11.501 0 20.857 9.357 20.857 20.858s-9.356 20.858-20.857 20.858h-.695c-8.383 0-15.204 6.82-15.204 15.203v16.321a7.5 7.5 0 0015 0v-16.321c0-.112.091-.203.204-.203h.695c19.772 0 35.857-16.086 35.857-35.858s-16.085-35.858-35.857-35.858H201.82a7.5 7.5 0 000 15z"></path>
        <path d="M201.82 151.084h28.746a4.95 4.95 0 014.945 4.945v32.879a7.5 7.5 0 0015 0v-32.879c0-10.998-8.947-19.945-19.945-19.945H201.82a7.5 7.5 0 000 15zm135.488 4.954h77.615c11.501 0 20.857 9.357 20.857 20.858s-9.356 20.858-20.857 20.858h-.695c-8.383 0-15.204 6.82-15.204 15.203v16.322a7.5 7.5 0 0015 0v-16.322c0-.112.091-.203.204-.203h.695c19.772 0 35.857-16.086 35.857-35.858s-16.085-35.858-35.857-35.858h-77.615a7.5 7.5 0 000 15z"></path>
        <path d="M337.308 191.454h28.746a4.95 4.95 0 014.945 4.945v32.88a7.5 7.5 0 0015 0v-32.88c0-10.998-8.947-19.945-19.945-19.945h-28.746a7.5 7.5 0 000 15z"></path>
    </symbol>
    <symbol xmlns="http://www.w3.org/2000/svg" viewBox="0 0 512.032 512.032" id="cleaning">
        <path d="M84.356 204.792h11.15l27.237 280.711c.754 7.766 6.639 14.177 14.315 15.592 78.791 14.544 158.676 14.605 237.641.05l.277-.051c7.672-1.415 13.557-7.826 14.311-15.592l6.745-69.512a7.5 7.5 0 00-6.741-8.189 7.492 7.492 0 00-8.189 6.741l-4.362 44.956c-80.139 16.046-161.311 16.046-241.45 0l-29.189-300.822c17.966-2.62 26.602-3.886 29.916-4.352a913.139 913.139 0 015.253-.722v161.279c0 6.754 5.495 12.25 12.249 12.25h83.736c6.754 0 12.249-5.495 12.249-12.249V213.485a7.5 7.5 0 00-15 0v24.029H156.27v-90.929a873.33 873.33 0 0178.234-5.497v37.396a7.5 7.5 0 0015 0v-32.538a863.816 863.816 0 01126.513 8.378c4.135.582 11.411 1.653 29.912 4.351l-21.437 220.929a7.5 7.5 0 0014.93 1.449l17.103-176.263h11.15c8.425 0 15.28-6.854 15.28-15.28v-10.949c0-8.425-6.854-15.28-15.28-15.28h-7.123l.669-6.892a11.05 11.05 0 00-9.414-12.015l-2.01-.293c-2.461-24.459-10.77-48.095-24.2-68.704a155.604 155.604 0 00-51.32-49.031 10.992 10.992 0 00-5.96-9.028c-44.273-22.556-98.239-23.623-144.604 0a10.99 10.99 0 00-5.96 9.03c-17.137 10.1-32.449 23.643-44.544 39.445a7.5 7.5 0 001.397 10.514c3.274 2.507 7.986 1.907 10.514-1.397 10.928-14.278 24.761-26.512 40.241-35.635l7.734 7.734c-34.615 19.419-58.703 54.014-64.67 93.253l-10.845 1.582a138.29 138.29 0 0110.428-37.879 7.501 7.501 0 00-13.752-5.992 153.321 153.321 0 00-12.025 46.109l-2.008.293a11.051 11.051 0 00-9.414 12.015l.669 6.892h-7.123c-8.425 0-15.28 6.854-15.28 15.28v10.949c.002 8.426 6.856 15.281 15.281 15.281zm290.873 270.291l-.87 8.97a2.592 2.592 0 01-2.097 2.288l-.28.051c-74.483 13.728-152.009 14.649-232.207-.05a2.594 2.594 0 01-2.101-2.289l-.87-8.971c78.688 15.18 158.795 15.362 238.425.001zM156.271 312.131v-33.396h78.234v33.396zm78.234-59.616v11.221h-78.234v-11.221zm193.171-74.232a.28.28 0 01.28.28v10.949a.28.28 0 01-.28.28h-9.695l1.117-11.509zm-33.221-36.438l-10.849-1.582c-5.967-39.239-30.055-73.834-64.67-93.253l7.739-7.739c37.607 22.059 62.356 59.611 67.78 102.574zm-77.967-113.6l-15.737 15.738c-28.019-10.797-60.203-11.277-89.47 0l-.145-.145a6.813 6.813 0 00-.255-.255l-15.337-15.338c38.203-17.68 82.671-17.713 120.944 0zM204.415 57.963a10.974 10.974 0 0010.08.883c26.458-10.85 56.532-10.871 83.043 0a10.973 10.973 0 0010.079-.883c31.402 16.005 53.775 45.829 60.4 80.15a879.306 879.306 0 00-120.246-7.152c-2.002-3.084-5.463-5.043-9.34-4.965a887.538 887.538 0 00-87.596 6.127 10.814 10.814 0 00-6.179 2.909c7.336-33.02 29.301-61.544 59.759-77.069zm-120.338 120.6a.28.28 0 01.28-.28h8.578l1.117 11.509h-9.695a.28.28 0 01-.28-.28z"></path>
    </symbol>
    <symbol xmlns="http://www.w3.org/2000/svg" viewBox="0 0 512 512" id="pancakes">
        <path d="M484.5 410.939h-18.503c4.866-6.458 7.503-14.276 7.503-22.5 0-12.249-5.904-23.144-15.015-29.991 8.903-6.702 15.015-18.957 15.015-30.009 0-12.249-5.904-23.144-15.015-29.991 8.903-6.702 15.015-18.957 15.015-30.009 0-12.249-5.904-23.144-15.015-29.991 8.903-6.702 15.015-18.957 15.015-30.009 0-10.788-4.586-20.521-11.903-27.369 7.184-4.966 11.903-13.256 11.903-22.631-1.576-16.758-10.743-25.924-27.5-27.5h-48.66c-4.143 0-7.5 3.358-7.5 7.5s3.357 7.5 7.5 7.5H446c7.615.718 11.782 4.885 12.5 12.5 0 6.893-5.607 12.5-12.5 12.5h-81.5c-15.163 0-27.5 12.336-27.5 27.5v110c-.718 7.615-4.885 11.782-12.5 12.5-6.893 0-12.5-5.607-12.5-12.5v-80c-1.576-16.758-10.743-25.924-27.5-27.5-15.163 0-27.5 12.336-27.5 27.5v20c-.718 7.616-4.885 11.782-12.5 12.5-6.893 0-12.5-5.607-12.5-12.5v-50c0-15.164-12.336-27.5-27.5-27.5h-26.25c-15.301 0-27.75 12.449-27.75 27.75v169.5c-.727 7.77-4.977 12.02-12.75 12.75-7.03 0-12.75-5.72-12.75-12.75v-83.41a7.5 7.5 0 00-15 0v6.16H76c-12.407 0-22.5-10.093-22.5-22.5 1.291-13.709 8.791-21.209 22.5-22.5h34v6.15a7.5 7.5 0 0015 0v-53.4c0-15.301-12.449-27.75-27.75-27.75H66c-7.616-.717-11.782-4.884-12.5-12.5 0-6.893 5.607-12.5 12.5-12.5h298.66c4.143 0 7.5-3.358 7.5-7.5s-3.357-7.5-7.5-7.5h-75.447c9.202-8.778 14.954-21.143 14.954-34.835 0-24.008-17.657-43.966-40.667-47.579V33.228c0-6.709 5.458-12.167 12.167-12.167 4.143 0 7.5-3.358 7.5-7.5s-3.357-7.5-7.5-7.5c-14.98 0-27.167 12.187-27.167 27.167v15.297c-23.01 3.613-40.667 23.571-40.667 47.579 0 13.691 5.751 26.057 14.954 34.835H66c-15.164 0-27.5 12.336-27.5 27.5.618 10.005 4.579 17.549 11.883 22.633-7.117 6.674-11.883 17.796-11.883 27.367 0 12.249 5.904 23.144 15.015 29.992-8.903 6.701-15.015 18.957-15.015 30.008 0 12.249 5.904 23.144 15.015 29.992-8.903 6.701-15.015 18.957-15.015 30.008 0 12.249 5.904 23.144 15.015 29.992-8.903 6.701-15.015 18.957-15.015 30.008a37.302 37.302 0 007.52 22.5H27.5c-16.758 1.576-25.925 10.742-27.5 27.5 0 15.164 12.336 27.5 27.5 27.5h13.865l17.927 35.854A7.499 7.499 0 0066 505.939h380a7.499 7.499 0 006.708-4.146l17.927-35.854H484.5c16.758-1.576 25.924-10.742 27.5-27.5 0-15.163-12.336-27.5-27.5-27.5zM256 62.938c18.288 0 33.167 14.878 33.167 33.167S274.288 129.272 256 129.272c-18.289 0-33.167-14.878-33.167-33.167S237.711 62.938 256 62.938zM53.5 208.439c0-6.006 2.342-11.655 6.593-15.907 4.252-4.251 9.901-6.593 15.907-6.593h21.25c7.03 0 12.75 5.72 12.75 12.75v32.25H76c-12.407 0-22.5-10.093-22.5-22.5zm405 60c-1.291 13.709-8.791 21.209-22.5 22.5h-84v-45h84c12.406 0 22.5 10.093 22.5 22.5zm-94-82.5H436c12.406 0 22.5 10.093 22.5 22.5-1.291 13.709-8.791 21.209-22.5 22.5h-84v-32.5c0-6.892 5.607-12.5 12.5-12.5zm-40 150c16.758-1.576 25.924-10.742 27.5-27.5v-2.5h84c12.406 0 22.5 10.093 22.5 22.5-1.291 13.709-8.791 21.209-22.5 22.5H165.5v-45H297v2.5c0 15.164 12.337 27.5 27.5 27.5zm-40-120c7.615.718 11.782 4.885 12.5 12.5v2.5h-25v-2.5c0-6.892 5.607-12.5 12.5-12.5zm-40 60c16.758-1.576 25.924-10.742 27.5-27.5v-2.5h25v45H165.5v-45H217v2.5c0 15.164 12.336 27.5 27.5 27.5zm-66.25-90h26.25c6.893 0 12.5 5.607 12.5 12.5v32.5h-51.5v-32.25c0-7.03 5.72-12.75 12.75-12.75zM53.5 328.439c1.291-13.709 8.791-21.209 22.5-22.5h34v45H76c-12.407 0-22.5-10.093-22.5-22.5zm0 60c1.291-13.709 8.791-21.209 22.5-22.5h34v2.25c0 15.301 12.449 27.75 27.75 27.75 16.916-1.587 26.166-10.837 27.75-27.75v-2.25H436c12.406 0 22.5 10.093 22.5 22.5-1.291 13.709-8.791 21.209-22.5 22.5H76c-12.407 0-22.5-10.093-22.5-22.5zm431 62.5H343.16c-4.143 0-7.5 3.358-7.5 7.5s3.357 7.5 7.5 7.5h110.705l-12.5 25H70.635l-12.5-25H310.47c4.143 0 7.5-3.358 7.5-7.5s-3.357-7.5-7.5-7.5H27.5c-6.893 0-12.5-5.607-12.5-12.5.717-7.616 4.884-11.782 12.5-12.5h457c6.893 0 12.5 5.607 12.5 12.5 0 6.811-5.417 12.5-12.5 12.5z"></path>
    </symbol>
    <symbol xmlns="http://www.w3.org/2000/svg" viewBox="0 0 512 512" id="dress">
        <path d="M328.783 216.817v-34.655c6.918-8.65 30.766-40.912 30.766-74.629 0-16.707-6.898-31.833-17.996-42.717V7.267c0-9.386-15-9.813-15 0v46.792a59.954 59.954 0 00-27.176-6.491A60.29 60.29 0 00256 65.987a60.286 60.286 0 00-43.377-18.419 59.941 59.941 0 00-27.176 6.491V7.267c0-9.386-15-9.813-15 0v57.55c-11.098 10.885-17.996 26.01-17.996 42.717 0 34.528 23.754 66.109 30.766 74.679v34.604L66.041 413.085c-8.649 14.488-1.878 33.83 13.877 39.824 17.604 6.698 35.941 12.409 54.593 17.025.375 11.187 7.575 21.33 18.834 25.068a332.024 332.024 0 00104.782 16.931c35.287 0 69.262-5.617 101.012-16.701a27.458 27.458 0 0018.455-25.445c18.576-4.6 36.85-10.273 54.406-16.91 15.788-5.97 22.588-25.337 13.928-39.843zM167.451 107.534c0-24.794 20.264-44.966 45.172-44.966a45.27 45.27 0 0137.212 19.483c2.935 4.238 9.395 4.238 12.33 0a45.27 45.27 0 0137.212-19.483c24.908 0 45.172 20.172 45.172 44.966 0 27.676-20.195 55.895-26.85 64.44h-23.174c-9.386 0-9.813 15 0 15h19.258v24.412H198.217v-24.412h56.449c9.386 0 9.813-15 0-15h-60.42c-6.636-8.331-26.795-35.989-26.795-64.44zm186.745 373.537c-30.692 10.715-63.624 16.044-97.858 15.857a317.025 317.025 0 01-98.266-16.163c-6.335-2.103-9.933-9.141-8.025-15.473l14.376-47.758c2.706-8.987-11.536-13.721-14.363-4.323l-12.641 41.994c-17.826-4.441-35.344-9.916-52.167-16.316-7.173-2.729-10.274-11.511-6.332-18.115l116.054-194.389h11.325L161.511 375.17c-2.672 8.872 11.434 14.058 14.363 4.324l46.089-153.108h68.073l72.002 239.192c.013.061.019.123.033.184.017.074.05.139.069.212a12.478 12.478 0 01-7.944 15.097zm79.923-49.835a12.533 12.533 0 01-7.423 7.61c-16.828 6.362-34.339 11.813-52.148 16.246l-68.846-228.707h11.324L433.05 420.723a12.461 12.461 0 011.069 10.513zM33.613 74.885V63.771h11.114c4.143 0 7.5-3.358 7.5-7.5s-3.357-7.5-7.5-7.5H33.613V37.658c0-4.142-3.357-7.5-7.5-7.5s-7.5 3.358-7.5 7.5v11.113H7.5c-4.143 0-7.5 3.358-7.5 7.5s3.357 7.5 7.5 7.5h11.113v11.114c0 4.142 3.357 7.5 7.5 7.5s7.5-3.358 7.5-7.5z"></path>
        <path d="M81.068 208.763h11.113v11.113c0 4.142 3.357 7.5 7.5 7.5s7.5-3.358 7.5-7.5v-11.113h11.114c4.143 0 7.5-3.358 7.5-7.5s-3.357-7.5-7.5-7.5h-11.114v-11.114c0-4.142-3.357-7.5-7.5-7.5s-7.5 3.358-7.5 7.5v11.114H81.068a7.5 7.5 0 000 15zm-5.636 76.5a7.5 7.5 0 00-7.5-7.5H56.818v-11.114c0-4.142-3.357-7.5-7.5-7.5s-7.5 3.358-7.5 7.5v11.114H30.704c-4.143 0-7.5 3.358-7.5 7.5s3.357 7.5 7.5 7.5h11.114v11.113c0 4.142 3.357 7.5 7.5 7.5s7.5-3.358 7.5-7.5v-11.113h11.113a7.5 7.5 0 007.501-7.5zM504.5 48.771h-11.113V37.658c0-4.142-3.357-7.5-7.5-7.5s-7.5 3.358-7.5 7.5v11.113h-11.114c-4.143 0-7.5 3.358-7.5 7.5s3.357 7.5 7.5 7.5h11.114v11.114c0 4.142 3.357 7.5 7.5 7.5s7.5-3.358 7.5-7.5V63.771H504.5c4.143 0 7.5-3.358 7.5-7.5s-3.357-7.5-7.5-7.5zM393.704 208.763h11.114v11.113c0 4.142 3.357 7.5 7.5 7.5s7.5-3.358 7.5-7.5v-11.113h11.113c4.143 0 7.5-3.358 7.5-7.5s-3.357-7.5-7.5-7.5h-11.113v-11.114c0-4.142-3.357-7.5-7.5-7.5s-7.5 3.358-7.5 7.5v11.114h-11.114a7.5 7.5 0 000 15zm87.592 69h-11.114v-11.114c0-4.142-3.357-7.5-7.5-7.5s-7.5 3.358-7.5 7.5v11.114h-11.113c-4.143 0-7.5 3.358-7.5 7.5s3.357 7.5 7.5 7.5h11.113v11.113c0 4.142 3.357 7.5 7.5 7.5s7.5-3.358 7.5-7.5v-11.113h11.114a7.5 7.5 0 000-15z"></path>
    </symbol>
    <symbol xmlns="http://www.w3.org/2000/svg" viewBox="0 0 463 463" id="newspaper">
        <path d="M407.5 0h-352C46.953 0 40 6.953 40 15.5v432c0 8.547 6.953 15.5 15.5 15.5h352c8.547 0 15.5-6.953 15.5-15.5v-432C423 6.953 416.047 0 407.5 0zm.5 447.5a.5.5 0 01-.5.5h-352a.5.5 0 01-.5-.5v-432a.5.5 0 01.5-.5h352a.5.5 0 01.5.5v432z"></path>
        <path d="M103 159.5v-52.923l34.069 56.781a7.502 7.502 0 008.433 3.37A7.498 7.498 0 00151 159.5v-80c0-4.143-3.358-7.5-7.5-7.5s-7.5 3.357-7.5 7.5v52.923l-34.069-56.781a7.493 7.493 0 00-8.433-3.369A7.498 7.498 0 0088 79.5v80c0 4.143 3.358 7.5 7.5 7.5s7.5-3.357 7.5-7.5zM215.5 87c4.142 0 7.5-3.357 7.5-7.5s-3.358-7.5-7.5-7.5h-40a7.5 7.5 0 00-7.5 7.5v80a7.5 7.5 0 007.5 7.5h40c4.142 0 7.5-3.357 7.5-7.5s-3.358-7.5-7.5-7.5H183v-25.025c.166.011.331.025.5.025h16c4.142 0 7.5-3.357 7.5-7.5s-3.358-7.5-7.5-7.5h-16c-.169 0-.334.014-.5.025V87h32.5zm32.715 74.252c.026.106.048.212.078.316.048.168.105.332.164.495.018.049.032.1.051.148.172.444.383.864.629 1.258.017.028.037.054.055.081.104.163.213.322.329.475.047.062.097.12.146.181.091.113.184.225.281.332.068.076.14.148.211.221a7.577 7.577 0 00.517.479c.083.07.169.137.255.203.095.073.19.146.29.215.095.066.194.127.292.188.094.059.185.121.283.176.194.111.394.213.598.306.045.021.093.037.138.056.176.076.354.147.536.209.021.007.04.017.061.024.024.008.048.01.071.018a7.49 7.49 0 001.084.266l.1.013c.362.055.729.088 1.101.089l.016.001c.016 0 .031-.004.047-.004.32-.002.644-.031.969-.076.089-.012.177-.024.265-.04.063-.011.126-.015.189-.028.271-.054.534-.125.791-.206.036-.011.071-.027.107-.039.307-.102.602-.224.887-.362l.162-.078c.31-.158.607-.335.888-.532.038-.027.073-.056.111-.084a7.5 7.5 0 00.718-.597c.045-.042.092-.082.136-.125.234-.232.45-.48.651-.74.054-.07.106-.142.158-.214.198-.275.382-.558.541-.857.017-.033.031-.068.048-.101.158-.308.293-.629.408-.958.011-.031.027-.058.038-.089l8.885-26.654 8.885 26.654c.01.031.027.058.038.089.115.329.249.649.408.958.017.033.031.068.048.101.159.299.343.582.541.857a7.491 7.491 0 00.81.955c.045.044.092.084.138.126.225.212.463.411.715.595.038.028.075.058.114.086.28.197.577.373.886.531.054.028.109.052.164.079.285.137.579.259.885.361.037.012.072.028.109.04.257.081.52.151.791.205.063.013.126.017.188.028.088.015.177.027.266.04.325.045.648.074.969.076.016 0 .031.004.047.004l.016-.001a7.3 7.3 0 001.101-.089l.1-.013c.37-.061.732-.152 1.084-.266.024-.008.048-.01.071-.018.021-.007.04-.017.061-.024.182-.063.36-.133.536-.209.046-.02.093-.036.138-.056.204-.093.403-.195.598-.306.097-.055.189-.116.283-.176.098-.062.197-.122.292-.188.099-.069.194-.142.29-.215a7.086 7.086 0 001.264-1.235c.049-.06.099-.119.146-.181.116-.153.225-.312.329-.475.018-.027.038-.054.055-.081.246-.394.458-.814.629-1.258.019-.049.033-.099.051-.148.059-.163.116-.326.164-.495.03-.104.052-.21.078-.316.023-.094.05-.186.069-.281l16-80a7.5 7.5 0 00-5.884-8.825 7.498 7.498 0 00-8.825 5.884l-10.461 52.306-7.069-21.207c-.017-.052-.041-.1-.059-.151a8.413 8.413 0 00-.291-.703 7.045 7.045 0 00-.16-.312 7.247 7.247 0 00-.193-.345c-.056-.092-.116-.182-.176-.272a7.817 7.817 0 00-.23-.332c-.067-.089-.138-.175-.208-.262-.081-.098-.161-.196-.246-.29a6.705 6.705 0 00-.263-.271c-.079-.078-.157-.157-.239-.232a7.722 7.722 0 00-.322-.273c-.076-.062-.151-.124-.229-.183a7.298 7.298 0 00-.363-.252c-.08-.053-.159-.106-.241-.156a7.854 7.854 0 00-.371-.208 6.41 6.41 0 00-.64-.302 7.493 7.493 0 00-.351-.137c-.054-.02-.105-.044-.16-.063-.057-.019-.116-.03-.173-.048a7.545 7.545 0 00-1.455-.295 7.078 7.078 0 00-.386-.027 6.926 6.926 0 00-1.45.072 6.975 6.975 0 00-.718.143 7.592 7.592 0 00-.385.107c-.058.018-.117.029-.175.049-.055.019-.106.043-.161.063a7.441 7.441 0 00-.993.44 6.876 6.876 0 00-.366.206c-.084.051-.166.106-.249.161-.12.08-.24.16-.355.246-.081.061-.159.125-.238.189a7.339 7.339 0 00-.314.266c-.085.077-.165.159-.247.24-.087.087-.173.173-.255.263-.087.096-.17.197-.253.298-.068.084-.137.167-.202.253-.082.11-.159.224-.236.339-.058.088-.117.175-.172.266a7.429 7.429 0 00-.196.349 7.488 7.488 0 00-.158.309 8.374 8.374 0 00-.292.704c-.018.051-.042.099-.059.151l-7.069 21.207-10.461-52.306a7.5 7.5 0 00-14.709 2.941l16 80c.016.094.043.186.066.28zM355.5 112h-8c-6.893 0-12.5-5.607-12.5-12.5S340.607 87 347.5 87h20c4.142 0 7.5-3.357 7.5-7.5s-3.358-7.5-7.5-7.5h-20C332.336 72 320 84.337 320 99.5s12.336 27.5 27.5 27.5h8c6.893 0 12.5 5.607 12.5 12.5s-5.607 12.5-12.5 12.5h-28c-4.142 0-7.5 3.357-7.5 7.5s3.358 7.5 7.5 7.5h28c15.164 0 27.5-12.337 27.5-27.5S370.664 112 355.5 112zm20 72h-288c-4.142 0-7.5 3.357-7.5 7.5s3.358 7.5 7.5 7.5h288c4.142 0 7.5-3.357 7.5-7.5s-3.358-7.5-7.5-7.5zm0-144h-288c-4.142 0-7.5 3.357-7.5 7.5s3.358 7.5 7.5 7.5h288c4.142 0 7.5-3.357 7.5-7.5s-3.358-7.5-7.5-7.5zm-216 287c26.191 0 47.5-21.309 47.5-47.5v-8c0-26.191-21.309-47.5-47.5-47.5S112 245.309 112 271.5v8c0 26.191 21.309 47.5 47.5 47.5zM127 271.5c0-17.921 14.58-32.5 32.5-32.5s32.5 14.579 32.5 32.5v8c0 17.921-14.58 32.5-32.5 32.5S127 297.421 127 279.5v-8zm75.103 57.689c-8.487-1.938-16.725 3.306-18.75 11.935C180.746 352.238 170.937 360 159.5 360s-21.246-7.762-23.853-18.877c-2.025-8.628-10.263-13.872-18.75-11.934C95.172 334.146 80 353.189 80 375.5v16c0 12.958 10.542 23.5 23.5 23.5h112c12.958 0 23.5-10.542 23.5-23.5v-16c0-22.311-15.172-41.354-36.897-46.311zM224 391.5c0 4.687-3.813 8.5-8.5 8.5h-112c-4.687 0-8.5-3.813-8.5-8.5v-16c0-15.267 10.376-28.297 25.234-31.687a.597.597 0 01.135-.016c.472 0 .643.618.674.752C125.25 362.479 141.063 375 159.5 375s34.25-12.521 38.457-30.449c.034-.146.237-.862.81-.737l.001.001C213.624 347.203 224 360.233 224 375.5v16zM375.5 232h-112c-4.142 0-7.5 3.357-7.5 7.5s3.358 7.5 7.5 7.5h112c4.142 0 7.5-3.357 7.5-7.5s-3.358-7.5-7.5-7.5zm0 40h-112c-4.142 0-7.5 3.357-7.5 7.5s3.358 7.5 7.5 7.5h112c4.142 0 7.5-3.357 7.5-7.5s-3.358-7.5-7.5-7.5zm-24 40h-88c-4.142 0-7.5 3.357-7.5 7.5s3.358 7.5 7.5 7.5h88c4.142 0 7.5-3.357 7.5-7.5s-3.358-7.5-7.5-7.5zm0 40h-88c-4.142 0-7.5 3.357-7.5 7.5s3.358 7.5 7.5 7.5h88c4.142 0 7.5-3.357 7.5-7.5s-3.358-7.5-7.5-7.5zm0 40h-88c-4.142 0-7.5 3.357-7.5 7.5s3.358 7.5 7.5 7.5h88c4.142 0 7.5-3.357 7.5-7.5s-3.358-7.5-7.5-7.5z"></path>
    </symbol>
    <symbol xmlns="http://www.w3.org/2000/svg" viewBox="0 0 511.997 511.997" id="study">
        <path d="M440.124 121.619c-19.94-1.531-42.504-6.061-67.065-13.462-29.507-8.894-58.149-7.521-85.133 4.078a7.501 7.501 0 005.924 13.782c23.651-10.167 48.846-11.345 74.881-3.498 25.595 7.714 49.229 12.442 70.245 14.056a7.5 7.5 0 101.148-14.956zm-.001 31.875c-19.935-1.53-42.498-6.059-67.064-13.462-29.507-8.894-58.149-7.521-85.133 4.078a7.501 7.501 0 005.924 13.782c23.651-10.167 48.846-11.345 74.881-3.498 25.601 7.715 49.234 12.444 70.246 14.056a7.5 7.5 0 101.146-14.956zm.001 159.377c-19.941-1.531-42.505-6.061-67.065-13.463-29.505-8.894-58.146-7.52-85.133 4.079a7.501 7.501 0 005.924 13.782c23.652-10.167 48.847-11.343 74.881-3.499 25.594 7.714 49.228 12.443 70.245 14.057a7.5 7.5 0 101.148-14.956zm0 31.875c-19.94-1.531-42.504-6.061-67.065-13.462-29.507-8.893-58.149-7.521-85.133 4.078a7.501 7.501 0 005.924 13.782c23.651-10.167 48.846-11.345 74.881-3.498 25.595 7.714 49.229 12.442 70.245 14.056a7.5 7.5 0 101.148-14.956zm0-159.376c-19.941-1.531-42.505-6.061-67.065-13.463-29.505-8.893-58.146-7.521-85.133 4.079a7.501 7.501 0 005.924 13.782c23.652-10.167 48.847-11.344 74.881-3.499 25.594 7.714 49.228 12.443 70.245 14.057a7.5 7.5 0 101.148-14.956zm-.001 63.749c-19.935-1.529-42.498-6.058-67.064-13.461-29.505-8.894-58.148-7.521-85.133 4.078a7.501 7.501 0 005.924 13.782c23.65-10.166 48.846-11.344 74.881-3.498 25.601 7.715 49.234 12.444 70.246 14.057a7.5 7.5 0 008.051-6.906 7.5 7.5 0 00-6.905-8.052zm.001-31.874c-19.94-1.531-42.504-6.061-67.065-13.462-29.504-8.894-58.148-7.521-85.133 4.078a7.501 7.501 0 005.924 13.782c23.654-10.167 48.847-11.344 74.881-3.498 25.595 7.714 49.229 12.442 70.245 14.056a7.5 7.5 0 101.148-14.956zm-.001 63.749c-19.938-1.529-42.502-6.059-67.064-13.461-29.505-8.893-58.146-7.521-85.133 4.079a7.501 7.501 0 005.924 13.782c23.652-10.167 48.847-11.343 74.881-3.499 25.597 7.715 49.23 12.444 70.246 14.057a7.5 7.5 0 008.051-6.906 7.5 7.5 0 00-6.905-8.052zM72.44 136.597c.192 0 .387-.007.582-.022 21.017-1.613 44.65-6.342 70.245-14.056 26.035-7.846 51.229-6.67 74.881 3.498a7.501 7.501 0 005.924-13.782c-26.984-11.6-55.627-12.971-85.133-4.078-24.562 7.401-47.125 11.931-67.065 13.462a7.498 7.498 0 00-6.903 8.052 7.499 7.499 0 007.469 6.926zm0 31.875c.192 0 .387-.007.581-.022 21.012-1.611 44.646-6.341 70.246-14.056 26.035-7.846 51.229-6.671 74.881 3.498a7.5 7.5 0 105.924-13.782c-26.984-11.6-55.627-12.97-85.133-4.078-24.566 7.403-47.13 11.932-67.064 13.462a7.497 7.497 0 00-6.904 8.051 7.499 7.499 0 007.469 6.927zm0 159.377c.192 0 .387-.007.582-.022 21.018-1.613 44.651-6.343 70.245-14.057 26.036-7.848 51.229-6.668 74.881 3.499a7.5 7.5 0 105.924-13.782c-26.984-11.6-55.627-12.971-85.133-4.079-24.561 7.402-47.124 11.932-67.065 13.463a7.498 7.498 0 00-6.903 8.052 7.499 7.499 0 007.469 6.926zm0 31.875c.192 0 .387-.007.582-.022 21.017-1.613 44.65-6.342 70.245-14.056 26.035-7.846 51.229-6.671 74.881 3.498a7.5 7.5 0 105.924-13.782c-26.984-11.6-55.627-12.971-85.133-4.078-24.562 7.401-47.125 11.931-67.065 13.462a7.498 7.498 0 00-6.903 8.052 7.499 7.499 0 007.469 6.926zm0-159.376c.192 0 .387-.007.582-.022 21.018-1.613 44.651-6.343 70.245-14.057 26.036-7.847 51.229-6.668 74.881 3.499a7.5 7.5 0 105.924-13.782c-26.984-11.6-55.627-12.971-85.133-4.079-24.561 7.402-47.124 11.932-67.065 13.463a7.498 7.498 0 00-6.903 8.052 7.499 7.499 0 007.469 6.926zm0 63.75c.192 0 .387-.007.581-.021 21.012-1.612 44.646-6.342 70.246-14.057 26.035-7.846 51.229-6.671 74.881 3.498a7.5 7.5 0 105.924-13.782c-26.983-11.599-55.625-12.971-85.133-4.078-24.566 7.403-47.13 11.932-67.064 13.461a7.499 7.499 0 00-6.904 8.052 7.499 7.499 0 007.469 6.927zm0-31.875c.192 0 .387-.007.582-.022 21.017-1.613 44.65-6.342 70.245-14.056 26.034-7.845 51.228-6.671 74.881 3.498a7.5 7.5 0 105.924-13.782c-26.986-11.6-55.627-12.973-85.133-4.078-24.562 7.401-47.125 11.931-67.065 13.462a7.498 7.498 0 00-6.903 8.052 7.499 7.499 0 007.469 6.926zm0 63.75c.192 0 .387-.007.581-.021 21.016-1.612 44.649-6.342 70.246-14.057 26.036-7.848 51.229-6.668 74.881 3.499a7.501 7.501 0 005.924-13.782c-26.984-11.6-55.627-12.972-85.133-4.079-24.562 7.402-47.127 11.932-67.064 13.461a7.499 7.499 0 00-6.904 8.052 7.499 7.499 0 007.469 6.927z"></path>
        <path d="M493.68 93.315h-11.741v-6.843c0-9.59-8.181-17.176-17.762-16.413-11.067.885-35.3.939-73.262-8.687a7.496 7.496 0 00-9.113 5.426 7.498 7.498 0 005.426 9.113c38.054 9.649 63.502 10.276 78.148 9.099a1.452 1.452 0 011.562 1.462v302.656c-28.41 3.065-66.362-5.068-93.88-13.36-61.461-18.523-101.194 13.3-109.56 17.834V93.812c8.104-7.601 40.767-34.523 89.38-26.701 4.087.664 7.938-2.122 8.597-6.212a7.5 7.5 0 00-6.212-8.597c-51.045-8.224-86.269 16.71-99.283 28.065-29.839-25.878-72.521-37.373-117.041-23.953-47.783 14.4-77.601 14.725-91.118 13.646-9.594-.77-17.761 6.84-17.761 16.412v6.843H18.317C8.217 93.315 0 101.531 0 111.632v304.143c0 10.101 8.218 18.317 18.318 18.317h194.326c2.912 0 5.553 1.607 6.729 4.097 14.556 30.796 58.641 30.909 73.25 0 1.177-2.488 3.818-4.097 6.73-4.097h194.326c10.1 0 18.316-8.217 18.316-18.317V273.54c0-4.143-3.357-7.5-7.5-7.5s-7.5 3.357-7.5 7.5v142.234a3.32 3.32 0 01-3.316 3.317H299.354c-8.684 0-16.648 4.979-20.291 12.687-9.168 19.395-36.926 19.472-46.128.001-3.642-7.707-11.606-12.688-20.291-12.688H18.318A3.321 3.321 0 0115 415.774V111.632a3.32 3.32 0 013.317-3.317H30.06v287.214a7.499 7.499 0 005.581 7.25c1.426.378 35.778 9.005 107.627-12.649 34.763-10.476 68.315-4.052 94.936 14.721 10.293 7.257 24.622 7.737 35.593-.001 16.077-11.338 49.785-28.324 94.935-14.72 71.852 21.653 106.201 13.026 107.627 12.649a7.499 7.499 0 005.581-7.25V108.315h11.741a3.32 3.32 0 013.317 3.317V238.54c0 4.143 3.357 7.5 7.5 7.5s7.5-3.357 7.5-7.5V111.632c-.001-10.101-8.218-18.317-18.318-18.317zM45.06 86.472a1.45 1.45 0 011.562-1.462c14.57 1.172 46.505.876 96.646-14.235 40.607-12.234 79.401-1.143 105.231 23.043v299.784c-4.302-2.329-46.474-36.849-109.56-17.833a426.274 426.274 0 01-12.605 3.584l-.149.04c-24.15 6.442-56.276 12.415-81.126 9.739l.001-302.66z"></path>
    </symbol>
    <symbol xmlns="http://www.w3.org/2000/svg" viewBox="0 0 512 512" id="desktop">
        <path d="M474.5 18.5h-437C16.822 18.5 0 35.322 0 56v330c0 20.678 16.822 37.5 37.5 37.5h160.057l-9.027 31.594c-3.625 12.688-17.835 23.406-31.03 23.406H101c-4.142 0-7.5 3.357-7.5 7.5s3.358 7.5 7.5 7.5h310c4.142 0 7.5-3.357 7.5-7.5s-3.358-7.5-7.5-7.5h-56.5c-13.195 0-27.405-10.719-31.03-23.406l-9.027-31.594H474.5c20.678 0 37.5-16.822 37.5-37.5V56c0-20.678-16.822-37.5-37.5-37.5zm-437 15h437c12.407 0 22.5 10.094 22.5 22.5v262.5H15V56c0-12.406 10.093-22.5 22.5-22.5zm271.547 425.715c2.058 7.205 6.149 13.824 11.512 19.285H191.441c5.363-5.461 9.454-12.081 11.512-19.285l10.204-35.715h85.685zM474.5 408.5h-437C25.093 408.5 15 398.406 15 386v-52.5h482V386c0 12.406-10.093 22.5-22.5 22.5z"></path>
        <path d="M37.5 303.5h437a7.5 7.5 0 007.5-7.5V56a7.5 7.5 0 00-7.5-7.5h-437A7.5 7.5 0 0030 56v105c0 4.143 3.358 7.5 7.5 7.5s7.5-3.357 7.5-7.5V63.5h422v225H45V191c0-4.143-3.358-7.5-7.5-7.5S30 186.857 30 191v105a7.5 7.5 0 007.5 7.5zm218.5 45c-12.407 0-22.5 10.094-22.5 22.5s10.093 22.5 22.5 22.5 22.5-10.094 22.5-22.5-10.093-22.5-22.5-22.5zm0 30c-4.136 0-7.5-3.364-7.5-7.5s3.364-7.5 7.5-7.5 7.5 3.364 7.5 7.5-3.364 7.5-7.5 7.5z"></path>
    </symbol>
    <symbol xmlns="http://www.w3.org/2000/svg" viewBox="0 0 463 463" id="libra">
        <path d="M462.988 319.813c.001-.105.012-.208.012-.313 0-.023-.003-.046-.004-.07a7.315 7.315 0 00-.026-.511c-.006-.083-.01-.166-.019-.248-.016-.147-.042-.293-.067-.44-.018-.105-.033-.211-.056-.315-.025-.113-.057-.225-.087-.338-.036-.135-.07-.27-.113-.401-.028-.086-.063-.172-.094-.258a7.075 7.075 0 00-.179-.452c-.01-.023-.017-.047-.028-.071L383 141.875V119h.5c8.547 0 15.5-6.953 15.5-15.5v-1.188c0-7.648-5.48-14.083-13.03-15.302L255 65.875V52.446c4.971-5.571 8-12.91 8-20.946C263 14.131 248.869 0 231.5 0S200 14.131 200 31.5c0 8.036 3.029 15.375 8 20.946v12.7L76.951 86.988A15.452 15.452 0 0064 102.277v1.223c0 8.547 6.953 15.5 15.5 15.5h.5v22.875L.672 316.396c-.011.023-.018.048-.028.071a7.679 7.679 0 00-.178.451c-.032.086-.066.172-.095.259a6.587 6.587 0 00-.113.401c-.03.113-.062.225-.087.338-.022.104-.038.21-.056.315-.025.147-.051.293-.067.44-.009.082-.012.166-.019.249a7.92 7.92 0 00-.026.509c0 .024-.004.047-.004.07 0 .106.011.209.012.315.004.084.003.169.01.253C.489 350.916 38.735 375 87.5 375s87.011-24.084 87.478-54.932c.007-.084.006-.169.01-.254.001-.105.012-.208.012-.313 0-.023-.003-.046-.004-.07a7.315 7.315 0 00-.026-.511c-.006-.083-.01-.166-.019-.248-.016-.147-.042-.293-.067-.44-.018-.105-.033-.211-.056-.315-.025-.113-.057-.225-.087-.338-.036-.135-.07-.27-.113-.401-.028-.086-.063-.172-.094-.258a7.075 7.075 0 00-.179-.452c-.01-.023-.017-.047-.028-.071L95 141.875V119h113v162.945c-4.765 2.647-8 7.728-8 13.555v110.486l-47.51 14.847c-9.863 3.083-16.49 12.097-16.49 22.431V455.5a7.5 7.5 0 007.5 7.5h176a7.5 7.5 0 007.5-7.5v-12.237c0-10.334-6.627-19.348-16.49-22.431L263 405.986V295.5c0-5.827-3.235-10.908-8-13.555V119h113v22.875l-79.328 174.522c-.011.023-.018.048-.028.071a7.679 7.679 0 00-.178.451c-.032.086-.066.172-.095.259a6.587 6.587 0 00-.113.401c-.03.113-.062.225-.087.338-.022.104-.038.21-.056.315-.025.147-.051.293-.067.44-.009.082-.012.166-.019.249a7.92 7.92 0 00-.026.509c0 .024-.004.047-.004.07 0 .106.011.209.012.315.004.084.003.169.01.253C288.489 350.916 326.735 375 375.5 375s87.011-24.084 87.478-54.932c.007-.085.006-.17.01-.255zM87.5 161.625L155.852 312H19.148L87.5 161.625zM87.5 360c-34.728 0-64.692-14.482-71.194-33h142.389c-6.503 18.518-36.467 33-71.195 33zM248 295.5V404h-33V295.5a.5.5 0 01.5-.5h32a.5.5 0 01.5.5zM223 280V61.825c2.706.76 5.555 1.175 8.5 1.175s5.794-.415 8.5-1.175V280h-17zm8.5-265c9.098 0 16.5 7.402 16.5 16.5S240.598 48 231.5 48 215 40.598 215 31.5 222.402 15 231.5 15zm-152 89a.5.5 0 01-.5-.5v-1.223c0-.246.176-.453.418-.493L208 80.354V104H79.5zM312 443.263V448H151v-4.737a8.462 8.462 0 015.965-8.113l51.68-16.15h45.711l51.68 16.15a8.463 8.463 0 015.964 8.113zM255 81.07l128.579 20.749a.498.498 0 01.421.494v1.188a.5.5 0 01-.5.5H255V81.07zm120.5 80.555L443.852 312H307.148L375.5 161.625zm0 198.375c-34.728 0-64.692-14.482-71.194-33h142.389c-6.503 18.518-36.467 33-71.195 33z"></path>
    </symbol>
    <symbol xmlns="http://www.w3.org/2000/svg" viewBox="0 0 512 512" id="shipped">
        <path d="M476.158 231.363l-13.259-53.035c3.625-.77 6.345-3.986 6.345-7.839v-8.551c0-18.566-15.105-33.67-33.67-33.67h-60.392V110.63c0-9.136-7.432-16.568-16.568-16.568H50.772c-9.136 0-16.568 7.432-16.568 16.568V256a8.017 8.017 0 0016.034 0V110.63c0-.295.239-.534.534-.534h307.841c.295 0 .534.239.534.534v145.372a8.017 8.017 0 0016.034 0v-9.088h94.569l.021.002.022-.001c11.637.008 21.518 7.646 24.912 18.171h-24.928a8.017 8.017 0 00-8.017 8.017v17.102c0 13.851 11.268 25.119 25.119 25.119h9.086v35.273h-20.962c-6.886-19.883-25.787-34.205-47.982-34.205s-41.097 14.322-47.982 34.205h-3.86v-60.393a8.017 8.017 0 00-16.034 0v60.391H192.817c-6.886-19.883-25.787-34.205-47.982-34.205s-41.097 14.322-47.982 34.205H50.772a.534.534 0 01-.534-.534v-17.637h34.739a8.017 8.017 0 000-16.034H8.017a8.017 8.017 0 000 16.034h26.188v17.637c0 9.136 7.432 16.568 16.568 16.568h43.304c-.002.178-.014.355-.014.534 0 27.996 22.777 50.772 50.772 50.772s50.772-22.776 50.772-50.772c0-.18-.012-.356-.014-.534h180.67c-.002.178-.014.355-.014.534 0 27.996 22.777 50.772 50.772 50.772 27.995 0 50.772-22.776 50.772-50.772 0-.18-.012-.356-.014-.534h26.203a8.017 8.017 0 008.017-8.017v-85.511c.001-21.112-15.576-38.653-35.841-41.738zm-100.976-87.062h60.392c9.725 0 17.637 7.912 17.637 17.637v.534h-78.029v-18.171zm0 86.58v-52.376h71.235l13.094 52.376h-84.329zM144.835 401.904c-19.155 0-34.739-15.583-34.739-34.739s15.584-34.739 34.739-34.739c19.155 0 34.739 15.583 34.739 34.739s-15.584 34.739-34.739 34.739zm282.188 0c-19.155 0-34.739-15.583-34.739-34.739s15.584-34.739 34.739-34.739c19.155 0 34.739 15.583 34.739 34.739s-15.584 34.739-34.739 34.739zm68.944-102.614h-9.086c-5.01 0-9.086-4.076-9.086-9.086v-9.086h18.171v18.172z"></path>
        <path d="M144.835 350.597c-9.136 0-16.568 7.432-16.568 16.568 0 9.136 7.432 16.568 16.568 16.568 9.136 0 16.568-7.432 16.568-16.568 0-9.136-7.432-16.568-16.568-16.568zm282.188 0c-9.136 0-16.568 7.432-16.568 16.568 0 9.136 7.432 16.568 16.568 16.568 9.136 0 16.568-7.432 16.568-16.568 0-9.136-7.432-16.568-16.568-16.568zm-94.063-34.204H213.244a8.017 8.017 0 000 16.034H332.96a8.017 8.017 0 000-16.034zm-205.227-34.205H25.119a8.017 8.017 0 000 16.034h102.614a8.017 8.017 0 000-16.034zM278.771 173.37a8.017 8.017 0 00-11.337.001l-71.292 71.291-37.087-37.087a8.016 8.016 0 00-11.337 0 8.016 8.016 0 000 11.337l42.756 42.756c1.565 1.566 3.617 2.348 5.668 2.348s4.104-.782 5.668-2.348l76.96-76.96a8.018 8.018 0 00.001-11.338z"></path>
    </symbol>
    <symbol xmlns="http://www.w3.org/2000/svg" viewBox="0 0 512 512" id="doctor">
        <path d="M482.726 485.783l-22.65-132.603c-2.441-14.287-12.576-25.764-26.453-29.95l-61.092-18.433a67.95 67.95 0 00-17.578-40.175 68.085 68.085 0 00-29.704-18.999 124.42 124.42 0 005.372-6.377c14.528-18.477 22.306-38.833 24.286-52.724h4.713c12.258 0 22.231-9.972 22.231-22.231v-11.396c0-8.181-4.602-15.594-11.523-19.441V106.05a7.498 7.498 0 00-14.995 0v30.764c-2.92.507-6.404 1.383-9.968 2.884a7.53 7.53 0 00-1.056.472c-.805.367-1.611.754-2.414 1.19V80.938c0-16.693-13.58-30.273-30.273-30.273h-20.695a31.105 31.105 0 00-19.637 7.005l-2.031 1.66a20.999 20.999 0 01-13.257 4.73c-4.819 0-9.528-1.68-13.258-4.73l-2.03-1.66a31.11 31.11 0 00-19.637-7.005H200.38c-16.693 0-30.273 13.58-30.273 30.273v60.422a38.473 38.473 0 00-2.414-1.19 7.519 7.519 0 00-1.055-.472c-3.564-1.501-7.049-2.377-9.968-2.884V59.025c0-24.278 19.752-44.03 44.03-44.03h110.601c24.279 0 44.03 19.752 44.03 44.03v11.786a7.498 7.498 0 1014.995 0V59.025C370.326 26.479 343.847 0 311.301 0H200.7c-32.547 0-59.025 26.479-59.025 59.025v74.43c-6.921 3.847-11.523 11.259-11.523 19.441v11.396c0 12.259 9.973 22.231 22.231 22.231h4.713c1.979 13.891 9.758 34.247 24.286 52.724a124.188 124.188 0 005.367 6.371c-25.98 8.252-44.926 31.61-47.277 59.179L78.378 323.23c-13.877 4.186-24.013 15.663-26.453 29.95l-9.198 53.849a7.497 7.497 0 0014.781 2.524l9.198-53.849c1.476-8.644 7.608-15.586 16.003-18.118l56.505-17.049v14.831c-12.952 2.384-23.973 11.281-28.512 23.608a38.026 38.026 0 00-2.226 10.182l-5.461 70.095a19.11 19.11 0 005.01 14.423 19.114 19.114 0 0013.989 6.116h9.348a7.497 7.497 0 100-14.995h-9.348a4.07 4.07 0 01-2.982-1.304 4.07 4.07 0 01-1.067-3.073l5.461-70.096a23.021 23.021 0 011.348-6.167c3.158-8.575 11.686-14.382 21.223-14.449l1.235-.009.172-.001c9.269 0 17.474 5.256 20.935 13.427a22.997 22.997 0 011.755 7.199l5.463 70.097a4.078 4.078 0 01-1.068 3.073 4.074 4.074 0 01-2.982 1.303h-9.348a7.497 7.497 0 100 14.995h9.348a19.108 19.108 0 0013.989-6.116 19.11 19.11 0 005.011-14.422l-5.463-70.096a37.974 37.974 0 00-2.898-11.884c-4.939-11.657-15.5-19.762-27.938-21.955v-19.306l25.774-7.777c2.345 4.939 6.992 15.612 16.197 38.619 9.277 23.214 20.808 52.969 31.867 81.895.079.243.17.48.272.712a9889.647 9889.647 0 0120.662 54.541 7.498 7.498 0 0014.04 0 9730.632 9730.632 0 0120.662-54.541c.103-.232.193-.47.272-.712 11.051-28.909 22.576-58.645 31.849-81.852 9.217-23.037 13.868-33.719 16.214-38.662l25.774 7.777v44.285c-17.858 3.469-31.385 19.219-31.385 38.077 0 21.391 17.403 38.795 38.795 38.795 21.392 0 38.795-17.403 38.795-38.795 0-18.796-13.438-34.508-31.21-38.045v-39.792l56.506 17.049c8.395 2.532 14.526 9.474 16.003 18.118l22.65 132.603a7.329 7.329 0 01-1.648 6.054 7.334 7.334 0 01-5.69 2.644H51.393a7.333 7.333 0 01-5.69-2.644 7.331 7.331 0 01-1.648-6.054l7.475-43.762a7.497 7.497 0 00-6.128-8.652c-4.08-.7-7.955 2.047-8.653 6.128l-7.475 43.762a22.4 22.4 0 004.968 18.248A22.398 22.398 0 0051.393 512h409.214a22.394 22.394 0 0017.151-7.969 22.4 22.4 0 004.968-18.248zM355.421 152.089c3.995-.996 7.202-.978 7.238-.977a7.664 7.664 0 003.664-.87c.334.831.531 1.724.531 2.654v11.396c0 3.99-3.246 7.236-7.236 7.236h-4.197v-19.439zm-198.842 19.439h-4.197c-3.99 0-7.236-3.246-7.236-7.236v-11.396c0-.93.198-1.823.531-2.653a7.646 7.646 0 003.664.869c.057.01 3.255-.008 7.238.981v19.435zm14.995 8.407v-19.698c2.272.681 4.757.588 7.051-.369a10.502 10.502 0 006.477-9.716V80.938c0-8.424 6.854-15.278 15.278-15.278h20.695c3.688 0 7.291 1.285 10.146 3.619l2.03 1.66A36.033 36.033 0 00256 79.054a36.039 36.039 0 0022.749-8.115l2.03-1.66a16.07 16.07 0 0110.146-3.619h20.695c8.424 0 15.278 6.854 15.278 15.278v69.215c0 4.26 2.542 8.074 6.477 9.716a10.471 10.471 0 007.051.375v19.691c0 10.947-7.568 32.205-21.594 50.043-4.646 5.909-10.618 12.257-17.971 17.805a7.51 7.51 0 00-.669.505c-11.391 8.422-26.038 14.874-44.192 14.874s-32.801-6.452-44.193-14.875a7.608 7.608 0 00-.667-.503c-7.353-5.549-13.325-11.897-17.972-17.806-14.025-17.837-21.594-39.096-21.594-50.043zM305.12 301.07L256 337.784l-49.12-36.714c4.871-6.191 7.6-14.138 7.6-21.23v-12.086c11.551 6.212 25.334 10.404 41.52 10.404s29.97-4.192 41.52-10.404v12.086c0 7.092 2.729 15.039 7.6 21.23zm-110.753-8.369a20.5 20.5 0 00-12.642-.636 9.418 9.418 0 00-.539.144l-25.903 7.816c4.381-21.542 21.873-38.688 44.202-42.009v21.824c0 4.704-2.1 9.567-5.118 12.861zm20.349 60.188l-.041-.104a2233.66 2233.66 0 00-1.328-3.353l-1.081-2.722-.075-.189a2891.71 2891.71 0 00-3.212-8.039l-.225-.56-.876-2.177-.316-.783c-.28-.694-.558-1.384-.832-2.059l-.243-.599a3020.388 3020.388 0 00-2.392-5.874l-.584-1.424-.219-.534-.168-.408c-.866-2.104-1.689-4.087-2.47-5.952l-.019-.045c-.416-.993-.823-1.963-1.214-2.887l-.599-1.412 42.245 31.574-17.652 7.499-.094.04-7.37 3.131-1.235-3.123zm17.89 45.908a7797.43 7797.43 0 00-4.468-11.569 6045.963 6045.963 0 00-6.708-17.251l2.798-1.189 11.432 13.289-3.054 16.72zm23.539 60.938a7.466 7.466 0 00-.767-1.259c-3.388-8.955-7.688-20.286-12.447-32.753l7-38.325h12.138l7 38.325a11871.808 11871.808 0 00-12.924 34.012zm8.736-87.331h-17.762l-8.405-9.77L256 355.291l17.286 7.343-8.405 9.77zm18.981 14.824a7797.43 7797.43 0 00-4.468 11.569l-3.054-16.721 11.432-13.289 2.798 1.189c-2.137 5.47-4.37 11.213-6.708 17.252zm28.718-72.048a777.44 777.44 0 00-1.15 2.733l-.154.368c-.389.93-.785 1.88-1.195 2.869l-.082.2c-.354.853-.717 1.733-1.086 2.63l-.203.492-.253.617-.499 1.216-.622 1.519-.204.5a1458.71 1458.71 0 00-1.606 3.951l-.257.635-.824 2.039-.326.809-.867 2.155-.247.615a2635.385 2635.385 0 00-3.167 7.925l-.108.272-1.074 2.704-.203.511-1.133 2.861-.021.053-1.248 3.16-7.377-3.134-.077-.033-17.662-7.503 42.245-31.574c-.198.46-.398.93-.6 1.41zm18.234-22.97l-.004-.001c-.006-.002-.013-.003-.019-.006-4.35-1.305-8.99-1.089-13.157.498-3.019-3.294-5.118-8.157-5.118-12.861v-21.835a52.849 52.849 0 0144.232 42.029l-25.934-7.824zm58.187 106.165c0 13.124-10.677 23.8-23.8 23.8s-23.8-10.676-23.8-23.8 10.677-23.8 23.8-23.8 23.8 10.676 23.8 23.8z"></path>
    </symbol>
    <symbol xmlns="http://www.w3.org/2000/svg" viewBox="0 0 511.999 511.999" id="hostel">
        <path d="M139.499 378.956c-2.332-2.33-5.985-2.33-8.443-.126l-15.816 14.05c-1.761 1.515-2.52 3.403-2.142 5.672.569 3.34 1.072 4.979 2.458 6.364 1.321 1.325 4.096 1.826 7.813 5.544 4.602 4.6 5.608 10.018 1.829 13.798l-.127.126c-3.906 3.906-9.137 3.088-13.23-1.009-3.088-3.087-4.789-6.552-5.543-11.214-.193-1.323-.63-2.396-1.765-3.529-2.522-2.521-6.745-2.457-9.261.064-1.638 1.637-2.082 3.717-1.767 5.672 1.007 6.047 3.59 11.907 9.705 18.019 9.699 9.704 22.367 10.521 31.691 1.198l.127-.127c9.955-9.954 7.372-20.855-1.326-29.549-2.454-2.458-4.346-3.718-6.554-5.041l8.131-7.12 14.871 14.87c2.332 2.332 6.173 2.395 8.506.064 2.333-2.332 2.333-6.239 0-8.569l-19.157-19.157zm-20.92-22.18l-.125-.126c-1.323-1.323-3.025-2.395-5.355-3.718l-8.065-4.41c-2.52-1.387-5.418-1.009-7.372.945-2.27 2.267-2.204 6.111.065 8.38.503.503 1.321 1.072 1.953 1.45l4.283 2.52-30.492 30.493a6.766 6.766 0 00-.003 9.579 6.77 6.77 0 009.577-.001l35.536-35.535a6.77 6.77 0 00-.002-9.577z"></path>
        <path d="M499.324 82.414l.817-.817c6.984-6.978 12.077-19.684 11.851-29.551l-.652-28.906c-.271-11.961-10.223-21.913-22.185-22.184l-28.9-.652c-.21-.004-.425-.007-.64-.007-9.72 0-22.152 5.096-28.917 11.856L283.795 159.059a102.124 102.124 0 00-28.582-4.063c-27.267 0-52.902 10.618-72.184 29.898-37.821 37.827-39.673 98.177-5.611 138.242l-9.45 9.451-47.548-47.547a8.301 8.301 0 00-11.744 0L2.432 391.283a8.302 8.302 0 000 11.742L108.673 509.27a8.301 8.301 0 0011.744 0l106.246-106.245a8.302 8.302 0 000-11.742L179.71 344.33l9.446-9.447c18.433 15.701 41.582 24.282 66.061 24.282 27.268 0 52.904-10.618 72.187-29.9 13.825-13.827 23.339-31.186 27.514-50.204a102.365 102.365 0 00-1.682-50.56l4.389-4.389 8.831 2.213c5.873 1.471 11.572-.266 14.822-4.431 2.647-3.391 3.448-7.88 2.255-12.646l-.1-.394 6.394 1.601c1.749.438 3.479.661 5.144.661 5.089 0 9.478-2.034 12.36-5.726 3.092-3.961 4.006-9.292 2.574-15.01l-3.713-14.832 13.666-13.666 8.828 2.212c5.878 1.471 11.578-.267 14.83-4.435 2.516-3.228 3.361-7.451 2.409-11.95 5.625 1.189 11.009-.588 14.132-4.591 2.518-3.227 3.363-7.45 2.411-11.952 5.631 1.187 11.01-.588 14.134-4.59 2.646-3.391 3.445-7.882 2.252-12.644l-.648-2.586 3.474.87c1.749.437 3.481.66 5.144.66h.001c5.091 0 9.48-2.033 12.362-5.725 3.092-3.96 4.006-9.292 2.573-15.016l-2.436-9.721zM209.048 397.152l-94.503 94.502-94.5-94.501 94.501-94.502 41.677 41.677-.803.803a8.301 8.301 0 00.001 11.742 8.273 8.273 0 005.871 2.432c2.125 0 4.25-.81 5.872-2.432l.803-.803 41.081 41.082zm279.353-327.3l-4.146 4.146a8.304 8.304 0 00-2.182 7.89l3.558 14.195-14.198-3.556a8.306 8.306 0 00-7.888 2.182l-2.066 2.066a8.302 8.302 0 00-1.798 9.055c.043.105.072.186.084.234l1.955 7.806-7.82-1.96a2.31 2.31 0 01-.208-.064 8.303 8.303 0 00-10.524 10.584c.018.048.033.099.053.177l1.954 7.806-7.829-1.962c-.073-.019-.142-.042-.209-.064-3.012-1.023-6.319-.163-8.554 2.097-2.234 2.261-2.963 5.671-1.908 8.669l1.955 7.806-7.81-1.957a1.34 1.34 0 01-.188-.069 8.307 8.307 0 00-9.094 1.781l-20.414 20.415a8.303 8.303 0 00-2.183 7.887l4.833 19.307-19.306-4.836a8.3 8.3 0 00-7.885 2.18l-.425.424a8.299 8.299 0 00-1.779 9.109c.029.071.048.125.063.185l1.956 7.804-7.791-1.952a1.484 1.484 0 01-.225-.08 8.298 8.298 0 00-9.078 1.788L337.92 220.33a8.302 8.302 0 00-1.971 8.598c10.705 30.788 2.741 65.561-20.287 88.591-16.146 16.144-37.612 25.035-60.445 25.035-20.042 0-39.028-6.854-54.289-19.448l10.606-10.607a22.51 22.51 0 008.972 1.862c6.028 0 11.697-2.348 15.966-6.613 8.8-8.802 8.8-23.123-.001-31.928-4.266-4.263-9.934-6.612-15.963-6.612a22.427 22.427 0 00-15.962 6.612 22.425 22.425 0 00-6.616 15.966c0 3.139.65 6.174 1.862 8.971l-10.598 10.599c-27.619-33.544-25.764-83.377 5.58-114.725 16.145-16.143 37.61-25.034 60.442-25.034a85.478 85.478 0 0128.152 4.746 8.306 8.306 0 008.6-1.972L442.443 23.896c3.663-3.661 11.849-6.994 17.176-6.994l29.165.655c3.104.07 5.888 2.855 5.958 5.957l.652 28.908c.119 5.345-3.212 13.651-6.993 17.43zM214.536 291.791c0-1.593.621-3.092 1.751-4.221a5.927 5.927 0 014.219-1.748c1.595 0 3.094.622 4.221 1.747 2.327 2.328 2.328 6.116.002 8.441a5.934 5.934 0 01-4.224 1.75 5.93 5.93 0 01-4.221-1.75 5.927 5.927 0 01-1.748-4.219z"></path>
        <path d="M327.428 196.617l-11.783-11.703 147.089-148.09 11.783 11.703z"></path>
    </symbol>
    <symbol xmlns="http://www.w3.org/2000/svg" viewBox="0 0 512.001 512.001" id="hair">
        <path d="M255.812 0c-42.113 0-83.589 11.004-119.945 31.82a7.498 7.498 0 007.452 13.014c34.091-19.52 72.99-29.838 112.493-29.838 154.649 0 257.368 148.011 202.354 286.793-5.262 13.279-3.044 22.638-3.568 35.54a4.398 4.398 0 01-3.751 4.344l-.014-56.943a7.498 7.498 0 00-7.499-7.499 7.498 7.498 0 00-7.499 7.499l.013 57.56c0-.67-.001-5.696.001.068 0 7.917 6.442 14.358 14.359 14.358 10.689 0 19.386-8.696 19.386-19.387.461-14.074-1.311-20.368 2.515-30.014C531.173 158.313 420.7 0 255.812 0z"></path>
        <path d="M427.418 180.875c-32.737-36.332-64.65-12.463-66.264-12.213-46.692 24.651-70.129 37.024-105.347 37.025-37.601-.001-63.632-15.008-108.268-38.574-7.962-4.202-15.973-6.336-23.816-6.341h-.012c-14.498 0-28.042 7.047-40.25 20.942-14.619 16.636-22.669 38.368-22.669 61.194l-.013 98.306c-8.538-3.684.734-19.107-7.205-39.135-33.715-85.052-8.319-181.659 61.773-238.205a7.499 7.499 0 00-9.416-11.672C31.703 112.085 3.063 215.356 39.633 307.609c3.63 9.158 1.968 15.18 2.398 27.912 0 11.687 9.508 21.196 21.196 21.196 6.92 0 12.55-5.63 12.55-12.551l.013-101.256c-.001-33.743 23.662-67.139 47.919-67.139 1.113.156 7.367-.388 16.83 4.606 48.417 25.561 75.289 40.307 115.282 40.307 40.89-.001 68.781-15.765 115.27-40.307 17.304-9.134 31.921-4.186 45.188 10.537 22.911 25.425 19.154 56.204 19.559 58.822a7.498 7.498 0 007.499 7.499 7.498 7.498 0 007.499-7.499c-.432-2.691 3.817-38.633-23.418-68.861zm-13.702 237.573c-1.108-12.332-17.47-16.06-23.731-5.35-6.72 11.505-15.514 17.338-26.138 17.338-22.933 0-46.823-62.523-107.14-17.84a1.494 1.494 0 01-1.786.001c-60.366-44.726-84.169 17.839-107.142 17.839-10.626 0-19.42-5.835-26.14-17.341-6.245-10.699-22.603-7.061-23.723 5.279-3.652 40.271 21.987 77.982 60.966 89.666a7.499 7.499 0 004.305-14.366c-29.954-8.978-50.369-36.549-50.618-67.1 9.131 12.369 21.188 18.858 35.208 18.858 34.425 0 46.444-59.139 98.214-20.785 5.874 4.352 13.766 4.352 19.64 0 51.726-38.325 63.841 20.785 98.213 20.785 14.016 0 26.071-6.488 35.202-18.85-.169 17.218-6.803 34.08-18.71 47.103-29.247 31.993-81.73 28.266-105.359 5.741-10.747-10.244-27.586-10.244-38.333 0-10.242 9.763-24.176 15.492-41.413 17.031a7.5 7.5 0 001.333 14.94c20.702-1.849 37.668-8.952 50.428-21.114a12.767 12.767 0 0117.638 0c29.187 27.821 91.387 32.236 126.777-6.478 16.308-17.835 24.438-41.657 22.309-65.357z"></path>
    </symbol>
    <symbol xmlns="http://www.w3.org/2000/svg" viewBox="0 0 512 512" id="room">
        <path d="M496.5 463.867h-17.633v-17.633c0-8.547-6.953-15.5-15.5-15.5H437.45v-283.2h18.133V206.3c0 4.142 3.357 7.5 7.5 7.5s7.5-3.358 7.5-7.5v-58.767h7.369a15.74 15.74 0 0012.147-5.704 15.736 15.736 0 003.366-12.988L471.722 12.873A15.793 15.793 0 00456.209 0h-85.651c-7.589 0-14.113 5.414-15.513 12.875l-21.743 115.967a15.738 15.738 0 003.366 12.988 15.739 15.739 0 0012.147 5.704h40.502v42.2c0 4.142 3.357 7.5 7.5 7.5s7.5-3.358 7.5-7.5v-42.2h18.134v283.2h-18.134V219.733c0-4.142-3.357-7.5-7.5-7.5s-7.5 3.358-7.5 7.5v211.001H363.4c-8.547 0-15.5 6.953-15.5 15.5v17.633h-67.834v-18.839c18.833-3.53 33.134-20.086 33.134-39.928v-42.056c0-.431.398-.685.769-.739 28.985-4.202 50.003-29.492 48.889-58.827-1.127-29.678-25.259-53.81-54.938-54.937a58.142 58.142 0 00-11.287.672v-59.481c0-22.405-18.228-40.633-40.633-40.633H123.467c-22.405 0-40.633 18.228-40.633 40.633v59.478a58.208 58.208 0 00-11.288-.67c-29.678 1.127-53.81 25.259-54.937 54.937-1.114 29.335 19.904 54.625 48.889 58.827.371.054.769.308.769.739V405.1c0 19.842 14.3 36.398 33.133 39.928v18.839H15.5c-8.547 0-15.5 6.953-15.5 15.5V496.5c0 8.547 6.953 15.5 15.5 15.5h481c8.547 0 15.5-6.953 15.5-15.5v-17.133c0-8.547-6.953-15.5-15.5-15.5zM369.787 15.64a.784.784 0 01.77-.64h85.651c.377 0 .7.269.77.639L472.684 99.4H354.082zm-20.972 116.893c-.091 0-.368 0-.604-.283a.741.741 0 01-.167-.644l3.226-17.206h124.227l3.226 17.206a.741.741 0 01-.167.644c-.235.283-.513.283-.604.283zm14.085 313.7a.5.5 0 01.5-.5h99.967a.5.5 0 01.5.5v17.633H362.9zm-240-99.899h133.667c4.687 0 8.499 3.813 8.499 8.5v17.7c0 4.687-3.812 8.5-8.499 8.5H122.9c-4.687 0-8.5-3.813-8.5-8.5v-17.7c0-4.687 3.813-8.5 8.5-8.5zm8.067 49.699H248.5v34.7H130.967zm94.327 49.7l4.533 18.133h-80.189l4.534-18.133zm15.462 0h24.31v18.133h-19.777zm66.595-182.202c21.889.832 39.687 18.629 40.519 40.517.822 21.65-14.678 40.314-36.053 43.413-7.89 1.144-13.616 7.698-13.616 15.583V405.1c0 14.134-11.499 25.633-25.634 25.633H263.5v-35.745c9.584-2.965 16.566-11.91 16.566-22.455v-17.7c0-10.546-6.982-19.49-16.566-22.455V305.7c0-11.576 4.594-22.374 12.936-30.405 8.336-8.026 19.324-12.201 30.915-11.764zM97.833 189.733c0-14.134 11.499-25.633 25.633-25.633H256c14.134 0 25.633 11.499 25.633 25.633v64.059a57.245 57.245 0 00-15.601 10.696C254.727 275.374 248.5 290.01 248.5 305.7v25.633H130.967V305.7c0-15.69-6.227-30.326-17.533-41.211a57.256 57.256 0 00-15.601-10.701zM81.267 405.1v-42.056c0-7.885-5.727-14.439-13.616-15.583-21.376-3.099-36.875-21.762-36.052-43.413.832-21.888 18.629-39.685 40.517-40.517 11.598-.438 22.579 3.738 30.916 11.764 8.342 8.031 12.936 18.83 12.936 30.405v26.678c-9.584 2.965-16.567 11.91-16.567 22.455v17.7c0 10.546 6.983 19.49 16.567 22.455v35.745H106.9c-14.134 0-25.633-11.499-25.633-25.633zm33.133 40.633h24.311l-4.534 18.133H114.4zM497 496.5a.5.5 0 01-.5.5h-481a.5.5 0 01-.5-.5v-17.133a.5.5 0 01.5-.5h481a.5.5 0 01.5.5z"></path>
        <path d="M73.767 281.633c-13.27 0-24.066 10.796-24.066 24.067 0 13.27 10.796 24.066 24.066 24.066S97.834 318.97 97.834 305.7c-.001-13.27-10.797-24.067-24.067-24.067zm0 33.134c-4.999 0-9.066-4.067-9.066-9.066 0-5 4.067-9.067 9.066-9.067 5 0 9.067 4.067 9.067 9.067-.001 4.998-4.068 9.066-9.067 9.066zm231.933 15c13.271 0 24.066-10.796 24.066-24.066 0-13.271-10.796-24.067-24.066-24.067s-24.067 10.796-24.067 24.067c0 13.27 10.797 24.066 24.067 24.066zm0-33.134c4.999 0 9.066 4.067 9.066 9.067 0 4.999-4.067 9.066-9.066 9.066-5 0-9.067-4.067-9.067-9.066s4.067-9.067 9.067-9.067zm-166.233-49.7H240c12.958 0 23.5-10.542 23.5-23.5v-17.7c0-12.958-10.542-23.5-23.5-23.5H139.467c-12.958 0-23.5 10.542-23.5 23.5v17.7c0 12.958 10.542 23.5 23.5 23.5zm-8.5-41.2c0-4.687 3.813-8.5 8.5-8.5H240c4.687 0 8.5 3.813 8.5 8.5v17.7c0 4.687-3.813 8.5-8.5 8.5H139.467c-4.687 0-8.5-3.813-8.5-8.5zm25.633 59.334h-8.283a7.5 7.5 0 000 15h8.283a7.5 7.5 0 000-15zm74.55 0h-8.283a7.5 7.5 0 000 15h8.283a7.5 7.5 0 000-15zm-124.817-134.1h31.125a7.5 7.5 0 000-15h-31.125c-4.687 0-8.5-3.813-8.5-8.5V23.5c0-4.687 3.813-8.5 8.5-8.5h166.799c4.686 0 8.5 3.813 8.5 8.5v83.967c0 4.687-3.814 8.5-8.5 8.5H167.458a7.5 7.5 0 000 15h105.674c12.958 0 23.5-10.542 23.5-23.5V23.5c0-12.958-10.542-23.5-23.5-23.5H106.333c-12.958 0-23.5 10.542-23.5 23.5v83.967c0 12.958 10.542 23.5 23.5 23.5z"></path>
        <path d="M263.5 82.334v-33.7c0-8.547-6.953-15.5-15.5-15.5H131.467c-8.547 0-15.5 6.953-15.5 15.5v33.7c0 8.547 6.953 15.5 15.5 15.5H248c8.547 0 15.5-6.954 15.5-15.5zm-132.533 0v-33.7a.5.5 0 01.5-.5H248a.5.5 0 01.5.5v33.7a.5.5 0 01-.5.5H131.467a.5.5 0 01-.5-.5z"></path>
    </symbol>
    <symbol xmlns="http://www.w3.org/2000/svg" viewBox="0 0 511.999 511.999" id="house1">
        <path d="M511.964 444.408l-.344-7.869c-.176-4.021-3.601-7.132-7.598-6.96a7.285 7.285 0 00-6.96 7.598l.347 7.932.008.144a5.206 5.206 0 01-1.412 3.933 5.169 5.169 0 01-3.806 1.65h-42.628V316.337l10.99 3.884c18.939 6.693 32.008 23.978 33.313 44.051l1.208 27.635c.176 4.02 3.572 7.144 7.597 6.96a7.285 7.285 0 006.961-7.597l-1.211-27.708-.008-.144c-1.651-25.938-18.531-48.287-43.005-56.935l-20.35-7.192c-.12-.05-.231-.114-.354-.157l-60.776-21.48a8.896 8.896 0 00-.709-.214c-.115-.031-.231-.051-.346-.076-4.022-1.041-8.38.116-11.344 3.085l-1.879 1.882-16.037-8.05-.002-14.058c4.846-3.336 9.41-7.315 13.554-11.755l.147-.158c10.465-11.27 18.189-25.458 20.817-39.554.07-.372.139-.745.202-1.117a58.955 58.955 0 00.437-3.085c.018-.154.041-.309.057-.463a55.23 55.23 0 00.184-2.089h3.024c9.392 0 17.033-7.641 17.033-17.033v-19.091c0-.903-.079-1.798-.22-2.682a13.608 13.608 0 001.692-6.582v-8.14c0-6.189-4.113-11.422-9.715-13.04v-1.149c0-.695-.009-1.389-.026-2.079-.493-19.429-8.122-37.834-21.479-51.823-12.185-12.761-28.124-20.839-45.29-23.044-.262-.47-.546-.924-.841-1.37-.076-.114-.156-.224-.234-.337a20.747 20.747 0 00-.94-1.257c-.058-.071-.113-.144-.171-.214a20.826 20.826 0 00-1.28-1.408l-.047-.045a21.059 21.059 0 00-1.364-1.24l-.158-.133a20.987 20.987 0 00-3.116-2.112c-.099-.055-.197-.11-.297-.164a20.858 20.858 0 00-1.677-.809c-.029-.012-.06-.022-.09-.035a20.6 20.6 0 00-1.62-.594 21.107 21.107 0 00-2.221-.598c-.034-.007-.068-.011-.102-.017a21 21 0 00-2.236-.318 20.98 20.98 0 00-1.9-.096h-6.877c-.64 0-1.272.039-1.9.096a20.967 20.967 0 00-2.233.317l-.105.018a21.08 21.08 0 00-2.222.598c-.548.178-1.089.372-1.618.593-.03.013-.062.023-.092.036-.573.243-1.129.517-1.676.808-.101.054-.201.11-.301.165-.534.296-1.058.61-1.564.951l-.004.003c-.534.36-1.047.749-1.546 1.157-.054.044-.107.09-.16.135-.471.393-.926.804-1.361 1.237l-.049.047c-.447.448-.873.918-1.278 1.406-.059.071-.115.144-.173.216-.328.405-.641.824-.939 1.255-.078.113-.159.223-.235.338-.295.445-.579.9-.841 1.37-17.165 2.205-33.105 10.284-45.289 23.043a77.537 77.537 0 00-15.271 23.208l-42.203-39.535c-8.662-8.114-22.215-8.096-30.853.043l-45.78 43.126-.008-5.042a10.743 10.743 0 00-3.18-7.645 10.746 10.746 0 00-7.638-3.158h-.016l-34.32.048c-5.964.009-10.811 4.868-10.804 10.835l.094 57.595L7.081 205.28C2.7 209.407.189 214.992.01 221.008s1.995 11.741 6.121 16.12a22.38 22.38 0 0016.416 7.082c5.763 0 11.22-2.163 15.432-6.132l16.329-15.383.071 51.081a7.286 7.286 0 007.286 7.275h.01a7.286 7.286 0 007.276-7.296l-.091-64.768 103.582-97.579 41.614 38.984v6.221c0 .422.025.84.063 1.255.007.077.013.154.022.231a13.518 13.518 0 001.603 5.121 17.046 17.046 0 00-.215 2.657v19.091c0 9.392 7.641 17.033 17.034 17.033h3.014c.047.72.111 1.442.187 2.167.021.204.05.409.074.613a60.015 60.015 0 00.406 2.894c.072.431.153.864.234 1.296.168.895.357 1.791.566 2.686.038.164.073.328.113.492.145.601.302 1.201.465 1.801l.1.361c1.297 4.68 3.123 9.327 5.395 13.834l.073.144a84.626 84.626 0 002.93 5.304c.138.23.274.46.414.689a85.303 85.303 0 001.528 2.406c.253.385.503.772.762 1.154.462.681.936 1.355 1.418 2.025.206.286.417.567.626.851.359.487.723.971 1.093 1.451.202.262.403.524.607.783a89.695 89.695 0 001.536 1.899c.075.09.147.181.222.27a88.31 88.31 0 001.753 2.02c.209.235.421.466.632.698.418.459.841.914 1.269 1.364.237.249.472.499.711.745a79.281 79.281 0 002.711 2.661c.323.304.646.609.974.908a80.735 80.735 0 001.847 1.632 79.23 79.23 0 006.759 5.224l-.002 13.905-16.032 8.052-1.882-1.885a11.85 11.85 0 00-7.38-3.421 11.927 11.927 0 00-1.652-.026 11.77 11.77 0 00-2.256.349c-.142.03-.285.058-.427.096a8.95 8.95 0 00-.684.207l-27.357 9.669-.072-51.824c-.009-6.682-5.448-12.11-12.127-12.11h-.017l-56.99.08a12.048 12.048 0 00-8.57 3.564 12.046 12.046 0 00-3.54 8.58l.125 89.181-.031.036c-.197.224-.384.456-.578.683-.31.363-.622.724-.924 1.095-.19.233-.371.473-.557.709-.295.372-.592.742-.878 1.121-.183.242-.357.491-.537.736-.279.38-.562.758-.833 1.145-.175.249-.34.505-.511.756-.265.389-.533.777-.79 1.172-.167.257-.325.521-.488.781-.25.397-.503.793-.744 1.196-.157.262-.304.53-.458.794-.236.408-.476.814-.704 1.227-.15.273-.291.551-.437.827-.218.411-.44.819-.65 1.235-.147.291-.283.587-.426.88-.198.407-.399.812-.589 1.224-.139.301-.267.607-.401.911-.181.411-.366.819-.539 1.234-.13.312-.25.63-.375.945-.164.411-.332.82-.487 1.235-.122.326-.233.656-.35.984-.146.411-.297.82-.436 1.234-.112.335-.213.675-.319 1.012-.13.412-.265.822-.387 1.238-.101.345-.191.694-.287 1.041-.114.414-.233.826-.339 1.243-.089.35-.167.705-.25 1.058-.099.418-.203.835-.294 1.256-.078.362-.144.728-.216 1.092-.082.416-.169.83-.244 1.248-.067.378-.122.759-.182 1.138-.065.409-.136.817-.193 1.228-.055.39-.097.783-.144 1.174-.049.406-.104.81-.146 1.218-.041.397-.069.797-.102 1.196-.031.372-.07.743-.095 1.116l-46.824.065a.297.297 0 01-.297-.297l-.061-43.95a7.286 7.286 0 00-7.286-7.276h-.01a7.286 7.286 0 00-7.276 7.296l.061 43.951c.012 8.192 6.68 14.848 14.869 14.848h.02l46.161-.064-2.914 66.627a19.903 19.903 0 005.333 14.749 19.865 19.865 0 0014.432 6.25h359.793a19.863 19.863 0 0014.431-6.25 19.9 19.9 0 005.334-14.749zm-117.462-259.44a2.464 2.464 0 01-2.461 2.461h-2.91v-17.26h5.371v14.799zM302.659 66.046c.007-.026.019-.05.026-.076a6.384 6.384 0 012.237-3.434c.029-.023.06-.045.09-.067a6.391 6.391 0 011.679-.915c.046-.017.091-.035.137-.05.291-.098.591-.175.898-.231.055-.01.111-.017.166-.025.319-.049.642-.082.972-.082h6.877c.33 0 .654.033.972.082.055.008.111.015.166.025.306.056.606.132.897.231.047.016.093.034.14.051.604.22 1.168.528 1.675.913l.093.069c.25.197.485.412.704.645l.054.06a6.386 6.386 0 011.477 2.727c.007.026.019.049.026.075.119.486.189.992.189 1.514v24.585a6.4 6.4 0 01-6.392 6.393h-6.877a6.4 6.4 0 01-6.393-6.393V67.558h-.001c0-.522.07-1.026.188-1.512zM96.598 105.954l.024 14.974-26.773 25.222-.065-40.158 26.814-.038zm128.521 13.865a80.07 80.07 0 00-.393 2.25c-.066.422-.12.844-.179 1.267-.096.687-.194 1.373-.272 2.064-.066.579-.112 1.159-.165 1.739-.049.545-.108 1.087-.146 1.634a77.236 77.236 0 00-.193 5.513v1.148c-.015.004-.028.011-.043.015a14.63 14.63 0 00-1.703.636c-.373.168-.739.349-1.093.55-.052.03-.109.051-.161.081l-43.362-40.621a7.286 7.286 0 00-9.977.014L27.987 227.473a7.856 7.856 0 01-5.695 2.163 7.91 7.91 0 01-5.555-2.498 7.905 7.905 0 01-2.163-5.694 7.908 7.908 0 012.498-5.555L166.943 74.703a7.94 7.94 0 015.457-2.161c1.957 0 3.915.715 5.442 2.146l47.404 44.406c-.048.242-.082.484-.127.725zm7.444 67.611a2.464 2.464 0 01-2.462-2.461V170.17h5.37v17.26h-2.908zm-3.934-34.099v-3.842h2.429a7.286 7.286 0 007.286-7.286v-7.919a62.97 62.97 0 01.201-5.04c.022-.283.054-.564.08-.847.078-.855.169-1.709.282-2.562a64.797 64.797 0 01.569-3.53c.038-.201.074-.402.113-.603.219-1.098.462-2.192.738-3.279l.003-.018a63 63 0 0115.486-27.962c8.783-9.198 19.958-15.385 32.082-17.891v19.587c0 11.56 9.405 20.964 20.965 20.964h6.877c11.56 0 20.964-9.405 20.964-20.964V72.554c12.123 2.506 23.3 8.693 32.083 17.891 10.852 11.365 17.05 26.327 17.451 42.131.014.568.021 1.137.021 1.708v7.919a7.286 7.286 0 007.286 7.286h2.43v3.842H228.629zm21.69 49.875l-.038-.337a42.254 42.254 0 01-.157-1.825l-.02-.291a37.47 37.47 0 01-.061-2.086V170.17h124.516v28.345c0 .698-.022 1.402-.062 2.108l-.017.243a41.163 41.163 0 01-.197 2.198c-.08.685-.174 1.372-.288 2.062l-.002.011c-2.583 15.585-13.735 32.221-27.403 42.192-.098.071-.196.144-.294.214-.433.312-.871.611-1.309.909-.241.163-.479.332-.721.491-.128.084-.257.162-.386.245-.444.287-.889.573-1.339.847-.023.014-.043.032-.066.046-4.062 2.47-8.283 4.325-12.519 5.379l-.762.19c-15.542 3.865-19.11 3.856-34.709-.077-4.196-1.058-8.377-2.905-12.402-5.359-.009-.006-.017-.013-.026-.018-.161-.098-.318-.203-.479-.303a58.705 58.705 0 01-1.422-.909c-.117-.077-.232-.159-.348-.237-15.087-10.202-27.522-28.715-29.489-45.541zm27.813 83.789a11.465 11.465 0 007.421-10.769l.001-8.187a53.823 53.823 0 005.37 1.664c8.95 2.256 14.98 3.382 21.019 3.382 5.97 0 11.95-1.1 20.77-3.293l.762-.19a53.92 53.92 0 005.574-1.721l.001 8.345c0 4.836 2.952 9.075 7.421 10.77l11.675 5.861c-.14.107-.277.22-.417.326-.321.241-.647.474-.972.71a73.794 73.794 0 01-2.907 2.011c-.637.418-1.281.824-1.93 1.222-.331.203-.66.41-.993.608a74.97 74.97 0 01-2.406 1.362c-.191.104-.378.215-.57.317a74.685 74.685 0 01-3.046 1.531c-.275.131-.555.25-.832.378a74.05 74.05 0 01-2.29 1.013c-.37.156-.744.303-1.117.453a78.487 78.487 0 01-3.273 1.228 77.03 77.03 0 01-2.209.726c-.354.111-.707.227-1.063.333-.975.29-1.957.56-2.945.81-.119.03-.236.066-.355.095a75.88 75.88 0 01-3.36.749c-.323.065-.649.118-.974.179a75.55 75.55 0 01-2.437.419c-.403.062-.807.117-1.211.172a78.637 78.637 0 01-3.52.404 78.45 78.45 0 01-2.437.178c-.354.021-.707.048-1.063.064a77.642 77.642 0 01-3.519.085c-1.178 0-2.35-.033-3.519-.085-.355-.016-.707-.043-1.06-.064a78.934 78.934 0 01-2.441-.178c-.412-.037-.823-.081-1.233-.124a78.842 78.842 0 01-2.287-.279c-.403-.055-.807-.11-1.209-.172a73.517 73.517 0 01-2.44-.42c-.324-.061-.65-.114-.972-.178a74.229 74.229 0 01-3.361-.75c-.116-.029-.23-.064-.346-.093a74.48 74.48 0 01-2.954-.813c-.354-.105-.704-.221-1.056-.331a77.66 77.66 0 01-2.218-.729 80.184 80.184 0 01-3.276-1.229c-.369-.148-.738-.294-1.104-.448a74.659 74.659 0 01-2.316-1.024c-.268-.123-.539-.239-.805-.366-1.03-.489-2.049-1-3.057-1.536-.18-.096-.355-.2-.534-.297a74.243 74.243 0 01-2.442-1.382c-.327-.194-.649-.396-.973-.595a73.877 73.877 0 01-2.983-1.926 73.468 73.468 0 01-1.883-1.327c-.317-.23-.635-.457-.948-.692-.143-.107-.282-.223-.424-.331l11.673-5.866zm-145.726 163.84a5.173 5.173 0 01-3.807-1.65 5.206 5.206 0 01-1.412-3.933l.008-.144 3.535-80.834a50.148 50.148 0 0113.7-31.346c.076-.072.156-.139.229-.215a50.357 50.357 0 0116.894-11.528 49.752 49.752 0 012.489-.964l10.991-3.884v134.498h-42.627zm47.133-151.545l-20.351 7.193c-.764.27-1.52.553-2.268.849-.238.094-.47.198-.706.294-.185.076-.369.153-.553.231-.321.135-.646.263-.964.403-.351.154-.694.321-1.042.481-.378.174-.76.342-1.133.523-.352.171-.697.353-1.045.529-.361.183-.727.36-1.084.55-.328.174-.649.36-.974.539-.368.204-.74.402-1.104.612-.32.185-.632.382-.949.572-.231.139-.463.276-.692.417l-.104-74.447 52.101-.073.076 54.507-18.855 6.663c-.123.043-.234.107-.353.157zm10.066 151.545V311.187l48.2-17.035 5.577 27.372c2.086 10.238 8.355 19.301 17.198 24.865l44.435 27.96v76.486h-115.41zm78.736-116.779a23.987 23.987 0 01-10.68-15.441l-3.443-16.901c.272.229.534.473.808.698 16.068 13.206 36.094 20.388 57.277 20.388a91.85 91.85 0 0017.278-1.641c15.042-2.879 29.017-9.521 40.806-19.445l-3.444 16.901a23.975 23.975 0 01-10.678 15.44l-43.962 27.662-43.962-27.661zm166.658 116.779H319.588V374.35l44.436-27.96c8.845-5.565 15.113-14.628 17.197-24.865l5.578-27.373 48.2 17.035v139.648z"></path>
    </symbol>
    <symbol xmlns="http://www.w3.org/2000/svg" viewBox="0 0 511.999 511.999" id="house2">
        <path d="M116.985 216.672H52.026a7.501 7.501 0 00-7.501 7.501v64.959a7.501 7.501 0 007.501 7.501h64.959a7.501 7.501 0 007.501-7.501v-64.959a7.5 7.5 0 00-7.501-7.501zm-39.981 64.959H59.527v-17.477h17.477v17.477zm.001-32.48H59.527v-17.477h17.478v17.477zm32.48 32.48H92.008v-17.477h17.477v17.477zm0-32.48H92.008v-17.477h17.477v17.477zm7.5 112.446H52.026a7.501 7.501 0 00-7.501 7.501v64.959a7.5 7.5 0 007.501 7.501h64.959a7.5 7.5 0 007.501-7.501v-64.959a7.5 7.5 0 00-7.501-7.501zm-39.981 64.959H59.527v-17.477h17.477v17.477zm.001-32.478H59.527V376.6h17.478v17.478zm32.48 32.478H92.008v-17.477h17.477v17.477zm0-32.479H92.008v-17.478h17.477v17.478zm350.584-177.405H395.11a7.501 7.501 0 00-7.501 7.501v64.959a7.501 7.501 0 007.501 7.501h64.959a7.501 7.501 0 007.501-7.501v-64.959a7.5 7.5 0 00-7.501-7.501zm-39.981 64.959h-17.477v-17.477h17.477v17.477zm0-32.48h-17.477v-17.477h17.477v17.477zm32.48 32.48H435.09v-17.477h17.477v17.477zm0-32.48H435.09v-17.477h17.477v17.477zm7.501 112.446H395.11a7.501 7.501 0 00-7.501 7.501v64.959a7.5 7.5 0 007.501 7.501h64.959a7.5 7.5 0 007.501-7.501v-64.959a7.5 7.5 0 00-7.501-7.501zm-39.981 64.959h-17.477v-17.477h17.477v17.477zm0-32.478h-17.477V376.6h17.477v17.478zm32.48 32.478H435.09v-17.477h17.477v17.477zm0-32.479H435.09v-17.478h17.477v17.478z"></path>
        <circle cx="232.63" cy="423.474" r="9.247"></circle>
        <circle cx="279.468" cy="423.474" r="9.247"></circle>
        <path d="M275.95 238.983h-39.805a7.501 7.501 0 00-7.501 7.501v39.805a7.501 7.501 0 007.501 7.501h39.805a7.501 7.501 0 007.501-7.501v-39.805a7.5 7.5 0 00-7.501-7.501zm-7.501 39.805h-24.802v-24.802h24.802v24.802z"></path>
        <path d="M508.825 179.772l-74.212-69.378a10.253 10.253 0 00-12.057-1.445V72.211h6.609a7.501 7.501 0 007.501-7.501V34.155a7.501 7.501 0 00-7.501-7.501h-78.578a7.501 7.501 0 00-7.501 7.501v30.553a7.501 7.501 0 007.501 7.501h6.609v26.926H154.898V72.211h6.61a7.501 7.501 0 007.501-7.501V34.155a7.501 7.501 0 00-7.501-7.501H82.929a7.501 7.501 0 00-7.501 7.501v30.553a7.501 7.501 0 007.501 7.501h6.609v36.737a10.25 10.25 0 00-12.057 1.446L3.27 179.772a10.23 10.23 0 00-2.543 11.29 10.228 10.228 0 009.568 6.51h3.819v115.002a7.501 7.501 0 0015.002 0V197.572h110.778v106.215H88.131c-5.747 0-9.405 6.522-6.392 11.428l20.437 33.267a7.502 7.502 0 006.392 3.575h31.326v118.287H29.117V342.58a7.501 7.501 0 00-15.002 0v135.265a7.501 7.501 0 007.501 7.501H490.48a7.501 7.501 0 007.501-7.501V197.572h3.819c9.132 0 13.697-11.561 7.025-17.8zM358.089 41.656h63.575v15.551h-63.575V41.656zm49.465 30.555v50.347l-18.722 17.503-16.631-35.11v-32.74h35.353zm-47.603 41.928l17.374 36.678-30.972 28.955c-6.682 6.246-2.074 17.8 7.024 17.8h3.82v16.412H154.898v-16.412h3.82c9.109 0 13.692-11.565 7.024-17.8l-30.972-28.955 17.374-36.678h207.807zm-2.753 114.847v74.801h-202.3v-74.801h202.3zM123.264 140.06l-18.722-17.503V72.211h35.353v32.74l-16.631 35.109zM90.431 41.656h63.576v15.551H90.431V41.656zM22.247 182.569l62.26-58.204 62.26 58.204H22.247zm90.516 154.486l-11.22-18.264h309.008l-11.22 18.264H112.763zm135.783 133.288h-59.373v-93.744h59.373v93.744zm74.376.001h-59.373V376.6h59.373v93.744zm34.276 0h-19.273V369.098a7.501 7.501 0 00-7.501-7.501H181.671a7.501 7.501 0 00-7.501 7.501v101.246h-19.273V352.057h202.301v118.287zm15.003-.001V352.057h31.326a7.563 7.563 0 006.392-3.575l20.436-33.267c3.018-4.913-.651-11.428-6.392-11.428H372.2V197.572h110.778v272.77H372.201zM365.33 182.57l62.26-58.205 62.259 58.205H365.33z"></path>
    </symbol>
    <symbol xmlns="http://www.w3.org/2000/svg" viewBox="0 -30 512 512" id="computer">
        <path d="M131.262 303.57c4.449-1.718 7.691-5.785 7.691-12.902 0-10.36-6.93-13.602-15.637-13.602H110.16c-1.84 0-3.05 1.399-3.05 2.989v40.422c0 2.03 2.48 3.05 4.956 3.05 2.48 0 4.961-1.02 4.961-3.05v-15.32h4.192l8.707 16.906c.699 1.335 1.906 1.843 3.18 1.843 2.921 0 6.226-2.668 6.226-5.148 0-.317-.062-.762-.316-1.145zm-7.946-6.039h-6.289v-11.82h6.29c3.562 0 5.722 1.46 5.722 5.91s-2.164 5.91-5.723 5.91zm47.856-11.821c1.906 0 2.984-2.034 2.984-4.386 0-2.035-.89-4.258-2.984-4.258h-22.625c-2.164 0-4.324 1.02-4.324 3.051v40.36c0 2.03 2.16 3.05 4.324 3.05h22.625c2.098 0 2.984-2.226 2.984-4.257 0-2.352-1.078-4.387-2.984-4.387h-17.035v-10.805h9.535c2.098 0 2.984-2.035 2.984-3.75 0-2.035-1.078-3.879-2.984-3.879h-9.535v-10.738zm21.984 0c5.403 0 5.594 4.067 5.656 5.72.125 2.289 2.29 2.988 4.958 2.988 3.367 0 4.957-.89 4.957-4.703 0-8.074-6.864-12.649-15.954-12.649-8.324 0-15.253 4.07-15.253 15v16.84c0 10.934 6.93 15 15.253 15 9.09 0 15.954-4.828 15.954-13.281 0-3.813-1.59-4.703-5.02-4.703-2.543 0-4.703.637-4.894 2.984-.192 2.48-.508 6.356-5.594 6.356-3.688 0-5.785-2.032-5.785-6.356v-16.84c.004-4.324 2.097-6.355 5.722-6.355zm47.535 0c1.907 0 2.985-2.034 2.985-4.386 0-2.035-.89-4.258-2.985-4.258h-22.625c-2.164 0-4.324 1.02-4.324 3.051v40.36c0 2.03 2.16 3.05 4.324 3.05h22.625c2.098 0 2.985-2.226 2.985-4.257 0-2.352-1.078-4.387-2.985-4.387h-17.035v-10.805h9.535c2.098 0 2.989-2.035 2.989-3.75 0-2.035-1.082-3.879-2.989-3.879h-9.535v-10.738zm24.145-8.644H251.68c-2.223 0-3.688 1.399-3.688 2.989v40.422c0 2.03 2.48 3.05 4.961 3.05 2.477 0 4.957-1.02 4.957-3.05v-13.73h6.29c8.773 0 15.636-4.067 15.636-14.743v-.32c0-10.676-6.61-14.618-15-14.618zm5.086 15.7c0 4.32-2.164 6.355-5.723 6.355h-6.293v-13.41h6.293c3.559 0 5.723 2.031 5.723 6.355zm41.75-15.7h-27.457c-2.098 0-2.988 2.29-2.988 4.387 0 2.414 1.082 4.512 2.988 4.512h8.77v34.508c0 2.035 2.48 3.05 4.956 3.05 2.48 0 4.961-1.015 4.961-3.05v-34.508h8.77c1.906 0 2.984-2.098 2.984-4.512 0-2.098-.886-4.387-2.984-4.387zm11.878 0c-2.476 0-4.956.891-4.956 2.989v40.422c0 2.03 2.48 3.05 4.957 3.05 2.48 0 4.957-1.02 4.957-3.05v-40.422c0-2.098-2.477-2.989-4.957-2.989zm26.884 0c-8.774 0-15.575 4.07-15.575 15v16.84c0 10.934 6.801 15 15.575 15 8.77 0 15.632-4.066 15.632-15v-16.84c0-10.93-6.863-15-15.632-15zm5.718 31.84c0 4.387-2.16 6.356-5.718 6.356s-5.657-1.969-5.657-6.356v-16.84c0-4.386 2.094-6.355 5.657-6.355 3.558 0 5.718 1.969 5.718 6.355zm43.786-31.84c-2.481 0-4.958.891-4.958 2.989v21.605l-10.296-19.637c-2.414-4.64-3.75-4.957-7.309-4.957-2.477 0-4.957.954-4.957 3.051v40.36c0 2.03 2.48 3.05 4.957 3.05 2.48 0 4.957-1.02 4.957-3.05v-21.61l12.078 21.988c1.207 2.227 3.238 2.672 5.527 2.672 2.481 0 4.958-1.02 4.958-3.05v-40.422c0-2.098-2.48-2.989-4.958-2.989zm0 0"></path>
        <path d="M424.535 246.121H89.465c-11.442 0-20.746 9.309-20.746 20.746v67.383c0 11.438 9.304 20.746 20.746 20.746h335.07c11.438 0 20.742-9.309 20.742-20.746v-67.383c0-11.437-9.304-20.746-20.742-20.746zm5.762 88.133a5.767 5.767 0 01-5.762 5.758H89.465a5.764 5.764 0 01-5.762-5.758v-67.387a5.767 5.767 0 015.762-5.762h335.07a5.77 5.77 0 015.762 5.762zm0 0"></path>
        <path d="M499.516 209.969c6.882 0 12.484-5.602 12.484-12.489v-33.289c0-6.882-5.602-12.484-12.484-12.484H367.617c-4.137 0-7.488 3.356-7.488 7.492s3.351 7.488 7.488 7.488h129.399v28.297H14.984v-28.297H333.41a7.49 7.49 0 100-14.98H151.617v-17.41h43.77c13.047 0 23.66-10.613 23.66-23.656V77.016a7.49 7.49 0 00-7.492-7.489 7.49 7.49 0 00-7.493 7.489v33.625c0 4.78-3.89 8.675-8.675 8.675h-43.77v-32.5c0-6.886-5.601-12.488-12.484-12.488h-21.965c-6.887 0-12.484 5.602-12.484 12.488v32.5H60.91c-4.781 0-8.672-3.89-8.672-8.675V23.656c0-4.781 3.89-8.676 8.672-8.676h134.477c4.785 0 8.675 3.891 8.675 8.676v17.735a7.494 7.494 0 007.493 7.492 7.494 7.494 0 007.492-7.492V23.656C219.047 10.613 208.434 0 195.387 0H60.91C47.867 0 37.254 10.613 37.254 23.656v86.985c0 13.043 10.613 23.656 23.656 23.656h43.774v17.41h-92.2C5.602 151.707 0 157.309 0 164.191v33.29c0 6.886 5.602 12.484 12.484 12.484h3.297v183.183h-3.297C5.602 393.148 0 398.75 0 405.637v33.289c0 6.883 5.602 12.484 12.484 12.484h487.032c6.882 0 12.484-5.601 12.484-12.484v-33.29c0-6.886-5.602-12.488-12.484-12.488h-3.297v-183.18zM119.664 89.313h16.973v62.394h-16.973zM30.766 209.969h450.468v183.18H30.766zM497.02 408.133v28.297H14.98v-28.297zm0 0"></path>
    </symbol>
    <symbol xmlns="http://www.w3.org/2000/svg" viewBox="0 0 511.999 511.999" id="sketch">
        <path d="M453.034 361.322a7.514 7.514 0 00-8.19 1.628l-82.126 82.126a7.514 7.514 0 005.315 12.829h82.126a7.514 7.514 0 007.515-7.515v-82.126a7.517 7.517 0 00-4.64-6.942zm-66.861 81.554l56.469-56.469v56.469h-56.469z"></path>
        <path d="M507.361 240.867a7.514 7.514 0 00-8.19 1.628l-22.507 22.507V111.971a7.515 7.515 0 00-7.515-7.515h-57.741l20.96-20.96.009-.01 20.196-20.196c4.327-4.327 6.71-10.083 6.71-16.203s-2.383-11.874-6.71-16.203L429.219 7.53C424.892 3.203 419.136.82 413.016.82s-11.875 2.383-16.203 6.71l-20.206 20.206-24.416 24.416-52.303 52.303H66.62V30.11a7.515 7.515 0 00-7.515-7.515C26.515 22.597 0 49.11 0 81.702v319.186c0 .555.064 1.095.178 1.615 1.038 13.829 7.021 26.678 17.02 36.432C27.886 449.359 41.995 455.1 56.927 455.1h229.638l-43.249 43.249a7.516 7.516 0 005.314 12.829h255.855a7.515 7.515 0 007.515-7.515V247.81a7.517 7.517 0 00-4.639-6.943zM407.443 18.159c3.072-3.074 8.077-3.074 11.149 0l23.355 23.355c3.074 3.073 3.074 8.076 0 11.15l-14.891 14.892-34.506-34.505 14.893-14.892zm-25.521 25.52l34.505 34.504-13.789 13.789-34.503-34.504 13.787-13.789zm115.05 288.573h-13.865a7.514 7.514 0 00-7.515 7.515 7.514 7.514 0 007.515 7.515h13.865v22.646h-13.865c-4.151 0-7.515 3.364-7.515 7.515s3.364 7.515 7.515 7.515h13.865v22.645h-13.865a7.514 7.514 0 00-7.515 7.515 7.514 7.514 0 007.515 7.515h13.865v22.646h-13.865a7.515 7.515 0 100 15.03h13.865v35.842h-230.2l75.908-75.907a7.515 7.515 0 000-10.628 7.572 7.572 0 00-1.078-.889 7.514 7.514 0 00-9.551.889l-30.456 30.456H56.928c-22.792 0-41.14-17.794-41.862-40.545a44.19 44.19 0 01.332-4.244l.003-.024c.084-.665.185-1.327.3-1.985l.04-.225a43.474 43.474 0 011.057-4.494c.11-.382.224-.763.345-1.14.121-.377.25-.75.381-1.123.091-.261.181-.522.279-.781.183-.492.377-.979.577-1.462.057-.139.113-.28.172-.419.257-.6.524-1.193.806-1.779l.035-.075c5.878-12.164 17.183-21.233 30.75-24.047l.114-.025c.622-.127 1.25-.236 1.882-.337.105-.017.21-.038.317-.054a44.641 44.641 0 011.725-.22c.162-.018.323-.043.486-.059a44.442 44.442 0 011.681-.128c.178-.011.356-.03.534-.039a44.298 44.298 0 012.223-.056 7.515 7.515 0 007.515-7.515v-54.489a7.515 7.515 0 10-15.03 0v47.447c-12.69 1.605-24.469 7.265-33.757 16.335a60.423 60.423 0 00-2.805 2.954V81.702c0-21.741 15.826-39.858 36.561-43.436v226.483a7.516 7.516 0 0015.03 0V119.486h218.24l-41.544 41.544a7.515 7.515 0 0010.627 10.628l54.373-54.373.005-.005 49.185-49.185 34.503 34.505-4.048 4.048-.01.009-151.528 151.53-34.504-34.504 29.868-29.868a7.515 7.515 0 00-10.627-10.628l-35.183 35.182a7.546 7.546 0 00-.529.591c-.055.068-.104.141-.156.212-.106.141-.21.283-.307.431-.055.086-.105.174-.157.263a6.301 6.301 0 00-.371.714 7.526 7.526 0 00-.186.447c-.02.053-.046.103-.065.156l-14.641 41.475-9.982 28.279a7.599 7.599 0 00-.298 1.143h-24.992a7.515 7.515 0 100 15.03h208.114a7.514 7.514 0 007.515-7.515 7.514 7.514 0 00-7.515-7.515H193.093l45.83-16.178c.038-.014.074-.033.112-.047.178-.066.353-.14.526-.219.069-.032.138-.062.205-.095.18-.09.357-.189.531-.295.056-.034.114-.065.169-.1.181-.116.357-.243.53-.377.043-.033.088-.062.13-.096.209-.168.414-.349.608-.543l154.644-154.643h65.255v160.546L354.137 387.53a7.515 7.515 0 1010.628 10.628l.003-.003L496.972 265.95v66.302zm-274.295-66.556l-21.526 7.599-14.342-14.342 7.599-21.526 28.269 28.269z"></path>
    </symbol>
</svg>