<svg width="0" height="0" class="hidden">
    <symbol xmlns="http://www.w3.org/2000/svg" viewBox="0 0 240 140" id="logo1">
        <path d="M156.3 81h-.2l32-31.7L220 81h-.2s-12.5-12.9-31.7-12.9C169 68.1 156.3 81 156.3 81"></path>
        <path d="M165 81s9.7-9.8 27.4-9.8c17.9 0 27.4 9.8 27.4 9.8H165zM33.8 53h-8l-1.1 3.2c-.1.3-.2.4-.5.4H20l7.2-19h4.4c.4 0 .5.1.6.4l7.6 18.6h-4.2c-.4 0-.5-.1-.6-.4L33.8 53zm-1.4-3.6l-.6-1.6c-.9-2.4-1.8-4.9-2.1-6.2-.3 1.2-1.2 3.9-2 6.2l-.6 1.6h5.3zm21.4-11.9h4.4v11.3c0 2.7-.7 4.4-2.1 5.8-1.5 1.5-3.8 2.3-6.5 2.3s-5-.7-6.5-2.3c-1.3-1.3-2.1-3-2.1-5.8V37.5h4.5v11c0 1.4.3 2.3.9 2.9.7.7 1.8 1.1 3.3 1.1 1.4 0 2.6-.3 3.2-1.1.6-.6.9-1.5.9-2.9v-11zm10.1 14.6c2.1.5 3.6.6 4.8.6 2 0 3.1-.7 3.1-2 0-1.1-.6-1.4-2.8-2l-1.9-.5c-4.1-1.1-6.2-2.6-6.2-5.8 0-3.7 3.4-5.4 7.5-5.4 2.4 0 4.8.5 6.8 1.4l-.7 3-1.8-.2c-1.4-.1-3.1-.3-4.1-.3-2.4 0-3.4.4-3.4 1.4 0 .9.9 1.2 2.8 1.7l1.7.5c2.4.7 3.9 1.3 4.9 2.1 1.1.9 1.6 2.1 1.6 3.7 0 4-3 6.2-7.5 6.2-2.8 0-5.9-.9-8.1-2.2l1.1-3 2.2.8zm20.8-10.9h-6.3v-3.8h17.2v3.8h-6.3v15.3h-4.5l-.1-15.3zm18.6 15.3h-4.5v-19h7.8c3.1 0 5.2.5 6.6 1.8 1.1 1 1.6 2.5 1.6 4.4 0 2.6-1.3 4.5-3.1 5.7l4.3 7.1h-4.5c-.4 0-.6-.1-.8-.4l-3.2-5.4c-.2-.4-.3-.4-.7-.4h-3.5v6.2zm5.3-9.9c.5 0 .8-.1 1-.5.4-.6.6-1.4.6-2.4 0-.9-.2-1.5-.6-1.9-.5-.5-1.4-.7-2.8-.7h-3.4v5.4h5.2v.1zm14.7 9.9h-4.5v-19h4.5v19zm16.6-3.5h-8l-1.1 3.2c-.1.3-.2.4-.5.4h-4.1l7.2-19h4.4c.4 0 .5.1.6.4l7.6 18.6h-4.2c-.4 0-.5-.1-.6-.4l-1.3-3.2zm-1.4-3.6l-.6-1.6c-.9-2.4-1.8-4.9-2.1-6.2-.3 1.2-1.2 3.9-2 6.2l-.6 1.6h5.3zM26.3 65.8H20V62h17.2v3.8h-6.3V81h-4.5V65.8h-.1zM44.7 81h-4.5V62H48c3.1 0 5.2.5 6.6 1.8 1.1 1 1.6 2.5 1.6 4.4 0 2.6-1.3 4.5-3.1 5.7l4.3 7.1h-4.5c-.4 0-.6-.1-.8-.4l-3.2-5.4c-.2-.4-.3-.4-.7-.4h-3.5V81zm5.3-9.8c.5 0 .8-.1 1-.5.4-.6.6-1.4.6-2.4 0-.9-.2-1.5-.6-1.9-.5-.5-1.4-.7-2.8-.7h-3.4v5.4l5.2.1zM74.3 62v3.7h-9.7v3.8h8.8v3.7h-8.8v4.1h10V81H60.1V62h14.2zM92 81c-.4 0-.6-.1-.8-.4l-6.3-7.9c-1.3-1.6-2.5-3.1-3-3.8V81h-4.2V62H81c.4 0 .5.1.8.4l6.3 7.9c1.3 1.6 2.5 3.2 3 3.9V62h4.2v19H92zm6.7 0V62h6.7c3.7 0 6.5.7 8.4 2.4 1.7 1.5 2.8 3.9 2.8 7.1s-1 5.5-2.8 7.1c-2 1.7-4.7 2.4-8.4 2.4h-6.7zm6.5-3.8c2.5 0 4.3-.4 5.4-1.4.9-.9 1.3-2.2 1.3-4.2s-.5-3.3-1.3-4.2c-1.1-1.1-2.8-1.4-5.4-1.4h-2.1v11.3h2.1v-.1zM33.6 97.6h-6.3v5h-1V92.2h1v4.6h6.3v-4.6h1v10.4h-1v-5zm8.5 5.2c-2.9 0-5.1-2.3-5.1-5.4s2.2-5.4 5.1-5.4c2.9 0 5.1 2.3 5.1 5.4-.1 3.1-2.3 5.4-5.1 5.4m0-9.7c-2.4 0-4 1.7-4 4.4 0 2.6 1.6 4.4 4 4.4s4-1.7 4-4.4c-.1-2.7-1.7-4.4-4-4.4m9.8 0h-3.6v-.9h8.2v.9H53v9.6h-1l-.1-9.6zm13.7-.9v.8h-5.4v3.7H65v.9h-4.8v4.2h5.6v.9h-6.6V92.2h6.4zm2.9 0h1v9.6h5.3v.9h-6.3V92.2zm8.3 9l.9.3c.9.3 1.7.4 2.4.4 1.9 0 2.7-.9 2.7-2.1 0-1.1-.6-1.6-2.1-2.1l-1.3-.5c-1.7-.6-2.7-1.3-2.7-2.7 0-1.6 1.6-2.5 3.5-2.5 1 0 2.2.2 3.1.6l-.2.6-.7-.1c-.8-.1-1.6-.2-2.3-.2-1.5 0-2.6.4-2.6 1.5 0 .9.7 1.3 2.1 1.8l1.3.5c1.6.6 2.8 1.3 2.8 3 0 2-1.6 3-3.6 3-1.1 0-2.7-.4-3.7-1l.4-.5z"></path>
    </symbol>
    <symbol xmlns="http://www.w3.org/2000/svg" viewBox="0 0 240 140" id="logo2">
        <path d="M97 62.3c.3.3.3.5.3.6 0 .1-.2.3-.6.3H86.1c-.6 0-1-.2-1.4-.5L68.7 50c-.2-.1-.4-.1-.6.1L29.3 93.9c-.3.3-.8.6-1.4.6h-7.2c-.4 0-.6-.2-.6-.3 0-.1-.1-.4.2-.7l47.4-53.7c.4-.4 1-.5 1.4-.1L97 62.3m25.7 15.1c0 .9.3 1.7.9 2.3.6.6 1.4.9 2.3.9 1 0 1.8-.3 2.4-.9.6-.6.9-1.3.9-2.3 0-1-.3-1.7-.9-2.3-.6-.6-1.4-.9-2.4-.9s-1.7.3-2.3.9c-.6.6-.9 1.3-.9 2.3m-5.7 7c-.4 0-.7-.3-.7-.7v-17c0-.4.3-.7.7-.7h5c.4 0 .7.3.7.7v4.1c0 .4.3.5.6.3 0 0 1-.6 1.9-.8.9-.3 1.8-.4 2.8-.4 2.4 0 4.3.7 5.7 2 1.4 1.3 2.1 3.1 2.1 5.4 0 2.2-.7 4-2.1 5.4-1.4 1.4-3.3 2-5.7 2-1.1 0-2.1-.1-3.1-.4-.9-.3-1.8-.7-2.5-1.3v.7c0 .4-.3.7-.7.7H117zm36.6-18.2V68c0 .4-.3.7-.7.7h-4c-.4 0-.7-.3-.7-.7v-1.8c0-.4.3-.7.7-.7h4c.4.1.7.4.7.7m-3.9 13.5c-.6.6-1.4.9-2.4.9s-1.8-.3-2.4-.9c-.6-.6-.9-1.4-.9-2.3 0-1 .3-1.8.9-2.3.6-.6 1.4-.9 2.4-.9s1.8.3 2.4.9c.6.6.9 1.4.9 2.3 0 .9-.3 1.7-.9 2.3m5-7.9c-1.7-1.3-4.2-2-7.4-2s-5.6.7-7.4 2c-1.7 1.3-2.6 3.2-2.6 5.6s.9 4.3 2.6 5.6c1.7 1.3 4.2 2 7.4 2s5.6-.7 7.4-2c1.7-1.3 2.6-3.2 2.6-5.6 0-2.4-.9-4.3-2.6-5.6m-8.4-5.6V68c0 .4-.3.7-.7.7h-3.9c-.4 0-.7-.3-.7-.7v-1.8c0-.4.3-.7.7-.7h3.9c.4.1.7.4.7.7m72.2 5.4c1 1.1 1.5 2.7 1.5 5v7.2c0 .4-.3.7-.7.7h-5c-.4 0-.7-.3-.7-.7v-6c0-1-.1-1.7-.4-2.1 0 0 0-.1-.1-.1-.3-.4-.9-.6-1.8-.6s-1.7.2-2.2.7c-.5.4-.8 1.1-.8 1.8v6.3c0 .4-.3.7-.7.7h-5c-.4 0-.7-.3-.7-.7V66.7c0-.4.3-.7.7-.7h5c.4 0 .7.3.7.7v5.1c.1-.1.3-.2.4-.3 0 0 .1 0 .2-.1 0 0 1-.6 1.9-.9.1 0 .1 0 .2-.1.9-.3 1.9-.4 2.9-.4 2.2 0 3.7.6 4.6 1.6"></path>
        <path d="M72.8 82.9c0 .8-.6 1.4-1.4 1.4H58.9c-.8 0-1.4-.6-1.4-1.4v-11c0-.8.6-1.4 1.4-1.4h12.4c.8 0 1.4.6 1.4 1.4v11m18.7 0c0 .8-.6 1.4-1.4 1.4H77.5c-.8 0-1.4-.6-1.4-1.4v-11c0-.8.6-1.4 1.4-1.4h12.4c.8 0 1.4.6 1.4 1.4v11m18.7 0c0 .8-.6 1.4-1.4 1.4H96.1c-.8 0-1.4-.6-1.4-1.4v-11c0-.8.6-1.4 1.4-1.4h12.4c.8 0 1.4.6 1.4 1.4v11m84.7-4.7h5.7c-.2 2.2-1.2 3.9-2.9 5s-4.1 1.7-7.2 1.7c-3.2 0-5.7-.7-7.5-2-1.8-1.3-2.6-3.2-2.6-5.6 0-2.4.9-4.3 2.6-5.6 1.8-1.3 4.3-2 7.5-2 3 0 5.3.5 7 1.5 1.7 1 2.7 2.6 3 4.6h-5.8c-.6 0-1-.3-1.3-.6-.2-.3-.4-.6-.8-.8-.5-.3-1.1-.5-1.9-.5-1.1 0-2 .3-2.7.9-.6.6-1 1.4-1 2.5 0 1 .3 1.8.9 2.4.6.6 1.5.9 2.5.9.9 0 1.6-.2 2.2-.7.4-.3.7-.6.8-1 .4-.5.9-.7 1.5-.7m-16.8-3.7h-5.7c-.7 0-1.2-.4-1.5-.8-.5-.6-1.7-.8-2.5-.8s-2.3.2-2.3 1.1c0 1.3 1.7 1 6.5 1.5 4.7.5 6.2 2 6.2 4.3s-1.7 5.1-9.9 5.1c-8.2 0-9.7-3.4-9.8-4.9h6.1c.7 0 1.1.3 1.4.7.5.5 1.5.7 2.6.7 1.3 0 2.2-.4 2.2-1.1 0-.8-.8-1.3-2.1-1.3-9.6 0-9.9-3-9.9-4.6 0-1.6 1.2-4.9 9.4-4.9 8.2.2 9.2 3.8 9.3 5"></path>
    </symbol>
    <symbol xmlns="http://www.w3.org/2000/svg" viewBox="0 0 240 140" id="logo3">
        <path d="M124.3 109.8V103c0-1.4-1.1-2.5-2.6-2.5s-2.6 1.1-2.6 2.5v8c0 1.3-.4 2.4-1.2 3.2-.7.8-1.8 1.2-2.9 1.2-1.1 0-2.2-.4-2.9-1.2-.8-.8-1.2-1.9-1.2-3.2v-8c0-1.4-1.1-2.5-2.6-2.5-1.4 0-2.6 1.1-2.6 2.5v6.8c0 2.6.1 4.8 1.9 6.9.2.2.4.4.6.7.9.9 2.1 1.7 3.4 2.1 1.3.5 2.5.6 3.3.6.8 0 2-.1 3.3-.6 1.3-.5 2.4-1.2 3.4-2.1.2-.2.4-.4.6-.7 2-2.2 2.1-4.4 2.1-6.9v.9m47.4-5c1 .4 1.9 1.2 3.2.7.9-.3 1.6-1.3 1.6-2.3 0-.8-.4-1.5-.9-1.9 0 0-.1 0-.1-.1-1.3-1-3.5-1.7-5.5-1.7-4.4 0-8.1 2.9-9.4 7-.4 1.2-.4 2.4-.4 3.6v6.4c0 1.4 1.1 2.6 2.5 2.6s2.6-1.1 2.6-2.6v-6.1c0-1.1 0-2.2.5-3.3.8-1.6 2.4-2.7 4.2-2.7.6.1 1.1.2 1.7.4m-33.9 10c-1-1.1-2.1-.6-3.2-.6-2.2 0-4.1-1.5-4.1-4.3v-5.7h5.6c1.3 0 2.3-1.1 2.3-2.4 0-1.3-1-2.4-2.3-2.4h-5.6v-7.1c0-1.5-1.1-2.6-2.5-2.6s-2.5 1.2-2.5 2.6v17.2c0 2 .2 4.3 2.6 6.8 2.2 2.3 5 2.7 6.6 2.7.7 0 1.6-.2 1.7-.2 1.1-.2 2.1-1.2 2.1-2.4 0-.6-.3-1.2-.7-1.6m-62.3-11c-.9.9-1.9.7-3 .8-2.4.3-4.2 2.3-4.2 4.8 0 2.7 2.2 4.9 4.8 4.9 1.2 0 2.4-.5 3.2-1.2.8-.7 1.7-2.2 1.7-3.7v-16c0-1.4 1.1-2.5 2.5-2.5s2.5 1.1 2.5 2.5v16.1c0 5.4-4.4 9.7-9.8 9.7s-9.8-4.4-9.8-9.8 4.6-9.5 9.8-9.5h.7c1.2.1 2.2 1.1 2.2 2.4.1.5-.2 1.1-.6 1.5m82.5 3.5c-.8-4.1-4.5-7.8-9.6-7.8-5.2 0-10.1 4.1-9.9 9.8 0 5.6 4.7 9.8 9.9 9.8 1.9 0 4.1-.3 6-1.5 1-.6 1.3-1.4 1.3-2.1 0-.9-.5-1.6-1.2-2-1.2-.7-2.5.2-3.4.6-1 .4-2 .4-2.6.4-2.9 0-5.3-2.3-5.3-5.2 0-1.4.6-2.7 1.5-3.7 1-1 2.3-1.5 3.7-1.5.8 0 1.5.1 2.1.3.5.2.9.4 1.3.7.9.7 1 1.2 1 1.3v.1c0 .3-.2.5-.5.5h-3.9c-1.3 0-2.4 1.1-2.4 2.4 0 1.3 1.1 2.4 2.5 2.4h5.8c2 0 3.7-1.6 3.7-3.6v-.9m-57.9 6.2c-1.2-.7-2.4.2-3.4.6-1 .4-2 .4-2.6.4-2.9 0-5.3-2.3-5.3-5.2 0-1.4.6-2.7 1.5-3.7 1-1 2.3-1.5 3.7-1.5.8 0 1.5.1 2.1.3.5.2.9.4 1.3.7.9.7 1 1.2 1 1.3v.1c0 .3-.2.5-.5.5H94c-1.3 0-2.4 1.1-2.4 2.4 0 1.3 1.1 2.4 2.5 2.4h5.8c2 0 3.7-1.6 3.7-3.6 0-.2 0-.5-.1-.7-.8-4.1-4.5-7.8-9.6-7.8-5.2 0-10.1 4.1-9.9 9.8 0 5.6 4.7 9.8 9.9 9.8 1.9 0 4.1-.3 6-1.5 1-.6 1.3-1.4 1.3-2.1.1-1.1-.4-1.8-1.1-2.2m11.1-69.9c-1.7 1.8-3.7 1.2-5.6 1.5-4.5.6-8 4.4-8 9.1 0 5.1 4.1 9.1 9.2 9.1 2.3 0 4.5-.9 6-2.3s3.2-4.1 3.2-7V24.7c0-2.6 2.2-4.7 4.7-4.7 2.6 0 4.7 2.1 4.8 4.6V55c0 10.1-8.4 18.2-18.5 18.2-10.2 0-18.4-8.2-18.4-18.4s8.8-18 18.5-18c.5 0 1.3.1 1.3.1 2.3.2 4.2 2.1 4.2 4.5-.2 1.2-.6 2.3-1.4 3.1"></path>
        <path opacity=".4" d="M123.2 53.2c-1.7 1.8-3.7 1.2-5.6 1.5-4.5.6-8 4.4-8 9.1 0 5.1 4.1 9.1 9.2 9.1 2.3 0 4.5-.9 6-2.3s3.2-4.1 3.2-7V33.4c0-2.6 2.2-4.7 4.7-4.7 2.6 0 4.7 2.1 4.8 4.6v30.4c0 10.1-8.4 18.2-18.5 18.2-10.2 0-18.4-8.2-18.4-18.4s8.8-18 18.5-18c.5 0 1.3.1 1.3.1 2.3.2 4.2 2.1 4.2 4.5-.2 1.2-.7 2.3-1.4 3.1"></path>
    </symbol>
    <symbol xmlns="http://www.w3.org/2000/svg" viewBox="0 0 329.77 78.28" id="logo4">
        <path d="M252.77.64v77h77v-77zM290 5.22l25.49 25.46H310L284.47 5.22zm-6.26 4.25L305 30.68h-5.56L278.2 9.47zm-5.26 5.27l16 15.94h-5.57l-16-15.94zM273.25 20L284 30.68h-5.57L267.69 20zM268 25.25l16 16h-5.56l-16-16zm54.51 19.46h-14l7.11 7.13a2.11 2.11 0 0 1 .63 1.5 2.15 2.15 0 0 1-2.13 2.15h-26.47l17.57 17.57h-5.64l-42.91-43h5.59l14.39 14.41h15.46l-10.74-10.73H308l3.77 3.81h-21l10.88 10.85h-21.09l3.06 3.06h26.05L298.91 40.7h21l-7-7h5.62l5.94 5.95a2.87 2.87 0 0 1 .89 2.1 2.93 2.93 0 0 1-2.85 2.96zM17 .64c10.75 0 17.84 6.82 17.84 17.19S27.79 35 17 35H2.33V.64zm-6.47 7.59v19.2h6.33c6.39 0 9.45-4.06 9.45-9.6s-3.06-9.6-9.45-9.6zm64 9.6c0 10.25-7.51 17.82-18.11 17.82s-18.13-7.57-18.13-17.82S45.8 0 56.41 0s18.11 7.56 18.11 17.83zm-27.69 0c0 5.89 4 10 9.58 10s9.58-4.11 9.58-10-4-10-9.57-10-9.6 4.1-9.6 10zm58 17.18H79.36V.64h8.2V27.4h17.28zm37.26-17.18c0 10.25-7.52 17.82-18.12 17.82s-18.12-7.57-18.12-17.82S113.38 0 124 0s18.1 7.56 18.1 17.83zm-27.69 0c0 5.89 4 10 9.57 10s9.57-4.07 9.57-10-4-10-9.57-10-9.57 4.1-9.57 10zM185.79 35h-8.2V11.49l-6.87 20.28H162l-6.87-20.2V35h-8.2V.64h11.61l7.83 21.82L174.15.64h11.64zm14.46 0h-8.2V.64h8.2zm32.29-26.75h-10.16V35h-8.2V8.25H204V.64h28.55zm12 26.76h-8.2V.64h8.2zM25.41 53a19.19 19.19 0 0 0-9.85-2.9c-3.11 0-5.4 1.06-5.4 3.1s3.27 2.67 7.07 3.33l1.43.25c6.67 1.15 10.87 4.27 10.87 9.89 0 8.18-7 11.59-14.41 11.59C9.4 78.28 3.8 76.78 0 73.91l4.1-6.68a19.21 19.21 0 0 0 11.1 3.61c3.09 0 5.44-1 5.44-3.19s-2.3-2.65-6.8-3.34L12.13 64c-7.07-1.1-10.9-4.3-10.78-10.48.12-6.68 5.82-10.9 13.85-10.9a26.38 26.38 0 0 1 13.86 3.63zm39 10.75c0 9.4-5.69 14.51-15.05 14.51s-15-5.11-15-14.51V43.27h8.22v20.18c0 4.72 2.71 7 6.8 7s6.83-2.23 6.83-7V43.27h8.22zM78.51 66v11.64h-8.2V43.27H85c8.49 0 13 4.57 13 11.47S93.53 66 85.11 66zm0-15.32v8h6.41c2.94 0 4.76-1.38 4.76-4s-1.82-4-4.76-4zM129 77.64h-26.34V43.27h26.22v7.39h-18v5.94h17V64h-17v6.28H129zm20.56-34.37c8.49 0 13 4.22 13 11 0 5.45-3.44 9.28-9.6 10.26l9.87 13.11h-9.77L144 64.78h-1.2v12.86h-8.2V43.27zm-6.75 7.44v7.17h6.65c2.95 0 4.76-1.15 4.76-3.61s-1.86-3.56-4.76-3.56zM191.49 53a19.18 19.18 0 0 0-9.84-2.9c-3.12 0-5.41 1.06-5.41 3.1s3.27 2.67 7.07 3.33l1.43.25c6.68 1.15 10.87 4.27 10.87 9.89 0 8.18-7 11.59-14.41 11.59-5.72 0-11.32-1.5-15.12-4.37l4.1-6.68a19.23 19.23 0 0 0 11.1 3.61c3.09 0 5.45-1 5.45-3.19s-2.31-2.65-6.8-3.34l-1.72-.29c-7.07-1.1-10.9-4.3-10.78-10.48.12-6.68 5.82-10.9 13.85-10.9a26.41 26.41 0 0 1 13.87 3.63zm53 24.62h-8.2V43.27h8.2zm-22.84-34.35l-12.72 17.32 13.61 17h10.31L218.41 60l13.33-16.77zM208.8 77.64h-8.2V43.27h8.2z"></path>
    </symbol>
    <symbol xmlns="http://www.w3.org/2000/svg" viewBox="0 0 240 140" id="logo5">
        <path d="M196.3 53.2c-.8-12.4-10.2-17-18.7-21.3C168.2 27.1 145.1 20 120 20s-48.2 7.1-57.6 11.9c-8.5 4.3-17.9 8.9-18.7 21.3-.9 13.6-.3 27.8 3.4 33.6 3.4 5.2 7.6 12.8 28.8 23.2C97 120.4 120 120.1 120 120c-.1.1 22.9.4 44.1-10 21.2-10.4 25.4-18 28.8-23.2 3.7-5.8 4.3-20 3.4-33.6zm-9.7 22.7c-1.3 2.3-3 7-16.4 13.5-8.3 4-16.8 6.1-22.7 7.2-.3 0-.5.3-.5.6v.5c0 10-12.1 18.2-27 18.2s-27-8.2-27-18.2v-.6c0-.3-.2-.5-.5-.6-5.8-1.1-14.4-3.2-22.7-7.2C56.4 83 54.7 78.2 53.4 75.9c-1.5-2.5-2.1-10.9-1.6-16.8.4-5.2 1.2-8.6 8.3-11.9C67.5 44 94.9 40 120 40s52.5 4 59.9 7.3c7.2 3.2 8 6.7 8.3 11.9.5 5.8-.1 14.2-1.6 16.7zM132.3 61h-2.4v-3.3h2.4V54h4.8v3.7h2.8V61h-2.8v10.1c0 1.5.3 2.1 1.7 2.1.4 0 .8 0 1.1-.1v3.3c-1 .1-2 .2-3.1.2-3.8 0-4.5-1.2-4.5-5V61zm-63.7-8.5h-8.7v24.1h8.4c5.2 0 7.7-2.1 8.6-6.7h-.1.1c.3-1.6.4-3.5.4-5.7v-1.7c-.2-6.1-1.9-10-8.7-10zm3.2 11.7c0 2.5-.1 4.4-.5 5.7-.6 1.8-1.7 2.6-3.8 2.6h-2.3V56.4h2.2c3.5 0 4.3 2.1 4.4 6.1h.1-.1v1.7zm14 8.3h4.1v4.1h-4.1v-4.1zm-.1-10h-.2.2c-.9.5-1.6 1.4-1.6 2.9v11.2h-4.8V57.9h4.6v2.5h.1c1-1.8 2.3-3 4.3-3 .3 0 .6 0 .9.1v4.6c-.5 0-1-.1-1.5-.1-.7 0-1.4.2-2 .5zm97.5-5.1c.3 0 .6 0 .9.1v4.6c-.5 0-1-.1-1.5-.1-.7 0-1.4.1-2 .5h-.1.1c-.9.5-1.5 1.4-1.5 2.9v11.2h-4.8V57.9h4.6v2.5h.1c.9-1.8 2.2-3 4.2-3zm-68.9 15.2c.7 1.5 1.6 2.7 2.9 3.5 1.3.8 2.7 1.2 4.4 1.2 1.5 0 2.8-.3 3.9-.8 1.1-.6 2.1-1.4 2.8-2.4.7-1 1.1-2.2 1.3-3.5h-5.1c-.2.8-.6 1.5-1.1 2-.5.5-1.2.7-1.9.7-1 0-1.7-.4-2.3-1.2-.4-.6-.7-1.3-.8-2.1-.1-.4-.1-.7-.1-1.2v-.2h11.5v-.8c0-1.8-.2-3.4-.5-4.7-.1-.2-.1-.4-.2-.6-.3-1.1-.8-2-1.5-2.8-.5-.6-1-1.1-1.6-1.5-.6-.4-1.3-.8-2.1-1-.7-.2-1.5-.3-2.3-.3-1.2 0-2.4.2-3.4.7-1 .5-1.9 1.2-2.6 2.1-.6.8-1.1 1.7-1.5 2.8-.1.2-.1.3-.2.5-.4 1.3-.6 2.7-.6 4.3 0 .9.1 1.8.2 2.6.2 1 .5 1.9.8 2.7zm4.6-10.1c.1-.3.3-.5.5-.7.6-.7 1.3-1.1 2.2-1.1.9 0 1.6.3 2.1 1 .2.2.3.5.5.8.3.6.5 1.3.6 2.2h-6.3c-.1-.9.1-1.6.4-2.2zm53 0c-.3-1.1-.8-2-1.5-2.8-.4-.6-1-1.1-1.6-1.5-.6-.4-1.3-.8-2.1-1-.7-.2-1.5-.3-2.3-.3-1.2 0-2.4.2-3.4.7-1 .5-1.8 1.2-2.6 2.1-.6.8-1.1 1.7-1.5 2.8-.1.2-.1.3-.2.5-.4 1.3-.6 2.7-.6 4.3 0 .9.1 1.8.2 2.6.2 1 .4 1.9.8 2.7.7 1.5 1.6 2.7 2.9 3.5 1.3.8 2.8 1.2 4.5 1.2 1.5 0 2.8-.3 3.9-.8 1.1-.6 2.1-1.4 2.8-2.4.7-1 1.1-2.2 1.2-3.5h-5c-.2.8-.6 1.5-1.1 2-.5.5-1.2.7-1.9.7-.9 0-1.7-.4-2.3-1.2-.4-.6-.7-1.3-.8-2.1-.1-.4-.1-.7-.1-1.2v-.2h11.5v-.8c0-1.8-.2-3.4-.5-4.7-.2-.2-.3-.4-.3-.6zm-10.8 2.2c.1-.9.3-1.6.6-2.2.1-.3.3-.5.5-.7.6-.7 1.3-1.1 2.2-1.1.9 0 1.6.3 2.1 1 .2.2.3.5.5.8.3.6.5 1.3.6 2.2h-6.5zm-58.3 12.6c5.1 0 7.7-3 8.8-7.4.4-1.6.6-3.4.6-5.4 0-.7 0-1.4-.1-2.1-.4-6.1-2.9-10.7-9.3-10.7s-8.8 4.6-9.3 10.7c0 .7-.1 1.4-.1 2.1 0 1.9.2 3.7.6 5.4h.1-.1c1 4.4 3.6 7.4 8.8 7.4zM99 64.6v-2.1c.1-4 .8-6.9 3.7-6.9 2.6 0 3.5 3 3.7 6.9v2.1c0 2-.1 3.9-.4 5.3-.5 2.2-1.5 3.6-3.3 3.6-2 0-3-1.4-3.4-3.6-.2-1.5-.3-3.3-.3-5.3zm54.5 5.3l3.7 6.7h-5.3l-3.5-6.7-.5-1-.7 1-1 1.3v5.5h-4.8V52.4h4.8V65l1.7-2.4 3.2-4.6h5.3l-3.4 4.6-2 2.8 2.5 4.5zM120 81.1c-13.9 0-25.2 7.4-25.2 16.5s11.3 16.5 25.2 16.5c13.9 0 25.2-7.4 25.2-16.5S133.9 81.1 120 81.1zm12.1 27.7c-.4.5-1.3.4-1.3.4h-20.9s-.4.1-1-.2c-.5-.2-.5-.7-.4-1 .1-.4.4-1 .6-1.2.3-.3.6-.8 2.3-1.8 1.7-1 3.2-1.5 4-2.1.8-.6 1.1-1.1 1.3-1.6.2-.5.1-1.1-.2-1.5-.3-.4-1.1-.8-2.3-1.1-1.2-.3-1.1-1.1-1.1-1.1.1-.7.1-.9.1-1.2 0-.2-.2-.4-.2-.6v-.5c0-.2-.3-.2-.1-.8.2-.6-.3-.6-.4-.8-.1-.1-.3-.1-.4-.4-.2-.3-.1-.4-.1-.5.1-.2 0-.3.6-1s.7-1 .7-1.4c.1-.3 0-.7 0-1.2s.1-.9.1-.9c0-.1.1-.6.2-.7 0-.2.1-.3 0-.5v-1c0-.3.3-.8.5-1 .2-.2.7-.6.8-.7.1-.1.8-1 1-1.2.2-.2.5-.3.8-.3.2 0 .4-.1.6 0 .3.1.6 0 .8.1.3 0 .8 0 1.2-.1h.4c.1 0 .7.2 1 .3.3.2 1.2.2 1.8.3.5.1 1.1.7 1.5 1.1.4.5 1.4.9 1.7 1 .3.1 1 .5 1.4 1.3.2.4.5 1.5.9 2 .5.6.8.8.9 2.2.2 1.4.7 1.4.6 2.7-.1 1-1.1 1.6-1.3 1.8-.2.1-1.2.3-1.5.9-.3.6-.6.7-1 .8-.3.1-1.1-.1-1.4-.2-.4 0-.9.1-1.2.7-.3.7.1 1.8.9 2.8.9 1.1 3.2 2.4 3.9 2.7.8.5 2.4 1.4 2.9 1.8.4.4.9.9 1 1.2.4.9.8 2 .3 2.5z"></path>
    </symbol>
    <symbol xmlns="http://www.w3.org/2000/svg" viewBox="0 0 240 140" id="logo6">
        <path d="M82.2 106.8h7.6v3.2h-1.3v-1.8H85v3.2h3.5v1.4H85v3.3h3.5v-1.8h1.3v3.2h-7.6V116h1.3v-7.8h-1.3v-1.4zm13.9 2.3c-1.2 0-2.1.3-2.8 1.2v-3.6h-2.6v1.3h1.1v8h-1v1.4h2.5v-1c.8.8 1.7 1.2 2.8 1.2 1.2 0 2.2-.4 2.9-1.3.8-.8 1.3-1.8 1.3-3s-.4-2.2-1.3-3c-.8-.8-1.8-1.2-2.9-1.2zm0 7.1c-1.7 0-2.8-1.2-2.8-2.8 0-1.7 1.1-2.8 2.8-2.8 1.5 0 2.8 1.3 2.8 2.8-.1 1.5-1.3 2.8-2.8 2.8zm9.4-7.1c-1.2 0-2.2.4-3 1.3-.8.8-1.3 1.8-1.3 3s.4 2.2 1.3 3c.8.8 1.8 1.3 3 1.3 1.7 0 3.3-1 3.9-2.8h-1.7c-.6.9-1.4 1.3-2.3 1.3-1.3 0-2.3-.8-2.7-2.3h6.9v-.6c0-.8-.3-1.7-.7-2.3-.7-1.2-2-1.9-3.4-1.9zm-2.7 3.5c.4-1.3 1.4-2 2.7-2s2.2.8 2.6 2h-5.3zm12.5-3.4v1.7c-1.6 0-2.3.8-2.3 2.7v2.5h1.1v1.4h-3.8V116h1.2l.1-5.3h-1.1v-1.4h2.5v1.3c.6-1 1.3-1.3 2.3-1.4zm6.7 5.8c0 1.4-1 2.5-2.6 2.5-.8 0-1.3-.2-1.8-.7v.5h-1.3v-2.6l1.5-.1c0 .8.6 1.4 1.4 1.4s1.3-.4 1.3-1.1c0-.8-.3-1-1.3-1.3-.9-.3-1.6-.4-1.9-.7-.7-.4-1-1-1-1.8 0-1.3 1-2.3 2.4-2.3.7 0 1.2.3 1.6.7v-.4h1.3v2.1h-1.4c-.1-.6-.6-1-1.3-1-.8 0-1.2.5-1.2 1 0 .9.8.9 2.2 1.3 1.4.6 2.1 1.2 2.1 2.5zm6.1-6c-1.2 0-2.1.4-2.8 1.2v-1h-2.6v1.4h1.1v8h-1.1v1.4h3.8v-1.4h-1.3v-2.3c.7.8 1.6 1.2 2.8 1.2s2.2-.4 2.9-1.3c.8-.8 1.3-1.8 1.3-3s-.4-2.2-1.3-3c-.7-.8-1.7-1.2-2.8-1.2zm0 7.2c-1.6 0-2.8-1.2-2.8-2.8 0-1.7 1.1-2.8 2.8-2.8 1.5 0 2.8 1.3 2.8 2.8-.1 1.5-1.3 2.8-2.8 2.8zm8.9-8.4h-1.3v-1.5h1.3v1.5zm2.7 0h-1.3v-1.5h1.3v1.5zm.3 2.5c-.7-.8-1.6-1.2-2.7-1.2-1.3 0-2.2.3-3 1.2-.8.8-1.3 1.8-1.3 3s.4 2.2 1.3 3c.8.8 1.8 1.3 2.9 1.3 1.2 0 2.1-.4 2.8-1.2v1h2.6V116l-1.1.1v-5.3h1.1v-1.4H140v.9zm-2.7 5.9c-1.5 0-2.8-1.3-2.8-2.8 0-1.6 1.3-2.8 2.8-2.8 1.6 0 2.8 1.3 2.8 2.8 0 1.6-1.2 2.8-2.8 2.8zm12.6-1.5h1.7c-.6 1.8-2.3 2.9-4.1 2.9-1.2 0-2.2-.4-3-1.3-.8-.8-1.3-1.8-1.3-3s.4-2.2 1.3-3c.8-.8 1.9-1.3 3.1-1.3 1 0 1.9.4 2.4 1.1v-.8h1.3v2.7h-1.4c-.6-1-1.4-1.5-2.4-1.5-1.5 0-2.8 1.3-2.8 2.8 0 1.6 1.3 2.8 2.8 2.8 1 .1 1.8-.4 2.4-1.4zm10.2 1.3h1.2v1.4h-3.8V116h1.1v-2.8c0-1.8-.5-2.7-2-2.7-1.3 0-2.1.9-2.1 2.7v2.8h1.1v1.4h-3.8V116h1.2l.1-7.8H152v-1.3h2.6v3.7c.5-.8 1.3-1.3 2.3-1.3.9 0 1.8.3 2.3.8.8.8.9 1.6.9 2.8v3.1zm5.7-6.9c-1.2 0-2.2.4-3 1.3-.8.8-1.3 1.8-1.3 3s.4 2.2 1.3 3c.8.8 1.8 1.3 3 1.3 1.7 0 3.3-1 3.9-2.8H168c-.6.9-1.4 1.3-2.3 1.3-1.3 0-2.3-.8-2.7-2.3h6.9v-.6c0-.8-.3-1.7-.7-2.3-.8-1.2-2-1.9-3.4-1.9zm-2.8 3.5c.4-1.3 1.4-2 2.7-2s2.3.8 2.6 2H163zm10.1.9v2.5h1.1v1.4h-3.8V116h1.2l.1-5.3h-1.1v-1.4h2.5v1.3c.5-1 1.2-1.3 2.3-1.4v1.7c-1.6-.1-2.3.8-2.3 2.6zm-60.9-78.7L64.8 47.4V32.8L112.2 20v14.8zM82.3 52.1l-13.9-3.7 13.9-3.8v7.5zm29.9 8.1L64.8 72.8V58.2l47.4-12.8v14.8zM82.3 77.5l-13.9-3.7L82.3 70v7.5zm29.9 8L64.8 98.3V83.5l47.4-12.7v14.7zm-29.9 17.4l-13.9-3.7 13.9-3.8v7.5z"></path>
    </symbol>
    <symbol xmlns="http://www.w3.org/2000/svg" viewBox="0 0 240 140" id="logo7">
        <path d="M151.1 60.2h-7.9v15.4c0 4.3 2.4 4.3 3.8 4.3h8v-4.6h-1c-2.1 0-2.8-.6-2.8-2.1v-4.7h4.1v-4.9h-4.1l-.1-3.4zM135.4 65c-.8.9-.8.3-.8.3v-1.5h-8.1v16.1h8v-7.2c0-1.9.8-2.5 1.3-2.9.6-.5 1.6-.5 2-.5h2.1v-5.9h-.9c-.4.1-2.3.2-3.6 1.6zm-73.6-1.2l-3.9 6.1-3.8-6.1H43.9l4.7 7.9-4.8 8.2h10l4.1-6.4 3.9 6.4H72l-4.8-8.2 4.8-7.9H61.8zm57.2.6c-1.2-.7-3.5-1.1-7.6-1.1 0 0-3.5-.1-6.2.5-2.4.5-3.5 1.9-3.8 2.3s-1.2 2.1-1.3 4.3c-.1 2.2 0 2.4.1 3.7.1 1.3.6 3.2 1.9 4.3 1.3 1.1 1.8 1.8 8.9 1.8 4.3 0 6.2-.4 7.1-.7.6-.2 1.1-.4 1.3-.5.3-.1.8-.5 1.2-1.1.3-.4.6-.9.8-1.7 0 0 .2-.8.3-1.6V74h-8.1s.2 2.2-.7 2.9c-.7.5-1 .5-1.4.5s-1.2.1-1.7-.5-.8-1.1-.8-2.5v-2.3h12.8s.2-2.8-.3-4.4c-.6-1.3-1.3-2.6-2.5-3.3zm-5.5 4.8h-4.6c0-1-.2-3.3 2.3-3.3 2.7.1 2.3 2.7 2.3 3.3zM39 64.4c-1.2-.7-3.5-1.1-7.6-1.1 0 0-3.5-.1-6.2.5-2.4.5-3.5 1.9-3.8 2.3s-1.2 2.1-1.3 4.3 0 2.4.1 3.7c.1 1.3.6 3.2 1.9 4.3 1.3 1.1 1.8 1.8 8.9 1.8 4.3 0 6.2-.4 7.1-.7.6-.2 1.1-.4 1.3-.5.3-.1.8-.5 1.2-1.1.3-.4.6-.9.8-1.7 0 0 .2-.8.3-1.6V74h-8.1s.2 2.2-.7 2.9c-.7.5-1 .5-1.4.5s-1.2.1-1.7-.5-.8-1.1-.8-2.5v-2.3h12.8s.2-2.8-.3-4.4c-.6-1.3-1.3-2.6-2.5-3.3zm-5.5 4.8h-4.6c0-1-.2-3.3 2.3-3.3 2.7.1 2.3 2.7 2.3 3.3zm56.1-5.9c-1.3 0-4-.1-5.2 1.5-.9 1.2-.9.2-.9.2v-1.1h-8.3v20.6h8.3v-5.2c0-.9.3-.7.4-.6.2.2.5.5.8.7.4.3 1.1 1 4.1 1 5.1 0 7.5-2.1 7.5-8.7.1-8.1-3.6-8.4-6.7-8.4zM87.9 70v2.9c0 1 .2 3.3-2.2 3.3-2.3 0-2.2-2.5-2.2-3.3v-2.6c0-1-.1-3.3 2.2-3.3 2.3.1 2.3 2.1 2.2 3zm121.8 3l-1.3-2.4h-13.5l1.3 2.4h13.5zm3.7 6.9h-13.5l-1.3-2.4h13.5l1.3 2.4zm-15.3-3.5l-1.3-2.4h13.5l1.3 2.4h-13.5zm-8.3-3.4h-13.5l1.3-2.4h13.5l-1.3 2.4zm-2.4 4.5l-1.3 2.4h-13.5l1.3-2.4h13.5zm.6-1.1h-13.5l1.3-2.4h13.5l-1.3 2.4zm-10.5-6.9l-1.3-2.4h13.5l1.3 2.4h-13.5zm-3.7-6.8l-1.3-2.4H186l1.3 2.4h-13.5zm14 1l1.3 2.4h-13.5l-1.3-2.4h13.5zm22.2 2.4h-13.5l1.3-2.4h13.5l-1.3 2.4zm-11.6-3.4l1.3-2.4h13.5l-1.3 2.4h-13.5zm-2.4 4.4h13.5l-1.3 2.4h-13.5l1.3-2.4zm-1.1-14.5h-4.1l2.1-3.5 2 3.5zm4 6.8h-12.1l1.5-2.6h9.1l1.5 2.6zm-2-3.4h-8.1l1.4-2.4h5.3l1.4 2.4zm-10.1 24.6h12.1l-1.5 2.6h-9.1l-1.5-2.6zm2 3.4h8.1l-1.4 2.4h-5.3l-1.4-2.4zm2 3.4h4.1l-2.1 3.5-2-3.5z"></path>
        <path d="M192.9 44.3c-14.2 0-25.7 11.5-25.7 25.7s11.5 25.7 25.7 25.7 25.7-11.5 25.7-25.7-11.5-25.7-25.7-25.7zM210 87c-4.4 4.4-10.4 7-17 7s-12.7-2.7-17-7c-4.4-4.4-7-10.4-7-17s2.7-12.7 7-17c4.4-4.4 10.4-7 17-7s12.7 2.7 17 7c4.4 4.4 7 10.4 7 17s-2.7 12.7-7 17z"></path>
    </symbol>
    <symbol xmlns="http://www.w3.org/2000/svg" viewBox="0 0 240 140" id="logo8">
        <path d="M76.3 42.3V100h3.5l16.9-29.2V42.3zM67.5 100h4.3V75.1L51.5 75c-.9 6.3.1 10.6 3.6 15.8 3.4 5 7.2 7.9 12.4 9.2zm79.2-57.7h42.1v14.6h-42.1zm.1 19.3V70l17.2 30h2.8V76.4h22V61.6zM93 86.2L85.1 100H135l-8-13.8zm31.6-13.7l15.8 27.5h18.1l-24.9-43.4zm-29 9.2h18.2l17.1-29.6-9.1-15.8z"></path>
    </symbol>
    <symbol xmlns="http://www.w3.org/2000/svg" viewBox="0 0 240 140" id="logo9">
        <path d="M136.6 57.1h-16.5v-1.2h16.5V39.6h1.2v16.2h16.4V57h-16.4v16.4h-1.2V57.1zm-5.2 12.7l-.1-1.2H91.1l-.1 1.2c.8.1 1.5.2 2.2.2 4.7.4 7.5.6 9 1.1 1.3.4 1.6.9 1.6 2v19.7c0 2.1 0 5.6-1.8 8.5-.6 1-1.4 1.8-2.3 2.6-1.3.9-2.7 1.6-4.2 2.1-1.9.5-4.1.9-6.5 1h-.2c-.8 0-1.7-.1-2.9-.2-3.3-.5-6.1-1.9-8.4-4.3-9.1-9.2-8.1-29.8-8.1-30 0-.1 0-10.1 2.4-19.9 1.5-5.7 3.4-10.3 5.9-13.6 2.7-3.6 6.1-5.6 9.9-6 .5 0 1-.1 1.5-.1 1.7 0 3.4.2 4.9.6 3.7 1 7.3 3 10.5 6.3 7.8 7.8 12 20.2 12 24.7h1.2V32.4l-1.2-.3s-1.3 2.7-2.8 5.5c-2.4 4.4-3.5 5.3-3.7 5.5-.3-.2-.8-.8-1.2-1.2-2.2-2.4-6.7-7.3-13.4-9.4-2-.6-4.1-1-6.2-.9-.5 0-1 0-1.6.1-6.9.5-14.6 4.2-20.4 10.1-5.6 5.5-12.1 15.2-12.1 30.6 0 12.4 3.8 21.9 11.4 28.2 6.4 5.4 14 7.1 19.3 7.5 1 .2 2 .2 3.1.2 2.6 0 4.8-.3 6.7-1 2-.5 3.6-1.4 5-2.4 1.6-1 2.9-2.1 4.1-3.1 2.3-2 4.3-3.7 6.9-3.7 5.8 0 6.2 10.3 6.2 10.4h1.2V73.1c0-1.1.3-1.6 1.6-2.1 1.6-.5 4.5-.7 9.3-1.1l1.5-.1zm53.5-38.2h-44.8v1.2l10.7.7c3 0 4.2 1 4.8 2.1.6 1 .5 1.9.5 1.9v57.3s-.1 3.1-1.3 6.2c-.6 1.6-1.6 3-2.9 4.2-1.3 1.1-3 1.8-5.3 1.8h-1.4c-.8-.1-1.6-.3-2.5-.5-.3-.1-.6-.2-1-.3-2.3-1-4.1-2.5-5.5-4.2-1.1-1.4-2-2.9-2.4-4.2-.3-.9-.4-1.7-.5-2.4 1 .8 2.7 1.8 5.6 1.8 2.5 0 4.7-.9 6.2-2.3 1.6-1.5 2.3-3.6 2.3-6.2 0-5.1-3.9-8.7-8.7-8.7-2.5 0-4.9.8-6.8 2.5-1.8 1.8-2.9 4.6-2.9 8.5v1.4l.1-.1c.3 5 2.9 8.9 6.1 11.7 2.3 1.9 4.8 3.2 7.2 3.9.3.1.8.2 1.1.3h.2c.4.1.8.2 1.2.2.3 0 .7.1 1 .1h.5c4.9 0 10.8-1 15.4-3.7 4.7-2.7 8.1-7.2 8.1-13.8V37.6s-.1-1 .5-1.9c.6-1 1.8-2 4.8-2l9.5-.8h.1l.1-1.3z"></path>
    </symbol>
    <symbol xmlns="http://www.w3.org/2000/svg" viewBox="0 0 240 140" id="logo10">
        <path d="M47.2 59v11c-3.4 0-6.6 1.7-8.6 4.2-3 4.1-7.8 6.7-13.2 6.7V70c3.6 0 6.7-1.7 8.7-4.3 3.1-4.1 7.8-6.7 13.1-6.7zm171.5 0h-13.9c-.6 0-1.2.6-1.2 1.2v1.9c-1.5-1.9-3.8-3.1-6.4-3.1h-7.4c-.7 0-1.2.6-1.2 1.2v5.9c-1.6-4.5-5.9-7.7-11-7.7-3.9 0-7.2 1.9-9.3 4.7-1.4-2.4-4-4.1-7.1-4.1h-7.5c-.7 0-1.3.6-1.3 1.2v10.7c-1.1-2.4-3.5-4.2-6.2-4.2l-4.5.1c-.5 0-1-.5-1-1 0-.6.5-1 1-1h7.9c.6 0 1.2-.6 1.2-1.3v-3.3c0-.6-.6-1.2-1.2-1.2h-7.9c-3.8 0-6.9 3.1-6.9 7 0 3.8 3 6.8 6.9 6.8h4.5c.5 0 1 .5 1 1s-.5 1-1.1 1H137c-.6 0-1.2.6-1.2 1.3v3.6c0 .7.6 1.2 1.2 1.2h9.1c2.8 0 5.2-1.7 6.3-4v2.6l.1.2c0 .7.5 1.2 1.2 1.2h3.5c.7 0 1.2-.6 1.2-1.2V76c0-.3.2-.5.6-.5h2.3c2.1 0 4-.7 5.5-2.1 1.5 4.7 5.9 8.2 11 8.2 5 0 9.3-3.2 11-7.7v5.9c0 .7.5 1.2 1.2 1.2h3.9c.6 0 1.2-.6 1.2-1.2v-5.5c0-.1 0-.3.2-.3.1 0 .3.1.3.1l3.9 6.1c.3.4.8.8 1.3.8h4.7c.3 0 .7-.3.7-.7 0-.1-.1-.2-.1-.4l-3.8-6c2-1.5 3.4-3.9 3.4-6.7 0-.8-.1-1.6-.3-2.3h3.4c.1 0 .3.1.3.3v14.5c0 .7.5 1.2 1.2 1.2h3.5c.7 0 1.3-.5 1.3-1.2V65.3c0-.2.1-.3.2-.3h3.7c.7 0 1.3-.5 1.3-1.2v-3.5c-.3-.7-.8-1.3-1.6-1.3zm-58.1 10.5h-2c-.1 0-.3 0-.3-.2v-4.1c0-.2.1-.3.2-.3h2.1c1.3 0 2.4 1 2.4 2.3 0 1.3-1 2.3-2.4 2.3zm17 4.9c-2.4 0-4.3-2-4.3-4.4s1.9-4.3 4.3-4.3 4.4 1.9 4.4 4.3-1.9 4.4-4.4 4.4zm19.4-4.9h-2c-.2 0-.3 0-.3-.2v-4.1c0-.2.1-.3.3-.3h2.1c1.3 0 2.3 1 2.3 2.3-.1 1.3-1.1 2.3-2.4 2.3z"></path>
        <path d="M25.5 69.9c-3 0-5.5-2.5-5.5-5.5 0-3.1 2.5-5.5 5.5-5.5 3.1 0 5.5 2.4 5.5 5.5 0 3-2.5 5.5-5.5 5.5zm32.1-9V79c0 1.2-1 2.2-2.1 2.2s-2.1-1-2.1-2.2V60.9c0-1.1.9-2.1 2.1-2.1 1.2.1 2.1 1 2.1 2.1zm21.2 0V79c0 1.2-.9 2.2-2.1 2.2-.9 0-1.5-.6-1.9-1.3l-8.5-13.1c-.1-.1-.1-.2-.3-.2-.1 0-.3.2-.3.3V79c0 1.2-1 2.2-2.1 2.2s-2.1-1-2.1-2.2V60.9c.1-1.2 1.2-2.1 2.5-2.1 1 0 1.8.5 2.3 1.3l7.8 12c.2.2.2.2.3.2.1 0 .1-.1.1-.2V60.9c0-1.1 1-2.1 2.1-2.1s2.2 1 2.2 2.1zm18.8 0c0 1-.8 1.9-1.9 1.9H91c-.2 0-.3.1-.3.3V79c0 1.2-.9 2.1-2.1 2.1s-2.1-.9-2.1-2.1V63.1c0-.2-.2-.3-.3-.3h-4.8c-1 0-1.9-.8-1.9-1.9 0-1 .9-1.9 1.9-1.9h14.4c1 0 1.8.8 1.8 1.9zm5.2 2.2v4.1c0 .2.1.2.3.2h8.3c1.1 0 1.8.9 1.8 1.9s-.8 1.8-1.8 1.8h-8.3c-.1 0-.3.2-.3.3v5.4c0 .2.1.3.3.3h9.7c1.1 0 1.9.9 1.9 1.8 0 1.1-.8 1.9-1.8 1.9h-12.7c-.9 0-1.5-.7-1.5-1.6V60.7c0-.9.7-1.6 1.5-1.6h12.7c1.1 0 1.8.8 1.8 1.9 0 1-.8 1.9-1.8 1.9h-9.7c-.2-.1-.4 0-.4.2zm30.9 14.4c0-.1-.1-.4-.1-.8 0-.5-.1-2.5-.1-2.5 0-2.1-1.6-3.9-3.5-4.1 2.4-.6 4.1-2.8 4.1-5.4 0-3.1-2.5-5.6-5.6-5.6h-9.9c-.8 0-1.5.7-1.5 1.6v18.4c0 1.2.9 2.1 2.1 2.1s2.1-.9 2.1-2.1V72c0-.2.3-.3.3-.3h4.6c1.8 0 3.3 1.5 3.3 3.4 0 0 .3 3.9.4 4 0 .1 0 .3.1.4.2 1 1.1 1.7 2.1 1.7 1.2 0 2.2-.9 2.2-2.1 0-.2 0-.5-.1-.7-.3-.4-.5-.7-.5-.9zm-6.6-9.1h-5.6c-.1 0-.3-.1-.3-.3v-5.5c0-.1.2-.3.3-.3h5.3c1.7 0 3 1.4 3 3.1 0 1.5-1.2 2.8-2.7 3z"></path>
    </symbol>
    <symbol xmlns="http://www.w3.org/2000/svg" viewBox="0 0 240 140" id="logo11">
        <path d="M121.9 43c.1 2.3 0 14.5 0 18.6 3.9-4 17.9-18.2 18.4-18.2h5.4l-22.9 22.9 29 29h-6.2l-23.3-23.2v19.7l-8.8-8.8V70.3h-5.8v11.1l-8-8v-13l7.9-8.1v10.6h5.5c-.1-11.1 0-11.2.1-11.4l.2-.2c5.8-5.7 7.1-7 7.4-7.4l1.1-.9zm-.9 19.4zM53.3 86.6V59.4l8.3-8.1v27l-8.3 8.3zM179 77h-21.7V50.9l8.7-8.4v27.2h20.3L179 77z"></path>
        <path d="M108 95.7L78.8 66.6l28.8-28.8v11.1L90.1 66.4 108 84.3v11.4z"></path>
        <path d="M53.5 102.9V90.4l15.9-15.8-7.5-7.5 19.8-19.8 11.5-.1-19.8 19.9 8 7.9-27.9 27.9zm101.6-2.9l-33.7-33.7 29.1-29.2v12.5l-17.3 17.3L146.3 80v-9.8h-5v-7.4h13.8V100zm-32.3-33.7l31.3 31.3V63.8h-11.8v5.4h5v13.2l-15.5-15.5 17.7-17.7v-9.7l-26.7 26.8zm-68-12.7c-1.1 0-2.1-.5-2.7-1.3-.9-1.3-.9-3.2 0-5.4 1.4-3.5 4.8-6.3 7.7-6.3 1.2 0 2.2.5 2.8 1.4.9 1.3.9 3.2.1 5.3-1.4 3.5-4.8 6.3-7.7 6.3h-.2zm5-12c-2.5 0-5.5 2.5-6.7 5.7-.7 1.8-.8 3.4-.1 4.4.4.6 1.1.9 2 .9 2.5 0 5.5-2.5 6.8-5.7.7-1.8.7-3.4 0-4.4-.4-.6-1.1-.9-2-.9zm118.7 7.2h.4l1 1.8h1.1l-1.1-1.8c.6 0 1-.3 1-1.1 0-1-.6-1.3-1.7-1.3h-1.6v4.2h.9v-1.8zm0-.7v-1h.6c.3 0 .8 0 .8.5s-.2.5-.6.5h-.8zm4.6.4c0-2.5-1.8-3.9-3.9-3.9-2.1 0-3.9 1.4-3.9 3.9s1.8 3.9 3.9 3.9 3.9-1.4 3.9-3.9zm-1.1 0c0 1.8-1.3 3-2.8 3-1.5 0-2.8-1.2-2.8-3s1.2-3 2.8-3c1.5 0 2.8 1.2 2.8 3zm3.3 27.8h1.5v-1.7h-1.5v1.7zm9.9-2.2c0 .8-.2 1.3-.7 1.8-.4.4-1.1.6-1.9.6-.9 0-1.5-.3-2-.9s-.7-1.4-.7-2.4.2-1.8.7-2.4 1.2-.9 2.1-.9c.8 0 1.4.2 1.8.6.4.4.6 1 .7 1.7h-1.5c0-.4-.1-.7-.3-.9-.2-.2-.4-.3-.7-.3-.4 0-.7.2-.9.6s-.3.9-.3 1.6.1 1.2.3 1.6.5.5.9.5c.3 0 .6-.1.8-.3.2-.2.2-.5.2-1h1.5v.1zm1.8 1.6c-.5-.6-.8-1.4-.8-2.4s.3-1.8.8-2.4 1.2-.9 2.1-.9c.9 0 1.6.3 2.1.9s.7 1.4.7 2.4-.2 1.8-.7 2.4-1.2.9-2.1.9c-.9-.1-1.6-.4-2.1-.9zm3-.8c.2-.4.3-.9.3-1.6s-.1-1.3-.3-1.6c-.2-.4-.5-.5-1-.5-.4 0-.8.2-1 .6s-.3.9-.3 1.6.1 1.3.3 1.6c.2.3.5.5 1 .5.5-.1.8-.3 1-.6zm3.2-4.7h1.6v1c.1-.2.1-.3.2-.4.3-.5.8-.7 1.5-.7.5 0 1 .2 1.4.5.2.2.4.4.5.7.1-.2.1-.3.2-.4.3-.5.8-.7 1.5-.7s1.1.2 1.5.6c.3.4.5 1 .5 1.8v3.9h-1.6v-4c0-.4-.1-.7-.3-.9-.2-.2-.4-.3-.7-.3-.4 0-.6.2-.8.5s-.3.7-.3 1.3v3.5h-1.6v-4c0-.4-.1-.7-.3-.9-.2-.2-.4-.3-.7-.3-.4 0-.6.2-.8.5s-.3.7-.3 1.3v3.5h-1.6v-6.5h.1zm-44.9 6.3h6.7"></path>
    </symbol>
    <symbol xmlns="http://www.w3.org/2000/svg" viewBox="0 0 240 140" id="logo12">
        <path d="M183.8 73.6c-2.4 0-4.4 2-4.4 4.4s2 4.4 4.4 4.4 4.4-2 4.4-4.4c-.1-2.4-2-4.4-4.4-4.4zm34.5 5.5c-.6.1-1.1.1-1.6.1-1.4 0-2.3-.3-2.8-.9s-.8-1.7-.8-3.2V61.9h6.4v-2.8H213v-6.7l-3 1.9v22.4c0 .3.1.6.1.7 0 .2.1.4.1.6.3 1.2 1 2.1 2 2.8 1 .6 2.3.9 3.9.9 1.3 0 2.6-.2 3.8-.5v-2.6c-.5.3-1 .4-1.6.5zm-18.9-20.5c-2.5 0-5 .7-7.4 2v3c1.1-.7 2.2-1.3 3.4-1.7s2.5-.6 3.7-.6c1.1 0 2 .2 2.8.6.8.3 1.4.8 1.7 1.4.2.3.3.7.3 1.2.1.4.1 1.1.1 2v1.1c-1.1 0-2.1 0-3 .1-.8 0-1.7.1-2.5.2-2.6.4-4.7 1.2-6.2 2.6s-2.2 3.1-2.2 5.1c0 4.3 3.3 6.5 9.9 6.5 2 0 4.4-.3 7.1-.8V65.5c0-2.5-.7-4.3-2.1-5.4-1.2-1-3.1-1.5-5.6-1.5zm4.7 20.5c-.6.2-1.3.3-2 .3-.7.1-1.4.1-2.1.1-2.4 0-4.1-.3-5.2-.9-1-.6-1.5-1.7-1.5-3.1 0-2 .9-3.4 2.6-4.3 1.7-.9 4.5-1.3 8.3-1.3v9.2h-.1zM83.5 59c-.4-.1-.7-.1-.9-.1h-.7c-3.6 0-5.9 1.8-6.8 5.4v-5.1h-7.6v22.4h7.9v-9.4c0-2 .4-3.6 1.3-4.6.9-1.1 2.1-1.6 3.7-1.6 1.1 0 2.2.2 3.2.7l-.1-7.7zm17.3-.2c-3.6 0-5.9 1.8-6.8 5.4v-5.1h-7.6v22.4h7.9v-9.4c0-2 .4-3.6 1.3-4.6.9-1.1 2.1-1.6 3.7-1.6 1.1 0 2.2.2 3.2.7V59c-.4-.1-.7-.1-.9-.1-.3-.1-.5-.1-.8-.1zm-37.7 3.7c-1.4-2.6-4.3-3.8-8.5-3.8-1.7 0-3.4.2-5.1.6-1.7.3-3.3.8-4.7 1.4v5.2c1.4-.6 2.7-1 4.1-1.3 1.4-.3 2.8-.5 4.1-.5s2.2.2 2.8.6.9 1 .9 1.8v.7h-1c-1.9 0-3.6.2-5.1.6s-2.8.9-3.9 1.6c-1.1.7-1.9 1.5-2.5 2.6-.6 1-.9 2.1-.9 3.3 0 2.3.9 4 2.7 5.1s4.4 1.6 7.6 1.6c2 0 3.9-.1 5.7-.3 1.8-.2 3.5-.4 5-.7V68.4c0-1.6-.1-2.8-.2-3.6-.3-.9-.6-1.7-1-2.3zm-9.4 14.6c-2.1 0-3.3-1.4-3.3-2.7 0-1.6 1.5-3.3 5.4-3.3h1v5.7c-1.2.2-2 .3-3.1.3zm-25.8-5.8l6 10.2h9.5L39.3 76c-.7-1-1.3-1.8-1.8-2.4-.4-.6-.8-1.1-1.1-1.4-.3-.4-.6-.7-.9-1-.3-.3-.7-.7-1.2-1.1.4-.3.7-.6 1-.9s.6-.7 1-1.1c.3-.4.7-1 1.2-1.6.5-.7 1-1.5 1.7-2.5l3.1-4.8h-9.1L27.9 69V48.5H20v33h7.9V71.3zm77.5 10.2h7.9V59.1h-7.9zm3.9-25.1c2.4 0 4.4-2 4.4-4.4s-2-4.4-4.4-4.4-4.4 2-4.4 4.4c.1 2.4 2 4.4 4.4 4.4zm45.8 2.4c-3.6 0-5.9 1.8-6.8 5.4v-5.1h-7.6v22.4h7.9v-9.4c0-2 .4-3.6 1.3-4.6.9-1.1 2.1-1.6 3.7-1.6 1.1 0 2.2.2 3.2.7V59c-.4-.1-.7-.1-.9-.1-.3-.1-.6-.1-.8-.1zm24.7 12c.1-.5.1-1.1.1-1.8 0-1.5-.3-2.9-.8-4.2-.5-1.3-1.2-2.4-2.1-3.3-.9-.9-2-1.6-3.3-2.1s-2.7-.7-4.3-.7-3.1.3-4.4.8c-1.3.6-2.5 1.4-3.5 2.4s-1.7 2.2-2.3 3.6c-.5 1.4-.8 2.9-.8 4.5 0 1.9.4 3.6 1.1 5.3.7 1.6 1.8 3 3.1 4.1 1.2.9 2.5 1.6 3.8 2 1.4.4 3.1.6 5.1.6 2.2 0 4.3-.3 6.4-.8-.5-.9-.8-2-.8-3.1 0-.7.1-1.5.4-2.1-1.5.4-3.1.5-4.7.5-1.9 0-3.3-.3-4.4-.9-1.1-.7-1.7-1.6-1.8-2.8h12.8c.2-.9.3-1.5.4-2zm-6.8-2.1h-6.7c-.1-2 .8-4.7 3.3-4.7 3.8.1 3.5 3.9 3.4 4.7zm-38.2-7.2c-.9-.9-2-1.7-3.3-2.1-1.3-.5-2.7-.7-4.3-.7-1.6 0-3.1.3-4.4.8-1.3.6-2.5 1.4-3.5 2.4s-1.7 2.2-2.3 3.6c-.5 1.4-.8 2.9-.8 4.5 0 1.9.4 3.6 1.1 5.3.7 1.6 1.8 3 3.1 4.1 1.2.9 2.5 1.6 3.8 2 1.4.4 3.1.6 5.1.6 2.5 0 4.9-.4 7.3-1.1v-5.4c-2 .6-4 .9-6.1.9-1.9 0-3.3-.3-4.4-.9-1.1-.7-1.7-1.6-1.8-2.8h12.8c.2-.8.4-1.4.4-1.9.1-.5.1-1.1.1-1.8 0-1.5-.3-2.9-.8-4.2-.3-1.3-1-2.4-2-3.3zm-3.9 7.2h-6.7c-.1-2 .8-4.7 3.3-4.7 3.7.1 3.5 3.9 3.4 4.7z"></path>
    </symbol>
    <symbol xmlns="http://www.w3.org/2000/svg" viewBox="0 0 240 140" id="logo13">
        <path d="M27.6 85.4h1c10.8 0 19.2-9.9 19.2-20.7h-5.1c0 8.3-6.1 15-14.3 15l-.8 5.7M48.4 51c-9.7-.4-13.3 5.4-13.3 13.6h5.6c-.7-7.6 3.6-10.2 7.1-10l.6-3.6M20 51c9.7-.4 13.3 5.4 13.3 13.6h-5.6c.7-7.7-3.6-10.3-7.1-10.1L20 51m38.7 34.4V64.6h3.9v17.3h6.6v3.5H58.7m25.2-7h-9.2c0 2.8 1.4 4.2 4.1 4.2 1.4 0 2.9-.3 4.3-.9l.4 3c-1.6.7-3.6 1-5.4 1-4.7 0-7.4-2.4-7.4-7.8 0-4.7 2.5-8.1 7-8.1 4.4 0 6.3 3.1 6.3 6.8 0 .6 0 1.2-.1 1.8m-6.3-5.7c-1.6 0-2.7 1.2-2.9 3.1h5.5c.1-2-1-3.1-2.6-3.1zm20 12.7v-9.8c0-1.6-.4-2.5-1.8-2.5-2 0-3.5 2.2-3.5 4.9v7.4h-3.8V73.1c-.7-.1-1.7-.2-2.6-.3v-2.5c1.9-.2 4.2-.3 6.2-.3 0 .7-.1 1.9-.2 2.8.9-1.8 2.6-3.1 5.1-3.1 3.4 0 4.4 2.2 4.4 4.9v10.8h-3.8m7.6 0v-2.8l6-9.1c-.6 0-1.7.1-3.2.1h-2.6v-3.5h10.5v2.8l-5.9 8.9h6v3.6h-10.8m26.5-7h-9.3c0 2.8 1.4 4.2 4.1 4.2 1.4 0 2.9-.3 4.3-.9l.4 3c-1.6.7-3.6 1-5.4 1-4.7 0-7.4-2.4-7.4-7.8 0-4.7 2.5-8.1 7-8.1 4.4 0 6.3 3.1 6.3 6.8.1.6.1 1.2 0 1.8m-6.3-5.7c-1.6 0-2.7 1.2-2.9 3.1h5.5c0-2-1-3.1-2.6-3.1zm18.9 1c-2.9-.6-4.2 1.2-4.2 5.5v6.3h-3.8V73.1c-.7-.1-1.7-.2-2.6-.3v-2.5c1.9-.2 4.2-.3 6.2-.3 0 .8-.1 2-.3 3.1h.1c.7-1.9 2.2-3.6 4.8-3.4l-.2 4m12.3 11.7v-9.8c0-1.6-.4-2.5-1.9-2.5-2 0-3.4 2.2-3.4 5v7.4h-3.8V66c-.7-.1-1.7-.2-2.6-.3v-2.5c1.9-.2 4.2-.3 6.5-.3v6.6c0 .9-.1 2.2-.3 3.1.9-1.7 2.6-2.8 4.9-2.8 3.4 0 4.4 2.2 4.4 4.9v10.8l-3.8-.1m20.4-7h-9.2c0 2.8 1.4 4.2 4.1 4.2 1.4 0 2.9-.3 4.3-.9l.4 3c-1.6.7-3.6 1-5.4 1-4.7 0-7.4-2.4-7.4-7.8 0-4.7 2.5-8.1 7-8.1 4.4 0 6.3 3.1 6.3 6.8 0 .6 0 1.2-.1 1.8m-6.3-5.7c-1.6 0-2.7 1.2-2.9 3.1h5.5c.1-2-.9-3.1-2.6-3.1zm10.9 12.7V73.1c-.7-.1-1.7-.2-2.6-.3v-2.5c1.9-.2 4.2-.3 6.4-.3v15.3h-3.8m1.9-17.5c-1.3 0-2.4-1.1-2.4-2.4s1.1-2.4 2.4-2.4c1.3 0 2.4 1 2.4 2.4s-1.1 2.4-2.4 2.4zm15.4 17.7c0-.8.1-1.8.2-2.6h-.1c-.8 1.7-2.4 2.9-4.7 2.9-3.6 0-5.4-2.8-5.4-7.2 0-5.2 2.9-8.8 7.9-8.8.6 0 1.2 0 1.9.1v-4c-.7-.1-1.7-.2-2.6-.3v-2.5c1.9-.2 4.2-.3 6.4-.3v19.5c.7.1 1.7.2 2.6.3v2.5c-1.9.3-4.2.4-6.2.4m-.2-12.3c-.7-.1-1.4-.2-2-.2-2.2 0-3.7 1.4-3.7 5.2 0 2.9.8 4.3 2.6 4.3 2 0 3.2-2.4 3.2-5v-4.3h-.1zm21.2 5.2h-9.2c0 2.8 1.4 4.2 4.1 4.2 1.4 0 2.9-.3 4.3-.9l.4 3c-1.6.7-3.6 1-5.4 1-4.7 0-7.4-2.4-7.4-7.8 0-4.7 2.5-8.1 7-8.1 4.3 0 6.3 3.1 6.3 6.8 0 .6 0 1.2-.1 1.8m-6.3-5.7c-1.6 0-2.7 1.2-2.9 3.1h5.5c0-2-1-3.1-2.6-3.1z"></path>
    </symbol>
    <symbol xmlns="http://www.w3.org/2000/svg" viewBox="0 0 240 140" id="logo14">
        <path d="M87.9 80.6v-3.8h2.9c1.5 0 2.4.7 2.4 1.9s-1 1.9-2.4 1.9h-2.9zm-.6 3.7c0 .2.1.3.3.3.2 0 .3-.1.3-.3v-3.2h2.7l2.5 3.3c.1.1.1.2.2.2.2 0 .3-.1.3-.3l-.2-.1-2.4-3.1c1.4-.2 2.4-1 2.4-2.4 0-.5-.2-1.1-.7-1.5-.4-.7-1.2-.9-2.2-.9h-3.2c-.2 0-.3.1-.3.3l.3 7.7c-.1 0 0 0 0 0zm-8.3.4h5.5c.1 0 .3-.1.3-.3 0-.1-.1-.3-.3-.3h-5.3v-3.3h4.5c.1 0 .3-.1.3-.3 0-.1-.1-.3-.3-.3h-4.5v-3.3h5.1c.1 0 .3-.1.3-.3 0-.1-.1-.3-.3-.3h-5.5c-.2 0-.3.1-.3.3v7.7c.2.1.4.4.5.4zm-9.2 0h6c.1 0 .3-.1.3-.3 0-.1-.1-.2-.3-.2h-5.5l5.6-7.3.1-.2c0-.1-.1-.2-.3-.2h-5.8c-.1 0-.3.1-.3.3 0 .1.1.2.3.2h5.3l-5.7 7.3-.1.2c0-.1.2.2.4.2zm27-.4c0 .2.1.3.3.3s.3-.1.3-.3v-7l3.1 4.4.2.1.2-.1 3.1-4.4v6.9c0 .2.1.3.3.3.2 0 .3-.1.3-.3v-7.8c0-.2-.1-.3-.3-.3h-.1c-.1 0-.2.1-.3.2l-3.3 4.8-3.2-4.7c-.1-.1-.2-.2-.3-.2h-.2c-.2 0-.3.1-.3.3v7.9l.2-.1zm11.9-2.6l2.2-4.8 2.2 4.8h-4.4zm-1.9 2.6c0 .1.1.2.3.2.1 0 .2-.1.3-.2l1-2.2h4.9l1 2.1c.1.1.2.2.3.2.2 0 .3-.1.3-.3v-.2l-3.5-7.7c-.1-.2-.2-.3-.4-.3s-.3.1-.4.3l-3.5 7.7-.3.4zm11.7 0c0 .2.1.3.3.3.2 0 .3-.1.3-.3v-7.7h2.6c.1 0 .3-.1.3-.3 0-.1-.1-.3-.3-.3h-5.8c-.1 0-.3.1-.3.3 0 .1.1.3.3.3h2.6v7.7zm8.3 0c0 .2.1.3.3.3.2 0 .3-.1.3-.3v-7.7h2.6c.1 0 .3-.1.3-.3 0-.1-.1-.3-.3-.3h-5.9c-.1 0-.3.1-.3.3 0 .1.1.3.3.3h2.6v7.7h.1zm96.2 0c0 .2.1.3.3.3.2 0 .3-.1.3-.3v-7.1l5.7 7.3c.1.1.2.2.3.2.1 0 .2-.1.2-.2v-7.8c0-.2-.1-.3-.3-.3-.2 0-.3.1-.3.3v7.1l-5.6-7.1c-.1-.1-.2-.2-.3-.2h-.1c-.2 0-.3.1-.3.3l.1 7.5c-.1 0 0 0 0 0zm-8.2.4h5.5c.1 0 .3-.1.3-.3 0-.1-.1-.3-.3-.3h-5.2v-3.3h4.5c.1 0 .3-.1.3-.3 0-.1-.1-.3-.3-.3h-4.5v-3.3h5.1c.1 0 .3-.1.3-.3 0-.1-.1-.3-.3-.3h-5.5c-.2 0-.3.1-.3.3v7.7c0 .1.1.4.4.4zm-10.7-.4c0 .2.1.3.3.3.2 0 .3-.1.3-.3v-7.1l5.7 7.3c.1.1.2.2.3.2.1 0 .2-.1.2-.2v-7.8c0-.2-.1-.3-.3-.3-.2 0-.3.1-.3.3v7.1l-5.6-7.1c-.1-.1-.2-.2-.3-.2h-.1c-.2 0-.3.1-.3.3l.1 7.5c-.1 0 0 0 0 0zm-10 0c0 .2.1.3.3.3.2 0 .3-.1.3-.3v-3.6h5.3v3.6c0 .2.1.3.3.3.2 0 .3-.1.3-.3v-7.8c0-.2-.1-.3-.3-.3-.2 0-.3.1-.3.3V80h-5.3v-3.6c0-.2-.1-.3-.3-.3-.2 0-.3.1-.3.3v7.9zm-8.8-2.6l2.2-4.8 2.2 4.8h-4.4zm-1.8 2.6c0 .1.1.2.3.2.1 0 .2-.1.3-.2l1-2.2h4.9l1 2.1c.1.1.2.2.3.2.2 0 .3-.1.3-.3v-.2l-3.5-7.7c-.1-.2-.2-.3-.4-.3s-.3.1-.4.3l-3.5 7.7-.3.4zm-7.9-.3v-3.3h2.9c1.6 0 2.5.5 2.5 1.6s-.9 1.6-2.3 1.6h-3.1zm0-4v-3.3h2.9c1.3 0 2.1.7 2.1 1.5 0 1.1-.9 1.8-2.1 1.8h-2.9zm-.7 4.2c0 .2.1.3.3.3h3.3c1.8 0 3-.9 3-2.3 0-1.1-.9-1.8-1.9-2 .7-.2 1.4-.9 1.4-2 0-.5-.2-1-.5-1.3-.4-.4-1.2-.8-2.2-.8h-3.1c-.2 0-.3.1-.3.3v7.8zm-6.3.6c1.2 0 2.3-.4 3.1-1.1.1-.1.2-.2.2-.3v-2.7c0-.2-.1-.3-.3-.3h-2.9c-.1 0-.3.1-.3.3 0 .1.1.3.3.3h2.6v2.4c-.7.5-1.6 1-2.6 1-2.2 0-3.5-1.6-3.5-3.7 0-2 1.4-3.7 3.4-3.7 1.1 0 1.9.3 2.5.9l.2.1c.2 0 .3-.1.3-.3l-.1-.2c-.8-.5-1.6-.9-2.9-.9-2.5 0-4.1 2.1-4.1 4.3-.1 1.9 1.5 3.9 4.1 3.9zm-12.4-4.2v-3.8h2.9c1.5 0 2.4.7 2.4 1.9s-1 1.9-2.4 1.9h-2.9zm-.7 3.7c0 .2.1.3.3.3.2 0 .3-.1.3-.3v-3.2h2.7l2.5 3.3c.1.1.1.2.2.2.2 0 .3-.1.3-.3l-.1-.2-2.4-3.1c1.4-.2 2.4-1 2.4-2.4 0-.5-.2-1.1-.7-1.5-.5-.5-1.3-.8-2.3-.8h-3.2c-.2 0-.3.1-.3.3v7.7h.3zm-8.2.4h5.5c.1 0 .3-.1.3-.3 0-.1-.1-.3-.3-.3h-5.3v-3.3h4.5c.1 0 .3-.1.3-.3 0-.1-.1-.3-.3-.3h-4.5v-3.3h5.1c.1 0 .3-.1.3-.3 0-.1-.1-.3-.3-.3H147c-.2 0-.3.1-.3.3v7.7c.2.1.3.4.6.4zM138 84v-3.3h2.9c1.6 0 2.5.5 2.5 1.6s-.9 1.6-2.3 1.6H138zm0-4v-3.3h2.9c1.3 0 2.1.7 2.1 1.5 0 1.1-.9 1.8-2.1 1.8H138zm-.5 4.2c0 .2.1.3.3.3h3.3c1.8 0 3-.9 3-2.3 0-1.1-.9-1.8-1.9-2 .7-.2 1.4-.9 1.4-2 0-.5-.2-1-.5-1.3-.4-.4-1.2-.8-2.2-.8h-3.2c-.2 0-.3.1-.3.3v7.7h.1zm-75.3.1l.1-.2v-.5l-9-11.3c-.1-.1-.3-.2-.5-.2l-3.1.3-1.2-2.7-.3-.3-2.2-.9.4-2.3v-.3c0-.1 0-.2-.1-.3l-4-7.4-.3-.3-2.2-.9-2.8-3.3-.3-.2-4-1.2h-.1c-.2 0-.3.1-.4.2L29 56.3c-.1.1-.1.2-.1.3l-.5 4.5-2.3 1c-.2.1-.3.2-.3.4L24 69.3 15 75l-.4.3-4.6 8.5v.5h52.2m-1.7-1h-6.4L50 73.4l2.3-.2 8.2 10.1zm-13.2-13l1.3 3 4.1 10.1h-4.9L36 70.8l9-1.4 2.3.9zm-28.7 8.5l6.8 4.6h-9.9l3.1-4.6zM45 66.2l-.4 1.8-9.5-3.2 2.7-3.7 7.2 5.1zm-2.4 2.4l-7.1 1.1-.6-3.7 7.7 2.6zM35 71.4l11.2 12.1H28.5L35 71.4zm9.1-7.4l-5.5-4 1.1-2 1.8.7 2.6 5.3zm-5.5-6.6l-.8 1.6-3.8-5 2.1.5 2.5 2.9zm-6.2-3.5l4.3 5.8-7.6 1.1.5-3.8 2.8-3.1zM26.5 63l2.3-1 7.7-1.1-2.7 3.7.8 4.9-7.1 13.1-8-4.8 5.4-7.7V70l1.6-7zm-11 13.1l6.6-4.2-7.9 11.4h-2.8l4.1-7.2zm54-6.5c0 .3.1.5.4.5H72c.2 0 .4-.2.4-.3l1.3-8.9h.1l4.2 9.2c.1.1.2.2.4.2h.6c.2 0 .3-.1.4-.2l4.1-9.2h.1l1.4 8.9c0 .1.2.3.4.3h2.1c.3 0 .4-.2.4-.5l-2.7-15.8c0-.2-.1-.3-.4-.3h-.3c-.2 0-.3.1-.4.2l-5.2 11.1h-.1l-5.3-11.1c-.1-.1-.2-.2-.4-.2h-.3c-.2 0-.4.1-.4.3l-2.9 15.8zm25.4-5.1l2.3-5.2h.1l2.3 5.2h-4.7zm-5 5.6H92c.3 0 .5-.2.7-.4l1.1-2.5h7l1.1 2.5c.1.3.3.4.7.4h2.1c.3 0 .5-.3.4-.7L98 53.7c-.1-.1-.1-.2-.4-.2h-.2c-.2 0-.3.1-.4.2l-7.3 15.8c-.4.3-.2.6.2.6zm19.2-.4c0 .2.2.4.4.4h2.2c.2 0 .4-.2.4-.4V56.4h3.6c.2 0 .4-.2.4-.4v-2c0-.2-.2-.4-.4-.4h-10.2c-.2 0-.4.2-.4.4v2c0 .2.2.4.4.4h3.6v13.3zm13.5 0c0 .2.2.4.4.4h2.2c.2 0 .4-.2.4-.4V56.4h3.6c.2 0 .4-.2.4-.4v-2c0-.2-.2-.4-.4-.4H119c-.2 0-.4.2-.4.4v2c0 .2.2.4.4.4h3.6v13.3zm10 0c0 .2.2.4.4.4h9.6c.2 0 .4-.2.4-.4v-2c0-.2-.2-.4-.4-.4h-6.9v-4.1h5.8c.2 0 .4-.2.4-.4v-2c0-.2-.2-.4-.4-.4h-5.8v-4h6.9c.2 0 .4-.2.4-.4v-2c0-.2-.2-.4-.4-.4H133c-.2 0-.4.2-.4.4v15.7zm17.5-8.5v-4.8h3.8c1.2 0 2.3 1 2.3 2.3 0 1.3-1.1 2.4-2.3 2.4l-3.8.1zm-3.1 8.5c0 .2.2.4.4.4h2.2c.2 0 .4-.2.4-.4v-6h2.6l3.1 6.3c0 .1.1.2.3.2h2.4c.4 0 .5-.3.4-.7l-3.2-5.9c2.1-.8 3.5-2.6 3.5-4.7 0-2.7-2.3-5.1-5.2-5.1h-6.7c-.2 0-.4.2-.4.4v15.5zm16 0c0 .2.2.4.4.4h2.2c.2 0 .4-.2.4-.4v-6.5h7.7v6.5c0 .2.2.4.4.4h2.2c.2 0 .4-.2.4-.4V54.2c0-.2-.2-.4-.4-.4h-2.2c-.2 0-.4.2-.4.4v6.3H166v-6.3c0-.2-.2-.4-.4-.4h-2.2c-.2 0-.4.2-.4.4v15.5zm20-7.7c0-3 2.4-5.5 5.5-5.5 3 0 5.5 2.4 5.5 5.5 0 3-2.4 5.5-5.5 5.5-3.1-.1-5.5-2.6-5.5-5.5zm-3 0c0 4.7 3.7 8.5 8.5 8.5 4.7 0 8.5-3.7 8.5-8.5s-3.7-8.5-8.5-8.5c-4.8-.1-8.5 3.8-8.5 8.5zm23-.8v-4.8h3.8c1.2 0 2.3 1 2.3 2.3 0 1.3-1.1 2.4-2.3 2.4l-3.8.1zm-3 8.5c0 .2.2.4.4.4h2.2c.2 0 .4-.2.4-.4v-6h2.6l3.1 6.3c0 .1.1.2.3.2h2.4c.4 0 .5-.3.4-.7l-3.2-5.9c2.1-.8 3.5-2.6 3.5-4.7 0-2.7-2.3-5.1-5.2-5.1h-6.7c-.2 0-.4.2-.4.4l.2 15.5zm16.2 0c0 .2.2.4.4.4h2.1c.2 0 .4-.2.4-.4V59.6l9.9 10.8h.5c.2 0 .4-.2.4-.4V54.2c0-.2-.2-.4-.4-.4h-2.2c-.2 0-.4.2-.4.4V64L217 53.7h-.5c-.2 0-.4.2-.4.4l.1 15.6c-.1 0 0 0 0 0z"></path>
    </symbol>
    <symbol xmlns="http://www.w3.org/2000/svg" viewBox="0 0 240 140" id="logo15">
        <path d="M42.6 49h154.7c6.2 0 11.8 2.3 15.9 6.1s6.7 9.1 6.7 14.8c0 5.8-2.6 11-6.7 14.8-4.1 3.8-9.7 6.1-15.9 6.1H42.6c-6.2 0-11.8-2.3-15.9-6.1C22.6 81.1 20 75.8 20 70c0-5.8 2.6-11 6.7-14.8S36.4 49 42.6 49zm154.8 3.1H42.6c-5.4 0-10.3 2-13.8 5.3-3.5 3.2-5.7 7.7-5.7 12.6 0 4.9 2.2 9.3 5.7 12.6 3.6 3.3 8.5 5.3 13.9 5.3h154.7c5.4 0 10.3-2 13.8-5.3 3.5-3.2 5.7-7.7 5.7-12.6 0-4.9-2.2-9.3-5.7-12.6-3.5-3.3-8.4-5.3-13.8-5.3z"></path>
        <path d="M121.4 64.5l9.5 17.9h6.1V58h-4.7v18.2L123 58h-6.4v24.4h4.8zm-12.5 17.7h4V57.8h-4zM40.4 69.3v-7.2h6.1c.7 0 1.3.1 1.6.2 1 .4 1.5 1.6 1.5 3.2 0 1.4-.3 2.5-.9 3.1-.5.5-1.2.7-2.3.7h-2.9L41 73.6h6.5c2.4 0 3.5-.4 4.7-1.6 1.4-1.4 2.3-3.8 2.3-6.3 0-2.2-.7-4.2-1.9-5.7-1.4-1.8-2.7-2.2-6.3-2.2H36v24.3h4.4V69.3zm23.9-5.7l4.1 9.7H62l2.4 3.9h4.7l2 4.9h6l-9.9-24.3h-5.9l-9.9 24.3h6zm12.9-6v13.6c0 2.5.2 4.5.5 5.6.7 2.3 2.2 4 4.4 4.7 1.1.3 1.7.4 4.7.4h.7v-4.3h-.2c-2.8 0-3.7-.2-4.6-1.1-.8-.8-.9-1.1-1-5.3V57.6h-4.5zm29.6 10.2h-8.6L95.7 71h11.1v-3.2zm-12.4-1.4c0-1.8.6-3.1 1.7-3.7.7-.4 2.3-.6 4.1-.6h6.6v-4.3h-7.2c-2.1 0-2.7.1-3.9.4-2.4.6-4.1 2.1-5 4.3-.5 1.3-.8 3.8-.8 6.9v12.7h4.4c.1-5.2.1-10.4.1-15.7zm55.2 5.3v.3h7.2v5.8h-4.6c-2.3 0-3.9-.5-4.8-1.5-1.1-1.2-1.7-3.7-1.7-6.7 0-5.3 1.8-7.4 6.4-7.4h9.7v-4.3h-10.3c-3.4 0-5.9.7-7.7 2.1-2.4 2-3.8 5.5-3.8 10.2 0 4.7 1.3 8.2 3.8 10.2 1.8 1.4 3.7 1.9 7.4 1.9h10.5v-14h-9.4l-2.7 3.4zm31.8-13.9h-8c-3 0-4.5.5-6.1 2-2.5 2.3-3.8 5.7-3.8 10 0 4.1 1 7.4 2.9 9.6 1.8 2 4 2.7 8.7 2.7h6.2v-4.3h-6c-4.5 0-6.2-1.4-6.5-5.6v-4.3c.2-2.4.3-3 1-3.9 1-1.4 2.2-1.8 5.4-1.8h6.2v-4.4zM170.3 72h11.2v-3.9H173l-2.7 3.9zm19.1-3.4v-6.4h6.2c.7 0 1.3.1 1.7.2 1 .4 1.5 1.4 1.5 2.9 0 2.4-.9 3.4-3.2 3.4h-3l-2.5 3.2h2.8c3.9 0 5.3 1.3 5.6 5.8 0 .5.1 1.5.2 2.2.1.5.1 1.9.2 2.4h5c-.3-.9-.4-2.5-.5-4.8-.2-3.8-1.3-6-3.8-6.7 2.7-1.1 4-2.3 4-6 0-2.2-.8-4.2-2.3-5.4-1.2-1-3.1-1.4-6.2-1.4H185v24.3h4.4V68.6z"></path>
    </symbol>
    <symbol xmlns="http://www.w3.org/2000/svg" viewBox="0 0 240 140" id="logo16">
        <path d="M203.3 41.5l-4.7 10.2 4.7 2.4 4.8-2.4zm-15.6 11.6l8.1 7.7 3.7-3.9-.9-5.2z"></path>
        <path d="M207.2 56.9l3.7 3.9 8.2-7.7-11-1.4zm-13.6 15l9.7-5.4-2.4-4.7-5.1-1zm19.5 0l-2.2-11.1-5.2 1-2.4 4.7zm-50 7.7c1 1 2.3 2.1 3.9 2.7 1.6.8 3.3 1.2 5.3 1.2 2.1 0 3.7-.3 4.7-1.3 1-.9 1.5-2 1.5-3.2 0-.9-.2-1.6-.9-2.2-.7-.5-1.3-1-2.2-1.3-.9-.2-2.2-.7-3.7-1.2-2.2-.5-3.9-1-5.3-1.5-1.3-.5-2.4-1.3-3.5-2.3-.9-1-1.4-2.4-1.4-4.3 0-1.5.5-2.8 1.4-4.1.9-1.3 2.2-2.2 3.7-3 1.5-.7 3.3-1 5.4-1 4.4 0 8 1.3 10.7 3.9l-2.4 3.5c-1-1-2.3-2-3.8-2.4-1.5-.7-3.1-.9-4.6-.9-1.5 0-3 .3-3.9 1.2-1 .8-1.5 1.6-1.5 2.8 0 1 .5 1.8 1.5 2.3s2.7 1 4.8 1.6c2.2.5 3.9 1 5.4 1.5 1.4.5 2.5 1.4 3.6 2.5 1 1.2 1.5 2.7 1.5 4.6 0 2.5-1 4.6-3 6.2-2 1.5-4.7 2.3-8.4 2.3-2.4 0-4.6-.3-6.7-1.2s-3.6-1.8-4.8-3.2l2.7-3.2zm-5 7.3h-5.4l-2.4-5.6h-13.7l-2.3 5.6h-5.4L140.7 59h5.6l11.8 27.9zM138 77.4h11l-5.4-13.6-5.6 13.6zm-31.4-18.5h12.7c2 0 3.7.3 5.1 1.2s2.4 1.8 3.2 3.2c.8 1.3 1.2 2.8 1.2 4.4s-.3 3.1-1 4.5c-.8 1.3-1.8 2.4-3.2 3.2-1.4.8-3.1 1.2-5.1 1.2h-8V87h-4.8V58.9zm15.9 5.4c-.9-.9-2.1-1.3-3.7-1.3h-7.4v9.2h7.4c1.5 0 2.8-.3 3.7-1.3.9-.9 1.3-2.1 1.3-3.3 0-1.2-.3-2.4-1.3-3.3zm-43.9-5.4h12.7c2 0 3.7.3 5.1 1.2 1.4.8 2.4 1.8 3.2 3.2.8 1.3 1.2 2.8 1.2 4.4s-.3 3.1-1 4.5c-.8 1.3-1.8 2.4-3.2 3.2-1.4.8-3.1 1.2-5.1 1.2h-8V87h-4.7V58.9h-.2zm15.9 5.4c-.9-.9-2.1-1.3-3.7-1.3h-7.4v9.2h7.4c1.5 0 2.8-.3 3.7-1.3.9-.9 1.3-2.1 1.3-3.3s-.5-2.4-1.3-3.3zM73.8 86.9h-5.4l-2.3-5.8H52.3L50 86.8h-5.4l11.8-27.9h5.8l11.6 28zm-20.2-9.5h11.1l-5.4-13.6-5.7 13.6zM20.9 53h14.3c2.3 0 4.3.5 5.9 1.4 1.6.9 3 2.2 3.7 3.8.9 1.5 1.3 3.3 1.3 5.3s-.3 3.6-1.3 5.3c-.8 1.5-2.1 2.8-3.6 3.8-1.6.9-3.6 1.4-5.8 1.4h-9.3v13h-5.2V53zm18.2 5.9c-1.2-1.2-2.7-1.8-4.5-1.8h-8.5v12.6h8.5c1.8 0 3.3-.7 4.5-1.8s1.8-2.7 1.8-4.6c-.1-1.8-.7-3.3-1.8-4.4z"></path>
    </symbol>
    <symbol xmlns="http://www.w3.org/2000/svg" viewBox="0 0 240 140" id="logo17">
        <path d="M219.6 65.6l-4.7 4.3 4.6 4.4c.5.5.6 1.2.2 1.6-.4.4-1.1.4-1.6-.1l-3.7-3.4c-.3-.3-.6-.5-1.1-.5-.4 0-.7.2-1 .4l-.1.1-3.7 3.3c-.5.4-1.2.5-1.6.1-.4-.4-.3-1.1.2-1.6l4.7-4.3-4.7-4.3c-.5-.5-.6-1.2-.2-1.6.4-.4 1.1-.4 1.6.1l3.9 3.5c.3.2.5.4 1 .4.4 0 .6-.1.8-.3l4-3.6c.5-.5 1.2-.5 1.6-.1.4.4.3 1.1-.2 1.6zm-19.1 10.5h-8.1c-2.1 0-3.7-1.6-3.7-3.6v-4.8c0-2 1.6-3.6 3.7-3.6h8.1c2.1 0 3.7 1.6 3.7 3.6v4.8c0 2-1.7 3.6-3.7 3.6zm1.5-8c0-1-.8-1.8-1.9-1.8h-7.4c-1 0-1.9.8-1.9 1.8v4.2c0 1 .8 1.8 1.9 1.8h7.4c1 0 1.9-.8 1.9-1.8v-4.2zm-21.8 7.3l-.2.2c-.2.2-.5.4-.8.4-.3 0-.6-.1-.8-.3l-.3-.3L171 66c-.4-.5-.3-1.3.2-1.6.5-.3 1.2-.1 1.6.4l4.8 6.2c.5.5.9 1.4 1.7 1.4.7 0 1.2-.9 1.6-1.4l4.6-6.2c.4-.5 1.1-.7 1.6-.4s.6 1 .2 1.6l-7.1 9.4zm-14.5.7h-8.1c-2.1 0-3.7-1.6-3.7-3.6v-4.8c0-2 1.7-3.6 3.7-3.6h8.1c2.1 0 3.7 1.6 3.7 3.6v4.8c0 2-1.7 3.6-3.7 3.6zm1.5-8c0-1-.8-1.8-1.9-1.8h-7.4c-1 0-1.9.8-1.9 1.8v4.2c0 1 .8 1.8 1.9 1.8h7.4c1 0 1.9-.8 1.9-1.8v-4.2zm-16.1-1.9h-4.4c-.6 0-1 .5-1 1v7.7c0 .7-.5 1.2-1.1 1.2-.6 0-1.1-.5-1.1-1.2v-7.7c0-.5-.4-1-1-1h-4.4c-.7 0-1.2-.5-1.2-1s.5-1 1.2-1h13c.7 0 1.2.5 1.2 1 0 .6-.6 1-1.2 1zm-18.8 5.7h-.2l2.5 2.3c.5.5.6 1.2.2 1.6-.4.4-1.1.4-1.6-.1l-4.2-3.8h-4.9c-.6 0-1.1.5-1.1 1v1.9c0 .7-.5 1.2-1.1 1.2-.6 0-1.1-.5-1.1-1.2v-9.6c0-.7.5-1.2 1.1-1.2h9.5c2.1 0 3.7 1.6 3.7 3.6v.6c0 .7-.2 1.5-.6 2.1-.5.8-1.2 1.6-2.2 1.6zm-1.2-5.6h-6.8c-.7 0-1.2.5-1.2 1.2v1.2c0 .7.6 1.2 1.2 1.2h6.8c1 0 1.9-.8 1.9-1.8s-.8-1.8-1.9-1.8zm-16.3 9.8h-8.1c-2.1 0-3.7-1.6-3.7-3.6v-4.8c-.1-2 1.6-3.6 3.7-3.6h8.1c2.1 0 3.7 1.6 3.7 3.6v4.8c0 2-1.7 3.6-3.7 3.6zm1.5-8c0-1-.8-1.8-1.9-1.8H107c-1 0-1.9.8-1.9 1.8v4.2c0 1 .8 1.8 1.9 1.8h7.4c1 0 1.9-.8 1.9-1.8v-4.2zM86 50.2h2.1v39.6H86V50.2zM58.8 89.6H32.3c-6.8 0-12.3-5.2-12.3-11.8V53.1c0-1.5 1.1-2.8 2.5-2.8h36.3c6.8 0 12.3 5.3 12.3 11.8v15.8c0 6.4-5.5 11.7-12.3 11.7zM43.8 55H27.7c-1.6 0-2.9 1.2-2.9 2.8v3c0 1.5 1.3 2.8 2.9 2.8h16.1c2.4 0 4.3-1.9 4.3-4.2S46.2 55 43.8 55zm22.6 7.5c0-4.1-3.5-7.5-7.8-7.5h-6.4c.5 1.1.8 2.3.8 3.6V60c0 4.1-3.1 8.3-6.8 8.3 2.7 2.5 5.8 5.3 5.8 5.3 1.2 1.1 1.3 2.7.4 3.7-1 1-2.7.9-3.8-.1l-9.7-8.9H27.3c-1.4 0-2.5 1.1-2.5 2.4v6.9c0 4.1 3.5 7.5 7.8 7.5h26c4.3 0 7.8-3.4 7.8-7.5V62.5z"></path>
    </symbol>
    <symbol xmlns="http://www.w3.org/2000/svg" viewBox="0 0 240 140" id="logo18">
        <path d="M165.6 109.9s-1 .9-1.7.7c-.8-.2-.8-.7-.8-1.1 0-.9.7-1.7 1.5-2.1.4-.2.6-.3 1-.4v2.9zm42.4 8H32L120 22l88 95.9zm-18.3-15.7c-.2 0-.3.3-.5.3-1-.3-2.2-.5-3.1 0-.9.4-1.4 1.3-1.5 2.3-.1 1.3.4 2.1 1.3 2.8.8.6 2.8 1.6 3 2.5.1.5-.1.8-.4 1.1-.3.2-.8.3-1.3.1-1.2-.4-1.5-1.7-1.8-2.7h-.8v3.8c.2.1.3.1.6.1.1-.1.3-.3.5-.3.7.1 1.4.4 2.2.3 1.3-.1 2.4-1 2.8-2.3.3-1.1 0-2.3-.7-2.9-1-.8-2.2-1.4-3.3-2.1-.3-.2-.4-.6-.4-.9 0-.4.1-.6.4-.8.3-.2.7-.3 1.1-.3 1.2.2 1.3 1.5 1.8 2.5h.7v-3.6l-.6.1zm-9.5 2c.2 0 .3.2.3.4v5.7s0 .4-.1.6c-.2.3-.7.4-1.1.4v1h4.6v-1c-.3 0-.6 0-1-.2-.2-.1-.3-.4-.3-.8v-8h-.8l-2.7 1.2.3.9c.2-.1.5-.2.8-.2zm1.3-6.6c-.7 0-1.3.6-1.3 1.3 0 .7.6 1.3 1.3 1.3.7 0 1.3-.6 1.3-1.3 0-.7-.6-1.3-1.3-1.3zm-5-.2l-2.6 1.2.3.9c.3 0 1.1-.3 1.1.3v2.9s-.6-.2-1-.3c-.2-.1-.9-.1-1.5 0-1.1.2-1.7.9-2.3 1.8-.4.5-.9 2-1 3.2-.1 1.7.2 2.8.9 3.7.7 1 1.7 1.4 2.1 1.5.5.1 1.4.1 2-.3.3-.2.6-.4.8-.5l.2.9.1.1 3.2-1.4-.3-.7c-.2.1-.5.2-.7.2-.3 0-.3-.3-.4-.4v-13h-.9zm-46 14.9c.7.1 1.4.4 2.2.3 1.3-.1 2.4-1 2.8-2.3.3-1.1 0-2.3-.7-2.9-1-.8-2.2-1.4-3.3-2.1-.3-.2-.4-.6-.4-.9 0-.4.1-.6.4-.8.3-.2.7-.3 1.1-.3 1.2.2 1.3 1.5 1.8 2.5h.7v-3.6h-.5c-.2 0-.3.3-.5.3-1-.3-2.2-.5-3.1 0-.9.4-1.4 1.3-1.5 2.3-.1 1.3.4 2.1 1.3 2.8.8.6 2.8 1.6 3 2.5.1.5-.1.8-.4 1.1-.3.2-.8.3-1.3.1-1.2-.4-1.5-1.7-1.8-2.7h-.8v3.8c.1.1.3.1.6.1-.1-.1.1-.2.4-.2zm-29-.1c.7.1 1.4.4 2.2.3 1.3-.1 2.4-1 2.8-2.3.2-1.1 0-2.3-.7-2.9-1-.8-2.2-1.4-3.3-2.1-.3-.2-.4-.6-.4-.9 0-.4.1-.6.4-.8.3-.2.7-.3 1.1-.3 1.2.2 1.3 1.5 1.8 2.5h.7v-3.6h-.5c-.2 0-.3.3-.5.3-1-.3-2.2-.5-3.1 0-.9.4-1.4 1.3-1.5 2.3-.1 1.3.4 2.1 1.3 2.8.8.6 2.8 1.6 3 2.5.1.5-.1.8-.4 1.1-.3.2-.8.3-1.3.1-1.2-.4-1.5-1.7-1.8-2.7h-.8v3.8c.2.1.3.1.6.1 0 0 .2-.2.4-.2zm-12.2-1.7v-4.9c0-.6 0-1.2-.2-1.7 0-.1-.1-.4-.3-.6-.3-.3-.9-1-2.8-1-1.3 0-2.1.7-2.4.9-.5.5-.8 1.3-.6 2.2.1.3.3.5.6.6.3.1.8 0 1-.2.8-.6-.1-1.9.9-2.3.3-.1.6-.1.9 0 .5.2.7.8.8 1.4 0 .3.1.6-.1.9-1.2.6-2.2 1.1-3.2 1.7-.6.5-1.1 1-1.3 1.7-.1.6-.1 1.1 0 1.7.4 1.9 2.8 1.8 4 1 .2-.1.4-.3.6-.4.1.5.3 1 .9 1.1 1.2.3 2-.9 2.6-1.7v-1.1s-.8.6-1.1.9c-.1 0-.3-.1-.3-.2zm-12.9-7.9c-.3-.2-.6-.4-1-.4-.9 0-1.3.8-1.9 1.2-.1-.3 0-.8-.1-1.1l-.7-.1-2.7 1.2c-.1.3.1.6.1.9.3 0 .6-.1.9-.2.2.1.4.2.4.4v5.8c0 .3-.1.5-.2.6-.2.4-1.2.5-1.2.5v1h4.8v-1c-.4-.1-.7-.2-.9-.3-.3-.1-.5-.4-.5-.8v-4.5c0-.4.3-1 .5-1.3.2-.1.2-.4.5-.3.2.2.6.4.9.6.4 0 .6.1.9-.1.4-.2.5-.6.5-1h1.2v6.3c0 .3-.1.6-.4.9s-1 .5-1.2.4v1h5.5v-1c-.7 0-1.1-.2-1.1-.2-.7-.2-.7-.7-.7-1v-6.4h2.1v-1.3H80c0-.8-.1-1.8 0-2.6.1-.4.1-.9.5-1.1 1.4-.5 1.3 1.7 2.7 1.8.2 0 .5-.1.7-.3.3-.4.4-.9.3-1.4-.1-.4-.5-.6-.8-.8-.9-.6-2.3-.8-3.3-.3-1.1.6-1.8 1.6-2 2.7-.1.6-.1 1.4-.2 2l-.1.1-1.4.1zm-12.6.5c-.3.3-.6.6-.8 1-1 1.6-1.2 4.6-.2 6.4.8 1.4 2 2.3 3.9 2 1.9-.3 3.1-3.4 3-4l-.7-.4c-.6 1.2-.9 2.3-2.8 2-2.3-.3-2.1-3.7-2.1-3.7h5.7c0-.2 0-1.2-.3-2.1-.3-.7-.7-1.3-1.4-1.7-.3-.2-.6-.3-.9-.4-1.3-.2-2.6.2-3.4.9zm45.9 3.5c0 .8.5 1.5 1 1.5.6 0 1-.6 1-1.5 0-.8-.5-1.4-1-1.4-.6 0-1 .6-1 1.4zm15.1-2.4c.2 0 .3.2.3.4v5.7s0 .4-.1.6c-.2.3-.7.4-1.1.4v1h4.6v-1c-.3 0-.6 0-1-.2-.2-.1-.3-.4-.3-.8v-8h-.8l-2.7 1.2.3.9c.3-.1.5-.2.8-.2zm15.2 8.4c1.3-.1 2.4-1 2.8-2.3.2-1.1 0-2.3-.7-2.9-1-.8-2.2-1.4-3.3-2.1-.3-.2-.4-.6-.4-.9 0-.4.1-.6.4-.8.3-.2.7-.3 1.1-.3 1.2.2 1.3 1.5 1.8 2.5h.7v-3.6h-.5c-.2 0-.3.3-.5.3-1-.3-2.2-.5-3.1 0-.9.4-1.4 1.3-1.5 2.3-.1 1.3.4 2.1 1.3 2.8.8.6 2.8 1.6 3 2.5.1.5-.1.8-.4 1.1-.3.2-.8.3-1.3.1-1.2-.4-1.5-1.7-1.8-2.7h-.8v3.8c.2.1.3.1.6.1.1-.1.3-.3.5-.3.6.2 1.3.5 2.1.4zm6-6c0 .8.5 1.5 1 1.5.6 0 1-.6 1-1.5 0-.8-.5-1.4-1-1.4-.6 0-1 .6-1 1.4zm19.7 4.7c.1.5.3 1 .9 1.1 1.2.3 2-.9 2.6-1.7v-1.1s-.8.6-1.1.9c-.1.1-.3 0-.3-.1v-4.9c-.1-.6 0-1.2-.2-1.7 0-.1-.1-.4-.3-.6-.3-.3-.9-1-2.8-1-1.3 0-2.1.7-2.4.9-.5.5-.8 1.3-.6 2.2.1.3.3.5.6.6.3.1.8 0 1-.2.8-.6-.1-1.9.9-2.3.3-.1.6-.1.9 0 .5.2.7.8.8 1.4 0 .3.1.6-.1.9-1.2.6-2.2 1.1-3.2 1.7-.6.5-1.1 1-1.3 1.7-.1.6-.1 1.1 0 1.7.4 1.9 2.8 1.8 4 1 .2-.2.4-.4.6-.5zM67.1 90.7L120 61.8l53 28.9-52.9-60.2-53 60.2zm70.3-5.1c-1.4-.4-1.8-1.3-2.2-1.6.1.4.7 1.9 1.7 2.3 1 .3 2.1 0 3.2-1.1-.5.3-1.7.8-2.7.4zm4.4.1s1.4.3 1.8.3c.7.1 2.7-.1 2.7-.1s-2-.3-2.6-.4c-.6-.1-1.6-.6-1.6-.6l-.3.8zm-28.6.8c-.7.6-2.3 2.1-2.3 2.1s2.1-1.2 2.4-1.5c.3-.3 1.7-.7 1.7-.7l-.3-.8c-.1-.1-1.2.6-1.5.9zm-4.9-.6s-2-.3-2.6-.4c-.6-.1-1.6-.6-1.6-.6l-.3.8s1.4.3 1.8.3c.7.1 2.7-.1 2.7-.1zm23.9.6c-.7.6-2.3 2.1-2.3 2.1s2.1-1.2 2.4-1.5c.3-.3 1.7-.7 1.7-.7l-.3-.8c-.1-.1-1.2.6-1.5.9zm-5-.6s-2-.3-2.6-.4c-.6-.1-1.6-.6-1.6-.6l-.3.8s1.4.3 1.8.3c.8.1 2.7-.1 2.7-.1zm-11-1.8c.1.4.7 1.9 1.7 2.3 1 .3 2.1 0 3.2-1.1-.5.3-1.8.8-2.7.4-1.4-.5-1.8-1.3-2.2-1.6zm-19 0c.1.4.7 1.9 1.7 2.3 1 .3 2.1 0 3.2-1.1-.5.3-1.8.8-2.7.4-1.4-.5-1.8-1.3-2.2-1.6zm-1.6 1.4s-1.1.7-1.4.9c-.7.6-2.3 2.1-2.3 2.1s2.1-1.2 2.4-1.5c.3-.3 1.7-.7 1.7-.7l-.4-.8zm7.1 1.6l-.7.5s.6.7 1.1 1.1c.6.4 2.2 1.3 2.2 1.3l-1.7-1.7c-.4-.3-.9-1.2-.9-1.2zm11.6 4.7s1.1-1.8 1.3-2.1c.2-.5 1-1.6 1-1.6l-.7-.4s-.7 1.3-.9 1.6c-.2.6-.7 2.5-.7 2.5zm7.8-3c.6.4 2.2 1.3 2.2 1.3l-1.7-1.7c-.4-.4-.9-1.2-.9-1.2l-.7.5s.6.7 1.1 1.1zm11.2 3s1.1-1.8 1.3-2.1c.2-.5 1-1.6 1-1.6l-.7-.4s-.7 1.3-.9 1.6c-.2.6-.7 2.5-.7 2.5zm7.7-3c.6.4 2.2 1.3 2.2 1.3l-1.7-1.7c-.4-.4-.9-1.2-.9-1.2l-.7.5c.1 0 .7.7 1.1 1.1zm-20.9-6.1c0 .3.1.5.4.5.2 0 .4-.2.5-.5 0-.3-.1-.5-.4-.5-.3.1-.5.3-.5.5zm-1.7-.7c0-.2-.1-.4-.4-.4s-.4.2-.4.4.1.4.4.4.4-.2.4-.4zm5 1.2s1.4-.6 1.8-.7c.7-.2 2-1.3 2-1.3s-1.8.6-2.3.8c-.4.1-1.5.3-1.5.3v.9zm1.3-6.1s-1.2 1.5-1.5 1.9c-.3.5-1.2 1.2-1.2 1.2l.6.7s.8-1.3 1-1.6c.5-.7 1.1-2.2 1.1-2.2zm11.2 1.2c.3.7.5 1.5.5 1.5l1-.4s-.8-1-1-1.3c-.5-.8-1.4-1.8-1.4-1.8s.6 1.3.9 2zm-30.2-1.2s-1.2 1.5-1.5 1.9c-.3.5-1.2 1.2-1.2 1.2l.6.7s.8-1.3 1-1.6c.5-.7 1.1-2.2 1.1-2.2zm11.2 1.2c.3.7.5 1.5.5 1.5l1-.4s-.8-1-1-1.3c-.5-.8-1.4-1.8-1.4-1.8s.7 1.3.9 2zm-1.4 3.2l.7-.8-1.5-.5c-.5-.2-2.6-.8-2.6-.8s1.9.9 2.2 1.1c.5.3 1.2 1 1.2 1zm21.1.5c0 .2.1.4.4.4.2 0 .4-.2.4-.4s-.1-.4-.4-.4c-.2 0-.4.2-.4.4zm2.5.7c0 .3.1.5.4.5.2 0 .4-.2.5-.5 0-.3-.1-.5-.4-.5-.3.1-.5.3-.5.5zm3.3.5s1.4-.6 1.8-.7c.7-.2 2-1.3 2-1.3s-1.8.6-2.3.8c-.4.1-1.5.3-1.5.3v.9zm-7.2-2.5l-1.5-.5c-.5-.2-2.6-.8-2.6-.8s1.9.9 2.2 1.1c.5.3 1.3 1 1.3 1l.6-.8zm6.5.1s.8-1.3 1-1.6c.4-.7 1.1-2.2 1.1-2.2s-1.2 1.5-1.5 1.9c-.3.5-1.2 1.2-1.2 1.2l.6.7zm-2.3-5.4s-.2 1.8-.2 2.3c0 .4-.3 1.5-.3 1.5l1 .2s-.1-1.4-.1-1.8c0-.5-.4-2.2-.4-2.2zm-19 0s-.2 1.8-.2 2.3c0 .4-.3 1.5-.3 1.5l1 .2s-.1-1.4-.1-1.8c0-.5-.4-2.2-.4-2.2zm-19 0s-.2 1.8-.2 2.3c0 .4-.3 1.5-.3 1.5l1 .2s-.1-1.4-.1-1.8c0-.5-.4-2.2-.4-2.2zm-4.4 1s.6 1.3.9 1.9c.3.7.5 1.5.5 1.5l1-.4s-.8-1-1-1.3c-.5-.7-1.4-1.7-1.4-1.7zm-3.9 3s1.9.9 2.2 1.1c.5.3 1.3 1 1.3 1l.7-.8-1.5-.5c-.6-.3-2.7-.8-2.7-.8zm12.7 2.6c-.4.1-1.5.3-1.5.3v.9s1.4-.6 1.8-.7c.7-.2 2-1.3 2-1.3s-1.8.6-2.3.8zm-6.7-.4c-.2 0-.4.2-.4.4s.1.4.4.4c.2 0 .4-.2.4-.4s-.2-.4-.4-.4zm2 1.1c0 .3.1.5.4.5.2 0 .4-.2.5-.5 0-.3-.1-.5-.4-.5-.3.1-.5.3-.5.5zm-5.2.3s-1.4.1-1.8.2c-1.2 0-2.8.3-2.8.3s2.2.2 2.6.2c.7 0 1.6.4 1.6.4l.4-1.1zm18.7 1l.3-1.1s-1.4.1-1.8.2c-1.2 0-2.8.3-2.8.3s2.2.2 2.6.2c.7 0 1.7.4 1.7.4zm19 0l.3-1.1s-1.4.1-1.8.2c-1.2 0-2.8.3-2.8.3s2.2.2 2.6.2c.7 0 1.7.4 1.7.4zm-38.3 7.8s1.1-1.8 1.3-2.1c.2-.5 1-1.6 1-1.6l-.7-.4s-.7 1.3-.9 1.6c-.2.6-.7 2.5-.7 2.5zm5.2.4s-.2-1.7-.2-2.2c-.1-.7.2-1.7.2-1.7l-1.1.1s.2 1.3.2 1.6c.1.6.9 2.2.9 2.2zm19 0s-.2-1.7-.2-2.2c-.1-.7.2-1.7.2-1.7l-1.1.1s.2 1.3.2 1.6c.1.6.9 2.2.9 2.2zm19 0s-.2-1.7-.2-2.2c-.1-.7.2-1.7.2-1.7l-1.1.1s.2 1.3.2 1.6c.1.6.9 2.2.9 2.2zM150 97v1c.2.1.8.1 1.2.3.4.2.3.7.3 1v11s-.1.5-.3.8c-.3.2-.8.3-1.2.4v1h10l.1-.1 1-4.5s-.7 0-1.1.1c-.4.8-.7 1.7-1.3 2.3-.5.5-1.4.6-1.9.6-.7.1-2.2.1-2.2.1-.5 0-.6-.4-.6-.7V99.2s-.1-.5.5-.7c.4-.1.7-.2 1.1-.2v-1l-.1-.1h-5c-.2-.2-.4-.3-.5-.2zm-22.5 1.9c0-.7-.6-1.3-1.3-1.3-.7 0-1.3.6-1.3 1.3 0 .7.6 1.3 1.3 1.3.7 0 1.3-.6 1.3-1.3zM114.3 97v1.1s.6 0 .9.1c.5.2.5.3.5.6v10.9c0 .5-.1.8-.4 1.1-.3.3-.7.4-1.2.5v1h5.7v-1s-.4 0-1-.3-.5-1-.5-1.3v-4.6h3c.5 0 .8 2 .8 2h1v-5.8h-.9c-.2.6-.5 2-.9 2h-2.9v-4.8h3.3c.7 0 .9.2 1.1.6.4.5.4 1.6.4 1.6h1.2V97l-.1-.1h-10zm-61.4 15.7h.7c.2-.2.2-.6.4-.7.7.2 1.3.5 2.1.6 1.3.2 2.6-.1 3.5-.7.6-.4 1.6-1.5 1.7-2.8.1-.6 0-1-.1-1.6-.5-2.5-3.4-3.6-5.2-5.1-.2-.2-.8-.7-1-1.3-.2-.6 0-1.5.2-1.6.2-.3.5-.6.9-.7 1-.1 2 .3 2.7 1.1.7.8.9 1.7 1.2 2.6h.8l-.4-5.2-.8.1c-.1 0-.2.6-.4.7-.5.1-.9-.2-1.5-.4-1.1-.5-2.9-.2-3.6.5-.4.4-1.3 1-1.5 2.3-.2 1.3.1 2.1.2 2.2.3 1.4 2 2.4 3 3.1.9.7 1.7 1.1 2.5 2 .4.6.5 1.5.4 2.2-.2.7-.8 1.3-1.5 1.5-.8.1-1.5-.1-2.1-.5-1.1-.8-1.6-2.2-2.1-3.3l-.9-.1-.1.1c.5 1.6.7 3.3.9 5zm44.3-.1c.9-.5 1.9-.9 2.8-1.4l-.3-.8s-.5.2-.8.2c-.3-.1-.3-.4-.3-.7v-7.4l-.1-.1h-3.2v.9l.9.1c.4.1.4.4.4.7v5.4c-.3.4-.7.8-1 1-.3.2-.9.2-1.2.2-.5-.2-.6-.7-.6-1.2v-6.9l-.1-.1h-3.4v.9c.3 0 .8 0 1.1.1.2.1.3.3.3.6v5.5c0 .7.1 1.1.3 1.6.2.7.8 1.2 1.5 1.4 1.2.3 2.3-.4 3.1-1.4 0 .4 0 .8.1 1.4 0 .3.3.1.5 0zM64.7 104c-.4.5-.5.9-.5 1.4h3.1s.1-.7-.3-1.2c-.7-1-1.8-.9-2.3-.2zm106.8 2.8s-.2 2.2.8 3.5c.5.6 1.3 1 1.8.9.4-.1.7-.4 1-.7v-6.2s-.7-.5-1.2-.6c-1.4-.2-2.3 1.9-2.4 3.1zm-84.4.2c-.4.1-.6.3-1 .4-.8.4-1.5 1.2-1.5 2.1 0 .5 0 .9.8 1.1.7.2 1.7-.7 1.7-.7V107z"></path>
    </symbol>
    <symbol xmlns="http://www.w3.org/2000/svg" viewBox="0 0 240 140" id="logo19">
        <path d="M217.7 55.2v6c-3.1-1.2-5.8-1.8-8.2-1.8-1.4 0-2.6.3-3.4.8-.9.5-1.3 1.1-1.3 1.9 0 1 1 1.9 2.9 2.7l5.6 2.7c4.5 2.2 6.8 5 6.8 8.6 0 3-1.2 5.4-3.6 7.1-2.4 1.8-5.6 2.7-9.6 2.7-1.8 0-3.5-.1-5-.2-1.5-.2-3.2-.5-5-.9v-6.2c3.4 1.2 6.6 1.8 9.4 1.8 3.4 0 5-1 5-2.9 0-1-.7-1.8-2.1-2.4l-6.2-2.7c-2.3-1-4-2.3-5.1-3.8-1.1-1.5-1.7-3.2-1.7-5.2 0-2.8 1.2-5 3.5-6.7 2.3-1.7 5.4-2.5 9.2-2.5 1.2 0 2.7.1 4.3.3 1.5.1 3 .4 4.5.7zm-176.2 0v6c-3.1-1.2-5.8-1.8-8.2-1.8-1.4 0-2.6.3-3.4.8-.9.5-1.3 1.1-1.3 1.9 0 1 1 1.9 2.9 2.7l5.6 2.7c4.5 2.2 6.8 5 6.8 8.6 0 3-1.2 5.4-3.6 7.1-2.4 1.8-5.6 2.7-9.6 2.7-1.8 0-3.5-.1-5-.2-1.5-.2-3.1-.5-5-.9v-6.2c3.5 1.2 6.6 1.8 9.4 1.8 3.4 0 5-1 5-2.9 0-1-.7-1.8-2.1-2.4l-6.2-2.7c-2.3-1-4-2.3-5.1-3.8-1.2-1.6-1.7-3.4-1.7-5.3 0-2.8 1.2-5 3.5-6.7 2.3-1.7 5.4-2.5 9.2-2.5 1.3 0 2.7.1 4.3.3 1.5.2 3 .5 4.5.8zm6.4-.6H57v30.7h-9.1V54.6zm38.5 0v5.7H72.9v6.8h11.8v5.1H72.9v7.1h13.8v6H64.1V54.6h22.3zm42.6 0v30.7h-8.5V65.1l-8.8 20.5h-5.3l-8.5-20.5v20.3h-6.2V54.6h11.1l7.6 18.8 8-18.8H129zm29.4 0v5.7h-13.5v6.8h11.8v5.1h-11.8v7.1h13.8v6H136V54.6h22.4zm32 0v30.7h-9.7l-10.9-19.7v19.7h-6.2V54.6h10L184.2 74V54.6h6.2z"></path>
    </symbol>
    <symbol xmlns="http://www.w3.org/2000/svg" viewBox="0 0 240 140" id="logo20">
        <path d="M91.7 52.1V88H26.1V52.1h62.5m1-1.1H25v38h64.6V51z"></path>
        <path d="M207.3 51l-5.6 6.3h-4.6l4.3-6.3H89.6v38H215V51h-7.7zm-93.5 29.8h-5.2v-1.3c-1 1-2.5 1.7-4.3 1.7-3.6 0-7.2-2.2-7.2-6.9 0-4.2 3.5-6.4 7.8-6.4 1.8 0 2.8.3 3.7.7v-1c0-1.4-1-2.4-2.7-2.4-2.3 0-3.5.3-5.3 1.3L98.7 63c2.2-1.3 4.1-1.9 7.3-1.9 4.6 0 7.8 2.4 7.8 6.8v12.9zm32.2-.1h-5V70.3c0-3.5-.9-4.4-3.1-4.4s-3.2 1.1-3.2 4.3v10.6h-5.1V70.3c0-3.5-.9-4.4-3.1-4.4s-3.2 1.1-3.2 4.3v10.6h-5.1V61.5h5.1v1.3c.8-1 2.2-1.7 4.2-1.7 2.4 0 3.9.7 5.3 2.4 1.4-1.4 3-2.4 6.1-2.4 5 0 6.9 3.4 6.9 8.8l.2 10.8zm20.6.1h-5.2v-1.3c-.9 1-2.5 1.7-4.3 1.7-3.6 0-7.2-2.2-7.2-6.9 0-4.2 3.5-6.4 7.8-6.4 1.8 0 2.8.3 3.7.7v-1c0-1.4-.9-2.4-2.7-2.4-2.3 0-3.5.3-5.3 1.3l-1.9-3.5c2.2-1.3 4.1-1.9 7.3-1.9 4.6 0 7.8 2.4 7.8 6.8v12.9zm20.2-.1h-5.1v-1.2c-.9.8-2.2 1.6-4.1 1.6-4.1 0-7.5-3.1-7.5-10.2 0-5.8 2.7-9.8 7.5-9.8 1.7 0 3.2.6 4.1 1.5v-6l5.1-2.5v26.6zm20.7-8H196c.2 2.6 2.1 3.6 4 3.6 1.4 0 2.5-.5 3.3-1.4l3.6 3.1c-1.6 2-4.3 3.2-6.9 3.2-5.6 0-9.1-3.9-9.1-10 0-5.9 3.7-10 8.6-10 5.2 0 8.1 4.5 8.1 10-.1.6-.1 1.1-.1 1.5z"></path>
        <path d="M178.4 65.8c-1.9 0-3.1 1.7-3.1 5 0 4 1.4 5.6 3.3 5.6 1.6 0 2.4-.6 3.2-1.6v-7.3c-.8-1.1-2-1.7-3.4-1.7zm-23.5 8.4c0 1.4.7 2.5 3 2.5 1.7 0 3-.8 3.5-1.8v-2.3c-.8-.5-1.7-.8-3.5-.8-1.9 0-3 .8-3 2.4zm-52.7 0c0 1.4.7 2.5 3 2.5 1.7 0 3-.8 3.5-1.8v-2.3c-.8-.5-1.7-.8-3.5-.8-2 0-3 .8-3 2.4zm97-8.7c-1.8 0-3 1.5-3.2 3.5h6.7c-.3-1.8-1.3-3.5-3.5-3.5zM46.7 79.2c-2.5 0-4.8-1.1-6.2-2.8l1.9-1.8c1.2 1.3 3 2.1 4.5 2.1 2.4 0 3.7-.8 3.7-2.5 0-1.4-1.1-2-4-3-3.7-1.1-5.5-2-5.5-5.2 0-3.1 2.5-5 5.8-5 2.4 0 4.2.8 5.8 2.4l-1.9 1.9c-1.1-1.2-2.3-1.7-4.1-1.7-2.1 0-3 1.1-3 2.2 0 1.3.8 1.8 3.9 2.7 3.5 1.1 5.6 2.2 5.6 5.3.1 3.3-2 5.4-6.5 5.4m17.7-.2l-3-6.5-2 2.6V79h-2.6V62l2.6-1.4v11.1c.3-.5 1.1-1.6 1.5-2.2l2.7-3.9h3L63.2 70l4 8.8-2.8.2m5.9-13.2h2.6V79h-2.6V65.8zm1.2-1.8c-.9 0-1.7-.7-1.7-1.7s.7-1.7 1.7-1.7 1.7.7 1.7 1.7c0 .9-.7 1.7-1.7 1.7z"></path>
        <path d="M46.7 79.2c-2.5 0-4.8-1.1-6.2-2.8l1.9-1.8c1.2 1.3 3 2.1 4.5 2.1 2.4 0 3.7-.8 3.7-2.5 0-1.4-1.1-2-4-3-3.7-1.1-5.5-2-5.5-5.2 0-3.1 2.5-5 5.8-5 2.4 0 4.2.8 5.8 2.4l-1.9 1.9c-1.1-1.2-2.3-1.7-4.1-1.7-2.1 0-3 1.1-3 2.2 0 1.3.8 1.8 3.9 2.7 3.5 1.1 5.6 2.2 5.6 5.3.1 3.3-2 5.4-6.5 5.4m17.7-.2l-3-6.5-2 2.6V79h-2.6V62l2.6-1.4v11.1c.3-.5 1.1-1.6 1.5-2.2l2.7-3.9h3L63.2 70l4 8.8-2.8.2m5.9-13.2h2.6V79h-2.6V65.8zm1.2-1.8c-.9 0-1.7-.7-1.7-1.7s.7-1.7 1.7-1.7 1.7.7 1.7 1.7c0 .9-.7 1.7-1.7 1.7z"></path>
    </symbol>
    <symbol xmlns="http://www.w3.org/2000/svg" viewBox="0 0 240 140" id="logo21">
        <path d="M32.8 91.2H38v-2.5h-5.2v-3.1h5.5v-2.5h-8.2v14.2h8.4v-2.5h-5.6l-.1-3.6zm14.7 1.2c-1-2.3-4.8-9.1-4.8-9.1h-3v14.2h2.6v-9.7c1 2.3 4.8 9.7 4.8 9.7h3V83.3h-2.6v9.1zm9.2-1.2h2.8v3.6c-.2.2-.9.3-1.9.3-2 0-3-1.7-3-5.5 0-3 .9-4.6 2.6-4.6 1.7 0 1.9 1.3 1.9 1.9v.3h3v-.3c0-2.6-1.9-4.2-4.9-4.2-3.5 0-5.6 2.5-5.6 7.1 0 6.3 3.3 7.7 5.9 7.7 2.6 0 4.2-1 4.3-1.3l.2-.2v-7.4h-5.6v2.3c.1.3.3.3.3.3zm10.6-7.9l-4.9 14.2h3s1-3.3 1.3-3.6h4.2c.2.6 1.3 3.6 1.3 3.6h3l-4.9-14.2h-3zm.2 7.9c.2-.7.9-3 1.3-4.6.3 1.6 1 3.6 1.3 4.6h-2.6zm12.3-7.9h-3.6v14.2h3.6c2.6 0 5.9-.7 5.9-7.2.3-4.8-1.9-7-5.9-7zM79.6 95h-.7v-9.3h.7c2.3 0 3.3.7 3.3 4.8 0 3.8-1.4 4.5-3.3 4.5zm7.8 2.4h2.8V83.3h-2.8v14.1zm12.7-5c-1-2.3-4.8-9.1-4.8-9.1h-3v14.2h2.6v-9.7c1 2.3 4.9 9.7 4.9 9.7h3V83.3h-2.6c-.1 0-.1 6.9-.1 9.1zm17.7 1c-.6-1.7-3.5-10.1-3.5-10.1H111v14.2h2.6v-9.1c.9 2.8 3.2 9.1 3.2 9.1h2.5s2.3-6.3 3.2-9.1v9.1h2.6V83.3h-3.3c-.7 0-3.5 8.3-4 10.1zm14-10.4c-2.6 0-5.6 1.3-5.6 7.4 0 6.1 3 7.4 5.6 7.4 2.6 0 5.6-1.3 5.6-7.4 0-6.1-2.9-7.4-5.6-7.4zm0 12.1c-1.7 0-2.6-1.7-2.6-4.9s.9-4.9 2.6-4.9c2.3 0 2.6 2.6 2.6 4.9.3 2.5-.3 4.9-2.6 4.9zm14.3-2.3c0 1.3-.2 2.6-2.3 2.6-2 0-2-1.3-2-2.6v-9.3H139v9.8c0 2.8 1.9 4.6 4.9 4.6 3.2 0 4.9-1.7 4.9-4.6v-9.8H146l.1 9.3zm12.5-.4c-1-2.3-4.8-9.1-4.8-9.1h-3v14.2h2.6v-9.7c1 2.3 4.9 9.7 4.9 9.7h3V83.3h-2.6c-.1 0-.1 6.9-.1 9.1zm12.9-9.1h-9.3v2.4h3.3v11.7h2.8V85.7h3.3v-2.5h-.1v.1zm3.5 0l-4.9 14.2h3s1-3.3 1.3-3.6h4.2c.2.6 1.3 3.6 1.3 3.6h3L178 83.3h-3zm.1 7.9c.2-.7.9-3 1.3-4.6.3 1.6 1 3.6 1.3 4.6h-2.6zm8.4 6.2h2.8V83.3h-2.8v14.1zm12.8-5c-1-2.3-4.8-9.1-4.8-9.1h-3v14.2h2.6v-9.7c1 2.3 4.9 9.7 4.9 9.7h3V83.3h-2.6c-.1 0-.1 6.9-.1 9.1zm10.3-3.1l-1.3-.7c-.9-.6-1.9-1-1.9-1.9 0-1 1.3-1.3 1.9-1.3 1 0 2.5.3 2.8.6l.7.2v-2.6h-.3c-.6-.2-1.9-.3-3.2-.3-3 0-4.9 1.6-4.9 3.9 0 2 1.7 3 2.8 3.6l.3.2 1.6.7c.9.6 1.7 1 1.7 2 0 1.6-1.6 1.6-2 1.6-1.6 0-2.8-.6-3.3-.9l-.6-.3v3l.2.2c.2 0 1.7.6 3.5.6 3.2 0 5.2-1.7 5.2-4.2-.2-2.6-1.9-3.5-3.2-4.4zM81.5 71c.3.6 0 1.3-.2 1.9-.6.7-1.6.9-2.3.7-.6-.2-.9-.3-1-.9-.2-.6 0-1 .2-1.6.6-.7 1.3-1 2.5-.7.5 0 .8.3.8.6zM173 43.4c1 0 2.5.3 3.2.6.2 0 .2.2.2.3-.7.9-1.7 1.7-2.3 2.6.3.2.9.2 1.6 0 2.6-.2 5.2-.6 7.9-.6.3.2.7.2.9.3 0 .6-.3.7-1 .7-3 .3-5.8 1.6-9 1.9-.9 0-.7-1-.9-1.9l-.2.2c-3 3-6.1 5.8-8.5 9v.2c.7 0 1.3-.6 2-.7 2-1.3 4.3-3 6.5-3.5.6 0 1.3-.2 1.7.2.3.2.7.7.7 1 .2.9-.7 1.7-1 2.3-.7.7-1.9 1.6-2.5 2.5-.2.3.3.6.6.7.7.3 2 .2 2.5 1.3.3 2.3-1.6 3.2-3.3 4.8-3 2.3-6.1 3.6-10.1 3.6-.3 0-.7-.2-.7-.6-.2-1.6.6-2.8 1.6-3.9 1.6-1.7 3.5-2.3 5.6-2.8.3 0 .9 0 1.3.3 0 .3-.2.6-.3.6-1.9.3-3.6 1.6-4.8 3.2v.3c.9.2 1.9-.7 2.8-1.3 1.7-1 3.3-2.3 4.8-4.2.2-.2.2-.3 0-.6-.9-1-3.6-.6-3.3-2.6.2-.7.9-1 1.3-1.9-.3 0-.9.2-1 .3-2.5 1.6-4.9 2.8-7.7 3.3-.6 0-1.3 0-1.6-.7-.2-.7.2-1.6.3-2.3-.7.2-1.3.7-2 1-2.3 1.3-4.6 2.5-7.1 3-.9.2-2.3.3-2.8-.6-.3-.6-.2-1.3 0-1.9-.3.2-.6.3-.9.6-2.8 1.9-5.8 3.3-9.1 4.2-1 .2-2.3.2-2.8-.7-.2-.9.2-1.6.6-2 1.3-1.6 3-3.3 4.2-4.9l-.6.3c-1.9.9-3.9 1.7-6.3 1.7-.3.9-.9 1.9-1.7 2.8-1.9 2.6-4.8 4.9-7.9 4.8-1-.2-2.3-1-2.3-2.6-.3.2-.6.2-1 .6-1.3.9-2.6 1.7-4.2 2.5-2 1-4.3 2.5-7.1 1.9-.6-.2-.6-.9-.6-1.6.6-1.9 1.9-3.3 3.2-4.9h-.2c-3.9 2.6-7.7 5.6-11.6 7.9-.7.3-.7.3-1 .2-.3-.2-.3-.3-.3-.7.6-1.9 2.3-3.3 3.5-5.1 1.6-1.9 3.2-3.5 4.8-5.5-.7 0-1 .6-1.9.9-1.6 1-2.5 1.7-3.6 2.6-4.6 3.2-9.1 6.3-13.9 9.3-.3.2-.7.2-1 .2-.3-.2-.3-.6-.2-.7 1-1 2.5-1.7 3.5-2.8 10.5-7.4 21.1-15.3 30.9-23.5.7-.9 1.7-.2 2.8-.2.3 0 .7.2.6.6-4.9 5.2-10.1 10.1-14.6 15.6.2.2.3 0 .6-.2 5.7-4.6 11.9-9.8 17.7-15 .6-.3.7-.7 1.3-.9.9 0 1.6.3 2.3.6.9.2.6.6.6.6-5.6 5.6-11.4 11.4-16.9 17.3-.7.7-1 1.6-.7 1.7.3.3 3-1 4.6-1.9 1-.7 2.5-1 3-2.6 1.3-1.9 3.2-3.3 5.2-3.9.7.2 1.6.6 2 .9.2.2.2.3.2.6-1.6 1.3-3.6 2.5-4.6 4.3-.2.3 0 .7.2.9.2.3.7.2 1 .2 1.6-.7 2.8-2.3 3.6-3.6.3-.6.6-1 .7-1.7-.9-.6-.9-1.6-.9-2.3.2-.6.6-.9 1-1 .7-.2 1.6.2 2 .9.2.3.3 1.3.3 1.3 2 .2 4.3-.7 5.9-1.7-.2-.3-.3-1.3.2-1.9.6-.6 1.3-.7 2-.3.3.2.7.6.9.9.2.3 0 .9-.2 1.3 0 .2-.3.2.3.3.6.2 1.7.3 1.9.6.2.2-.2.6-.2.6-1 1.6-2.8 3-3.9 4.8-.2.2 0 .3.2.3 1.3 0 2.3-.7 3.5-1.6 3.2-2 6.3-4.6 9.1-7.4.7-.3 1.6 0 2.3.2.3.2.7.2 1 .3.2.2 0 .3 0 .3-1.6 1.9-3.2 3.5-4.6 5.6 0 .2 0 .3.2.3 2.3-.6 4.2-2 5.9-3.2 5.2-3.2 10-7.7 14.3-12.3.8 1.3 1 1.1 1.3 1.1z"></path>
        <path d="M160.1 48c.3.6.2 1-.2 1.6-.7.6-2 .9-3 .3-.3-.3-.6-.9-.3-1.6.2-.7.9-1 1.7-1.3.9-.1 1.7.3 1.8 1zM85 51.8c-.6.3-1 .9-1.6 1.6-.7.7-1.7 1.7-2.3 2.6 2.8-1.3 4.8-3.3 7.1-5.2.6-.6 1-.9 1.3-1.7-.6 0-1 .6-1.7.7-.9.8-1.7 1.4-2.8 2l-1.9-1.9c.3-.2.6-.6 1-.9 1.7-1 3.3-2 5.5-2.6.7 0 1.3 0 1.7.6.3 1.7-1.6 3.5-2.3 4.3-3.5 3.3-7.2 6.1-11 8.5-2.8 3-5.2 6.1-7.9 9.7l-.3.3c.7-.6 1.3-.9 1.7-1 4.8-3.2 11.4-10.5 12.8-11.6.3-.6 3.2.6 3.2.6.2 0 .2.2 0 .3-.6.7-1.6 1.6-2 2.3 0 .3.6 0 1 0 2.5-.3 4.9-.6 7.4-.7.3 0 .9 0 1 .3 0 .2 0 .3-.2.6-3.5.7-7.2 2-10.7 2.8-.3.2-.9.3-1.3 0-.2 0-.2-.3-.3-.6l-.2.2c-2.3 2.3-4.6 4.3-6.1 6.8-1 1.6-1.7 2.3-.7 3.3.3.6 1.7 0 1.6.9-.6.9-2.8.3-2.8.3-.9-.3-2-.7-2.5-1.7-.2-.6-.6-1.7-.2-2.3-.6.6-.7.6-1 .9-2 1.3-4.2 2.6-6.1 3.3-1 .3-1.9 0-2.5-.6-.9-1-.7-2.8 0-4.2.2-.3.6-.7.9-.9.6-.2.9 0 1.6.2.6.3.7 1.3.9 1.9 1.6-1.7 3.3-4.6 4.6-6.3-1 .6-1.9.9-3 1.3-3.3 1.7-6.8 3.3-10.4 4.6-.3.2-.7.2-.9-.2-.2-.3 0-.7.3-.9 5.6-2.6 11.3-5.1 16.5-8.2 3-3.3 5.8-7.2 9.3-10.1.9-.7 1.3-1 1.7-1.6m94.2 17.4c0 1.3 1 2.5 2.5 2.5 1.3 0 2.5-1 2.5-2.5 0-1.3-1-2.5-2.5-2.5-1.5.1-2.5 1.1-2.5 2.5zm.6 0c0-1 .9-2 2-2 1.3 0 2 .9 2 2 0 1-.9 2-2 2-1.3.1-2-.9-2-2z"></path>
        <path d="M179.3 66.4v-.3h.9c.2 0 .6 0 .6.6 0 .3-.2.3-.6.3h-.9v-.6l-.3-.3v2.3h.3v-1h.9c.6 0 .3.6.3.7v.3h.3c-.2 0-.2-.2-.2-.6 0-.3 0-.6-.3-.7.2-.2.3-.3.3-.7 0-.6-.3-.7-.7-.7h-1v.6"></path>
    </symbol>
    <symbol xmlns="http://www.w3.org/2000/svg" viewBox="0 0 240 140" id="logo22">
        <path d="M190.2 95.4l-1.6-.8-.2-.1-18.1-8.4-4.2 1.4-17.6 5.9L144 95l-4.2-2-19.2-8.7-7.2 5.3-1.7 1.2-6.8-5.2-.7-.6-13.4-10.2s-1.5 1.1-3.6 2.4c-1.3.8-3 1.5-4.6 2l-3.8 13.7s-.2-.2-.4-.5c-1-1.3-4-5.3-4-5.3 0-.1-2.2 0-4.8 0-3.7.1-8.5.2-9.7.3h-.4s-3.1 1.8-7.1 4.2l-.7.4C44.5 96.2 35 102 35 102.1l16.8 2.3.7.1 7.3 1 10 1.3 8.8 1.1 4.7.7 4.1-1.2 17.2-5.3.3-.1.4.3 8.4 5.7 9.3 6.2 17-8.1 8.4-4h56.8l-15-6.7zm-122.6-60c.8 0 2.5-.2 3.2-.8.1-.9.1-2.1.1-2.9 0-2.4-.3-4.4-.8-5.9 0 0-.4-.1-.9-.1-1.3 0-3.1.2-4.2.8 0 0-.1.3-.1.9 0 3.3 1.1 7.6 1.1 7.6s.6.4 1.6.4zm-3.7.4c-.9-4.7-3.2-7.5-3.2-7.5-1.7.1-4.7 2.1-4.7 2.1.6 2.2 1.5 4.5 3.7 7.5 2.8-.5 4.2-2.1 4.2-2.1zM53.5 63.3s1.3-2.3 1.7-4.2c-.4-7.1-8-9.4-8.2-14.4 3.6-.3 6.5 1.5 6.5 1.5 1.4-1.8 2-5.3 2-5.3-.9-.7-3.9-1.1-7-1.1-2.3 0-4.7.4-6.3 1.1 0 0-1.5 2.3-1.7 3.4.7 8.7 7.9 10.6 7.9 15.4-4.7.3-8.4-3.2-8.4-3.2-1.2 1.5-2.6 4-2.7 5.8 2.1 1.7 5.5 2.7 9 2.7 2.6 0 5.1-.6 7.2-1.7zM135.6 38c.2-3.3-1.1-7.7-1.1-7.7s-3.9-.2-6.1 1.3c0 0 .4 4.2 1.8 7.6-.1 0 3.9 0 5.4-1.2zm-7.3 21.9c0 1.8.3 4 .9 5.2 0 0 .4.1.9.1 3.2 0 5.8-.9 5.8-.9-.5-2.4-.7-3.1-.7-5.1 0-3.4.7-7.6.7-10.5 0-3-.7-5.1-.9-5.8 0 0-3.9.3-6.7 1.2.3 1.3.7 3.1.7 5.5-.2 4.4-.7 6.4-.7 10.3zm-16.6-11c0 2.3-.6 5.1-.6 7.4 0 2.9.5 5.8 1.7 8 0 0 1.5.8 3.9.8 3.4 0 6.9-1.2 8.1-2 0 0 .1-.6.1-1.9 0-1.7-.8-3.1-.8-3.1s-3.1 1.3-5.3 1.3c-.3 0-.5 0-.8-.1-.5-1.1-.7-2.8-.7-4.5 0-2.3.6-4.5.6-6.7l6.1-.8c.2-.4.4-1.5.4-2.8 0-1-.1-2.1-.5-2.8l-5.9 1c-.2-1.8-.3-2.4-.7-3.3 0 0-4 .2-6.3 1.2.5 1 .6 2.1.7 3.1l-3.1.6s-.5 1-.5 2.5c0 .7.1 1.3.5 2.4l3.1-.3zm28.5 9.8c0 2 .4 4.2 1.1 6.1 0 0 .4.1 1 .1 2.9 0 5.4-.8 5.4-.8-.8-2.4-1-4.3-1-6.1 0-.7.1-1.5.1-2.1.9 0 1.5-.1 1.5-.1 2 2.6 6.5 8.3 11.8 9.4 2.3-1.5 3.1-5.3 3.1-5.3s-5.4-2.3-8.2-5.6c4.2-1.5 5.8-4.2 5.8-7 0-4.2-3.3-7-3.3-7-.8-.1-1.5-.1-2.4-.1-2.5 0-5.3.4-8.4 2.2-.4-1.7-.9-2.6-.9-2.6s-3.1.3-6.3 1.3c1 1.6 1.1 3.6 1.1 5.7.3 5.4-.4 7.3-.4 11.9zm7.2-11.9c.2-.1.8-.4 1.7-.8 1-.4 2.6-.8 4.3-.8l.1.1.3.4c.2.4.4.9.4 1.5 0 2.4-2.1 3.7-6.9 4.2 0-.8.2-2.2.2-3.3-.1-.8-.1-1.2-.1-1.3zm44.2 17.1c1.1.6 3.3.9 4.8.9 2.6 0 6.3-.8 7.5-1.3 0 0 .1-.8.1-1.3 0-.8-.1-1.9-.8-3.7 0 0-2.5.9-4.8.9-.5 0-.9 0-1.3-.2-.5-1-.8-2.5-.8-4.8 0-2 .8-5.9.8-9 0-2.5-.4-4.4-.9-5.3 0 0-3.4 0-6.4 1.1.1.1.6 2.2.6 4.6 0 2.7-.8 5.3-.8 8.6-.2 3.3.4 7.2 2 9.5zm-22.4.6c1.5.4 3.1.5 4.4.5 8.5 0 12.8-5.5 12.8-12.1 0-3.9-1.6-8.2-4.5-12-1.6-.4-3.1-.6-4.5-.6-9.2 0-13.1 6.3-13.1 12.7 0 4.4 2 8.8 4.9 11.5zm6.3-19.2c.7 0 1.2.1 1.3.2 1.5 1.6 2.8 5.1 2.8 8.3 0 3.2-1.5 5.9-4.7 5.9-.7 0-1.1-.1-1.2-.1-1.4-1.6-2.7-5.3-2.7-8.4 0-3.1 1.5-5.9 4.5-5.9zM71.7 55c0 1.2.1 2.2.1 2.2s-2.8 1.6-5.3 1.6c-1 0-1.6-1.5-1.6-3.5 0-3.1 1.5-6.6 1.5-9.9 0-1.5-.1-3.1-.9-5 0 0-3.7 0-6.9 1.3 0 0 .8 1 .8 4 0 3.5-1.6 7.1-1.6 10.8s1.9 8.4 5.9 8.4c2.9 0 7.4-2.5 8.6-3.4.4 2 1 3.2 1 3.2s.6.1 1 .1c2.6 0 5.9-1.2 5.9-1.2-1.3-1.8-1.6-5.8-1.6-8.9 0-3 .5-5.4.5-8.1 0-2.5-.4-5-1.3-6.5 0 0-3.6 0-6.8 1.2.8 1.8 1.2 4 1.2 6.2s-.5 5-.5 7.5zm12 2.4c0 2.5.2 5 1.2 7.3 0 0 1.6.2 5.1.2 11.2 0 15.9-6.8 15.9-14 0-4.7-2.9-10.5-9.3-11.3-4 .6-6.4 2.4-6.4 2.4-.4-1.5-.9-2.4-.9-2.4s-4.1.4-6.7 1.2c1 1.7 1.2 4 1.2 6.5.4 3.2-.1 6.6-.1 10.1zM90.9 46c.2-.1.6-.3 1.1-.5.8-.3 1.9-.6 3.1-.6 2.4.8 3.7 2.9 3.7 6.9 0 5.6-3.7 8.4-7.8 7.8 0-.1-.2-.3-.3-.8-.1-.6-.3-1.5-.3-3 0-1.8.4-4.7.4-6.9.3-2 .2-2.7.1-2.9z"></path>
    </symbol>
    <symbol xmlns="http://www.w3.org/2000/svg" viewBox="0 0 240 140" id="logo23">
        <path d="M83.8 45.9l-.1 1.3 1.1-.9c1.2-.9 4.8-3 10.1-3.9h.2l2.3-2.5-.7.1-.9.1c-4.7.6-8.3 2.1-10 3.2-.5-1.4-1.8-3.1-3.8-3.6l-.3-.1-1.7 1.7.8.3c3.3 1.1 3 4.3 3 4.3"></path>
        <path d="M83.8 56.7l-1.2.1.8.9c1 1.2 1.5 2.4 1.3 3.5v.3c-.3 1.5-1.6 2.9-3.8 4.2-1.6-1.3-2.5-2.8-2.7-4.5-.1-.5-.1-.9 0-1.4.2-1.4.8-2.7 1.9-4.1 7-8.6 18.1-9.3 21-9.4C99 55 84 56.7 83.8 56.7M68.5 60c.3-1.7 1.3-5 5.5-5.2l1.5-.2-1.2-.9s-1.4-1.1-1.4-2.8v-.4c.2-1.5 1.4-3.2 3.6-4.9.7.1 2.4.6 3.1 2.2.3.6.4 1.3.3 2.1-.2 1.4-.8 3-1.9 4.8-2.8 4.4-8.2 5.4-9.5 5.3m36-15.9v-.2h-.5c-10.6-.3-18 3.9-21.8 6.8.1-.2.1-.5.1-.7.2-1.3 0-2.4-.5-3.4-.9-1.7-2.7-2.7-5.4-3h-.3l-.2.2c-3 2.3-4.6 4.6-4.8 6.8v.4c0 1.1.3 1.9.6 2.5-1.8.4-5 2.4-5.6 7.3l-.1.8v.5l.5.1c.8.2 4.7.8 9.6-2.4-.5 6.6 4 8.8 4.5 9.1l.1.1.1.1.3-.1c3.6-1.7 5.6-3.6 6.3-5.9l.2-1.1c.1-1.3-.1-2.3-.4-3.1 14.9-2.6 17.1-10.8 17.3-13.2v-1.6zm40 19.3h-22.9v6.3h8.4v29.2h6.6V69.7h8.5v-6.3zm7.7-.1h-5.6v30.6h6.2V63.3z"></path>
        <path d="M96.5 58.2v34.3h6.2V73.8c1.8 2.3 17.4 21.9 17.4 21.9V59.4h-6.2v19c-1.9-2.3-17.4-21.9-17.4-21.9v1.7zm58.8-2.6v38.3h6.2V73.2c1.9 2.6 17.4 24.2 17.4 24.2V60.9h-6.2V78c-1.9-2.6-17.4-24.3-17.4-24.3v1.9z"></path>
        <path d="M184.9 71.4c0-5.1 4.2-9.3 9.1-9.3 5 0 9.1 4.3 9.1 9.3 0 5.1-4.2 9.3-9.1 9.3-4.9 0-9.1-4.2-9.1-9.3m-6.7 0c0 8.8 7 15.6 15.9 15.6S210 80.1 210 71.4c0-8.8-7-15.6-15.9-15.6s-15.9 6.8-15.9 15.6M30 51.6v6.5h8.8v33.7h6.8V58.1h8.7v-6.5z"></path>
        <path d="M64.2 68.3c3.5 0 4.7 2.1 4.7 4.1 0 2.6-1.8 4.2-4.7 4.2H57v-8.3h7.2zM50.6 62v29.7H57v-9h5.4c.3.5 5.9 9 5.9 9h8s-6.6-9.5-7.3-10.5c3.8-1.5 6.3-4.9 6.3-8.8 0-6.1-4.4-10.4-10.7-10.4h-14z"></path>
        <path d="M95 70H74.8v28.5h21.8v-6H80.9v-5.6h11v-6h-11V76H95z"></path>
    </symbol>
    <symbol xmlns="http://www.w3.org/2000/svg" viewBox="0 0 240 140" id="logo0">
        <path d="M102.6 97.8c-6.5 0-12.6-2.3-17.4-6.1-4.5 3.6-10.2 5.9-16.5 6.1-15.3.5-28.2-11.5-28.7-26.9-.5-15.3 11.5-28.2 26.8-28.7h1.8c6.2.2 11.9 2.5 16.5 6.1 4.5-3.6 10.2-5.9 16.5-6.1h1.8c6.2.2 11.9 2.5 16.5 6.1 4.5-3.6 10.2-5.9 16.5-6.1h1.8c6.2.2 11.9 2.5 16.5 6.1 4.5-3.6 10.2-5.9 16.5-6.1h1.8c14.6.5 26.4 12.3 26.9 26.9.5 15.3-11.5 28.2-26.9 28.7-6.9.2-13.3-2.1-18.4-6.1-4.5 3.6-10.2 5.9-16.5 6.1-6.9.2-13.3-2.1-18.4-6.1-4.5 3.6-10.2 5.9-16.5 6.1h-.6zM89.3 87.5c3.9 2.9 8.8 4.6 14 4.4 4.7-.2 9-1.8 12.5-4.4-3.7-4.5-6-10.3-6.2-16.6-.2-6.9 2.1-13.4 6.2-18.4-3.5-2.7-7.8-4.3-12.5-4.4h-1.6c-4.7.2-9 1.8-12.5 4.4 3.7 4.6 6 10.3 6.2 16.6.4 6.9-2 13.4-6.1 18.4zM67 48c-12.1.4-21.6 10.6-21.2 22.7.4 12.1 10.6 21.7 22.7 21.3 4.7-.2 9-1.8 12.5-4.4-3.7-4.5-6-10.3-6.2-16.6-.2-7 2.2-13.5 6.3-18.5-3.5-2.7-7.8-4.3-12.5-4.4L67 48zm92 39.5c3.9 2.9 8.8 4.6 14 4.4 12.1-.4 21.7-10.6 21.3-22.7-.4-11.5-9.7-20.8-21.2-21.3h-1.6c-4.7.2-9 1.8-12.5 4.4 3.7 4.6 6 10.3 6.2 16.6.2 7.1-2.1 13.6-6.2 18.6zm-34.8 0c3.9 2.9 8.8 4.6 14 4.4 4.7-.2 9-1.8 12.5-4.4-3.7-4.5-6-10.3-6.2-16.6-.2-6.9 2.1-13.4 6.2-18.4-3.5-2.7-7.8-4.3-12.5-4.4h-1.6c-4.7.2-9 1.8-12.5 4.4 3.7 4.6 6 10.3 6.2 16.6.3 6.9-2 13.4-6.1 18.4zm-39-30.9c-3 3.9-4.7 8.8-4.5 14.1.2 4.8 1.8 9.2 4.5 12.7 3-3.9 4.7-8.9 4.5-14.1-.1-4.8-1.8-9.2-4.5-12.7zm69.6 0c-3 3.9-4.7 8.8-4.5 14.1.2 4.8 1.8 9.2 4.5 12.7 3-3.9 4.7-8.9 4.5-14.1-.1-4.8-1.7-9.2-4.5-12.7zm-34.8 0c-3 3.9-4.7 8.8-4.5 14.1.2 4.8 1.8 9.2 4.5 12.7 3-3.9 4.7-8.9 4.5-14.1-.1-4.8-1.8-9.2-4.5-12.7z"></path>
    </symbol>
</svg>