<svg>
    <symbol xmlns="http://www.w3.org/2000/svg" viewBox="0 0 768 768" enable-background="new 0 0 768 768" xml:space="preserve" id="icon0">
        <path fill="none" stroke="#FF3300" stroke-width="32" stroke-linecap="round" stroke-linejoin="round" stroke-miterlimit="10" d="  M737.7,383C667.3,239,536,143,382.4,143c-150.4,0-281.6,96-352,240C100.8,527,232,623,385.6,623C536,623,667.3,527,737.7,383z" style="stroke-width: 32px; stroke-dashoffset: 1e-05; stroke-dasharray: none;"></path>
        <path fill="none" stroke="#FF3300" stroke-width="32" stroke-linecap="round" stroke-linejoin="round" stroke-miterlimit="10" d="  M382.4,240c79.5,0,144,64.5,144,144s-64.5,144-144,144s-144-64.5-144-144S302.9,240,382.4,240z" style="stroke-width: 32px; stroke-dashoffset: 1e-05; stroke-dasharray: none;"></path>
        <path fill="none" stroke="#FF3300" stroke-width="32" stroke-linecap="round" stroke-linejoin="round" stroke-miterlimit="10" d="  M382.4,319c35.3,0,64,28.7,64,64s-28.7,64-64,64s-64-28.7-64-64S347.1,319,382.4,319z" style="stroke-width: 32px; stroke-dashoffset: 1e-05; stroke-dasharray: none;"></path>
    </symbol>
    <symbol viewBox="0 0 768 768" enable-background="new 0 0 768 768" xmlns="http://www.w3.org/2000/svg" xml:space="preserve" id="icon1">
        <path fill="none" stroke="#FF3300" stroke-width="32" stroke-linecap="round" stroke-linejoin="round" stroke-miterlimit="10" d="  M220.6,598.4l-12.8,80c0,6.4,6.4,9.6,12.8,9.6h195.2c6.4,0,12.8-6.4,12.8-9.6l-12.8-80" style="stroke-width: 32px; stroke-dashoffset: 1e-05; stroke-dasharray: none;"></path>
            <path fill="none" stroke="#FF3300" stroke-width="32" stroke-linecap="round" stroke-linejoin="round" stroke-miterlimit="10" d="  M623.8,192v-70.4c0-22.4-19.2-41.6-41.6-41.6H57.4C35,80,15.8,99.2,15.8,121.6v361.6c0,22.4,19.2,41.6,41.6,41.6h390.4" style="stroke-width: 32px; stroke-dashoffset: 1e-05; stroke-dasharray: none;"></path>
            <path fill="none" stroke="#FF3300" stroke-width="32" stroke-linecap="round" stroke-linejoin="round" stroke-miterlimit="10" d="  M15.8,451.2h432" style="stroke-width: 32px; stroke-dashoffset: 1e-05; stroke-dasharray: none;"></path>
            <path fill="none" stroke="#FF3300" stroke-width="32" stroke-linecap="round" stroke-linejoin="round" d="M713.4,240h-176  c-22.4,0-38.4,16-38.4,38.4v371.2c0,22.4,16,38.4,38.4,38.4h172.8c22.4,0,41.6-16,41.6-38.4V278.4C755,259.2,735.8,240,713.4,240z" style="stroke-width: 32px; stroke-dashoffset: 1e-05; stroke-dasharray: none;"></path>
            <path fill="none" stroke="#FF3300" stroke-width="32" stroke-linecap="round" stroke-linejoin="round" d="M627,640L627,640L627,640  L627,640L627,640z" style="stroke-width: 32px; stroke-dashoffset: 1e-05; stroke-dasharray: none;"></path>
            <path fill="none" stroke="#FF3300" stroke-width="32" stroke-linecap="round" stroke-linejoin="round" d="M499,297.6h252.8v291.2  H499V297.6z" style="stroke-width: 32px; stroke-dashoffset: 1e-05; stroke-dasharray: none;"></path>
    </symbol>
    <symbol xmlns="http://www.w3.org/2000/svg" viewBox="0 0 768 768" enable-background="new 0 0 768 768" xml:space="preserve" id="icon2">
        <g>
            <path fill="none" stroke="#FF3300" stroke-width="32" stroke-linecap="round" stroke-linejoin="round" stroke-miterlimit="10" d="   M752,652.8c0,38.4-32,67.2-67.2,67.2H83.2C44.8,720,16,688,16,652.8V243.2c0-38.4,32-67.2,67.2-67.2h601.6   c38.4,0,67.2,32,67.2,67.2V652.8z" style="stroke-width: 32px; stroke-dashoffset: 1e-05; stroke-dasharray: none;"></path>
            <path fill="none" stroke="#FF3300" stroke-width="32" stroke-linecap="round" stroke-linejoin="round" stroke-miterlimit="10" d="   M140.8,176h96v544h-96V176z" style="stroke-width: 32px; stroke-dashoffset: 1e-05; stroke-dasharray: none;"></path>
            <path fill="none" stroke="#FF3300" stroke-width="32" stroke-linecap="round" stroke-linejoin="round" stroke-miterlimit="10" d="   M528,176h96v544h-96V176z" style="stroke-width: 32px; stroke-dashoffset: 1e-05; stroke-dasharray: none;"></path>
            <path fill="none" stroke="#FF3300" stroke-width="32" stroke-linecap="round" stroke-linejoin="round" stroke-miterlimit="10" d="   M268.8,115.2v-12.8c0-28.8,25.6-54.4,57.6-54.4h112c32,0,57.6,25.6,57.6,54.4v12.8" style="stroke-width: 32px; stroke-dashoffset: 1e-05; stroke-dasharray: none;"></path>
        </g>
    </symbol>
    <symbol xmlns="http://www.w3.org/2000/svg" viewBox="0 0 768 768" enable-background="new 0 0 768 768" xml:space="preserve" id="icon3">
        <g>
            <path fill="none" stroke="#FF3300" stroke-width="32" stroke-linecap="round" stroke-linejoin="round" stroke-miterlimit="10" d="   M51.2,321.6c19.4,0,35.2,15.8,35.2,35.2S70.6,392,51.2,392S16,376.2,16,356.8S31.8,321.6,51.2,321.6z" style="stroke-width: 32px; stroke-dashoffset: 1e-05; stroke-dasharray: none;"></path>
            <path fill="none" stroke="#FF3300" stroke-width="32" stroke-linecap="round" stroke-linejoin="round" stroke-miterlimit="10" d="   M248,241.6L91,335.5" style="stroke-width: 32px; stroke-dashoffset: 1e-05; stroke-dasharray: none;"></path>
            <path fill="none" stroke="#FF3300" stroke-width="32" stroke-linecap="round" stroke-linejoin="round" stroke-miterlimit="10" d="   M276.8,184c19.4,0,35.2,15.8,35.2,35.2s-15.8,35.2-35.2,35.2s-35.2-15.8-35.2-35.2S257.4,184,276.8,184z" style="stroke-width: 32px; stroke-dashoffset: 1e-05; stroke-dasharray: none;"></path>
            <path fill="none" stroke="#FF3300" stroke-width="32" stroke-linecap="round" stroke-linejoin="round" stroke-miterlimit="10" d="   M296,251.2l172.8,265.6" style="stroke-width: 32px; stroke-dashoffset: 1e-05; stroke-dasharray: none;"></path>
            <path fill="none" stroke="#FF3300" stroke-width="32" stroke-linecap="round" stroke-linejoin="round" stroke-miterlimit="10" d="   M491.2,513.6c19.4,0,35.2,15.8,35.2,35.2S510.6,584,491.2,584S456,568.2,456,548.8S471.8,513.6,491.2,513.6z" style="stroke-width: 32px; stroke-dashoffset: 1e-05; stroke-dasharray: none;"></path>
            <path fill="none" stroke="#FF3300" stroke-width="32" stroke-linecap="round" stroke-linejoin="round" stroke-miterlimit="10" d="   M513.6,520L686,342.5" style="stroke-width: 32px; stroke-dashoffset: 1e-05; stroke-dasharray: none;"></path>
            <path fill="none" stroke="#FF3300" stroke-width="32" stroke-linecap="round" stroke-linejoin="round" stroke-miterlimit="10" d="   M716.8,280c19.4,0,35.2,15.8,35.2,35.2s-15.8,35.2-35.2,35.2s-35.2-15.8-35.2-35.2S697.4,280,716.8,280z" style="stroke-width: 32px; stroke-dashoffset: 1e-05; stroke-dasharray: none;"></path>
        </g>
    </symbol>
</svg>