<svg>
    <symbol xmlns="http://www.w3.org/2000/svg" viewBox="0 0 768 768" enable-background="new 0 0 768 768" xml:space="preserve" id="icon0">
        <path fill="none" stroke="#FF3300" stroke-width="32" stroke-linecap="round" stroke-linejoin="round" stroke-miterlimit="10" d="  M737.7,383C667.3,239,536,143,382.4,143c-150.4,0-281.6,96-352,240C100.8,527,232,623,385.6,623C536,623,667.3,527,737.7,383z" style="stroke-width: 32px; stroke-dashoffset: 1e-05; stroke-dasharray: none;"></path>
        <path fill="none" stroke="#FF3300" stroke-width="32" stroke-linecap="round" stroke-linejoin="round" stroke-miterlimit="10" d="  M382.4,240c79.5,0,144,64.5,144,144s-64.5,144-144,144s-144-64.5-144-144S302.9,240,382.4,240z" style="stroke-width: 32px; stroke-dashoffset: 1e-05; stroke-dasharray: none;"></path>
        <path fill="none" stroke="#FF3300" stroke-width="32" stroke-linecap="round" stroke-linejoin="round" stroke-miterlimit="10" d="  M382.4,319c35.3,0,64,28.7,64,64s-28.7,64-64,64s-64-28.7-64-64S347.1,319,382.4,319z" style="stroke-width: 32px; stroke-dashoffset: 1e-05; stroke-dasharray: none;"></path>
    </symbol>
    <symbol xmlns="http://www.w3.org/2000/svg" viewBox="0 0 768 768" enable-background="new 0 0 768 768" xml:space="preserve" id="icon1">
        <g>
            <path fill="none" stroke="#FF3300" stroke-width="32" stroke-linecap="round" stroke-linejoin="round" stroke-miterlimit="10" d="   M126.4,161.6l67.2,291.2l0,0l-19.2,64c-3.2,12.8,6.4,25.6,22.4,25.6h457.6" style="stroke-width: 32px; stroke-dashoffset: 1e-05; stroke-dasharray: none;"></path>
            <path fill="none" stroke="#FF3300" stroke-width="32" stroke-linecap="round" stroke-linejoin="round" stroke-miterlimit="10" d="   M732.8,161.6H126.4l16-73.6c-3.2-12.8-12.8-22.4-25.6-22.4h-96" style="stroke-width: 32px; stroke-dashoffset: 1e-05; stroke-dasharray: none;"></path>
            <path fill="none" stroke="#FF3300" stroke-width="32" stroke-linecap="round" stroke-linejoin="round" stroke-miterlimit="10" d="   M193.6,452.8l454.4-48c12.8,0,22.4-9.6,25.6-22.4l73.6-272" style="stroke-width: 32px; stroke-dashoffset: 1e-05; stroke-dasharray: none;"></path>
            <path fill="none" stroke="#FF3300" stroke-width="32" stroke-linecap="round" stroke-linejoin="round" stroke-miterlimit="10" d="   M225.6,606.4c26.5,0,48,21.5,48,48s-21.5,48-48,48s-48-21.5-48-48S199.1,606.4,225.6,606.4z" style="stroke-width: 32px; stroke-dashoffset: 1e-05; stroke-dasharray: none;"></path>
            <path fill="none" stroke="#FF3300" stroke-width="32" stroke-linecap="round" stroke-linejoin="round" stroke-miterlimit="10" d="   M606.4,606.4c26.5,0,48,21.5,48,48s-21.5,48-48,48s-48-21.5-48-48S579.9,606.4,606.4,606.4z" style="stroke-width: 32px; stroke-dashoffset: 1e-05; stroke-dasharray: none;"></path>
        </g>
    </symbol>
    <symbol xmlns="http://www.w3.org/2000/svg" viewBox="0 0 768 768" enable-background="new 0 0 768 768" xml:space="preserve" id="icon2">
        <g>
            <path fill="none" stroke="#FF3300" stroke-width="32" stroke-linecap="round" stroke-linejoin="round" stroke-miterlimit="10" d="   M752,652.8c0,38.4-32,67.2-67.2,67.2H83.2C44.8,720,16,688,16,652.8V243.2c0-38.4,32-67.2,67.2-67.2h601.6   c38.4,0,67.2,32,67.2,67.2V652.8z" style="stroke-width: 32px; stroke-dashoffset: 1e-05; stroke-dasharray: none;"></path>
            <path fill="none" stroke="#FF3300" stroke-width="32" stroke-linecap="round" stroke-linejoin="round" stroke-miterlimit="10" d="   M140.8,176h96v544h-96V176z" style="stroke-width: 32px; stroke-dashoffset: 1e-05; stroke-dasharray: none;"></path>
            <path fill="none" stroke="#FF3300" stroke-width="32" stroke-linecap="round" stroke-linejoin="round" stroke-miterlimit="10" d="   M528,176h96v544h-96V176z" style="stroke-width: 32px; stroke-dashoffset: 1e-05; stroke-dasharray: none;"></path>
            <path fill="none" stroke="#FF3300" stroke-width="32" stroke-linecap="round" stroke-linejoin="round" stroke-miterlimit="10" d="   M268.8,115.2v-12.8c0-28.8,25.6-54.4,57.6-54.4h112c32,0,57.6,25.6,57.6,54.4v12.8" style="stroke-width: 32px; stroke-dashoffset: 1e-05; stroke-dasharray: none;"></path>
        </g>
    </symbol>
    <symbol xmlns="http://www.w3.org/2000/svg" viewBox="0 0 768 768" enable-background="new 0 0 768 768" xml:space="preserve" id="icon3">
        <g>
            <path fill="none" stroke="#FF3300" stroke-width="32" stroke-linecap="round" stroke-linejoin="round" stroke-miterlimit="10" d="   M51.2,321.6c19.4,0,35.2,15.8,35.2,35.2S70.6,392,51.2,392S16,376.2,16,356.8S31.8,321.6,51.2,321.6z" style="stroke-width: 32px; stroke-dashoffset: 1e-05; stroke-dasharray: none;"></path>
            <path fill="none" stroke="#FF3300" stroke-width="32" stroke-linecap="round" stroke-linejoin="round" stroke-miterlimit="10" d="   M248,241.6L91,335.5" style="stroke-width: 32px; stroke-dashoffset: 1e-05; stroke-dasharray: none;"></path>
            <path fill="none" stroke="#FF3300" stroke-width="32" stroke-linecap="round" stroke-linejoin="round" stroke-miterlimit="10" d="   M276.8,184c19.4,0,35.2,15.8,35.2,35.2s-15.8,35.2-35.2,35.2s-35.2-15.8-35.2-35.2S257.4,184,276.8,184z" style="stroke-width: 32px; stroke-dashoffset: 1e-05; stroke-dasharray: none;"></path>
            <path fill="none" stroke="#FF3300" stroke-width="32" stroke-linecap="round" stroke-linejoin="round" stroke-miterlimit="10" d="   M296,251.2l172.8,265.6" style="stroke-width: 32px; stroke-dashoffset: 1e-05; stroke-dasharray: none;"></path>
            <path fill="none" stroke="#FF3300" stroke-width="32" stroke-linecap="round" stroke-linejoin="round" stroke-miterlimit="10" d="   M491.2,513.6c19.4,0,35.2,15.8,35.2,35.2S510.6,584,491.2,584S456,568.2,456,548.8S471.8,513.6,491.2,513.6z" style="stroke-width: 32px; stroke-dashoffset: 1e-05; stroke-dasharray: none;"></path>
            <path fill="none" stroke="#FF3300" stroke-width="32" stroke-linecap="round" stroke-linejoin="round" stroke-miterlimit="10" d="   M513.6,520L686,342.5" style="stroke-width: 32px; stroke-dashoffset: 1e-05; stroke-dasharray: none;"></path>
            <path fill="none" stroke="#FF3300" stroke-width="32" stroke-linecap="round" stroke-linejoin="round" stroke-miterlimit="10" d="   M716.8,280c19.4,0,35.2,15.8,35.2,35.2s-15.8,35.2-35.2,35.2s-35.2-15.8-35.2-35.2S697.4,280,716.8,280z" style="stroke-width: 32px; stroke-dashoffset: 1e-05; stroke-dasharray: none;"></path>
        </g>
    </symbol>
</svg>