<svg>
    <symbol xmlns="http://www.w3.org/2000/svg" viewBox="0 0 768 768" id="icon1">
        <path fill="none" stroke="#F30" stroke-width="32" stroke-linecap="round" stroke-linejoin="round" stroke-miterlimit="10" d="M220.6 598.4l-12.8 80c0 6.4 6.4 9.6 12.8 9.6h195.2c6.4 0 12.8-6.4 12.8-9.6l-12.8-80m208-406.4v-70.4c0-22.4-19.2-41.6-41.6-41.6H57.4C35 80 15.8 99.2 15.8 121.6v361.6c0 22.4 19.2 41.6 41.6 41.6h390.4m-432-73.6h432"></path>
        <path fill="none" stroke="#F30" stroke-width="32" stroke-linecap="round" stroke-linejoin="round" d="M713.4 240h-176c-22.4 0-38.4 16-38.4 38.4v371.2c0 22.4 16 38.4 38.4 38.4h172.8c22.4 0 41.6-16 41.6-38.4V278.4c3.2-19.2-16-38.4-38.4-38.4zM627 640h0z"></path>
        <path fill="none" stroke="#F30" stroke-width="32" stroke-linecap="round" stroke-linejoin="round" d="M499 297.6h252.8v291.2H499V297.6z"></path>
    </symbol>
    <symbol xmlns="http://www.w3.org/2000/svg" viewBox="0 0 768 768" id="icon2">
        <g fill="none" stroke="#F30" stroke-width="32" stroke-linecap="round" stroke-linejoin="round" stroke-miterlimit="10">
            <path d="M236.8 356.8c-25.6 28.8-70.4 96-70.4 166.4l83.2-38.4M528 353.6c22.4 28.8 70.4 96 73.6 169.6l-83.2-38.4M384 180.8c23 0 41.6 18.6 41.6 41.6S407 264 384 264s-41.6-18.6-41.6-41.6 18.6-41.6 41.6-41.6zm28.8 374.4c-9.6 25.6-19.2 48-32 48s-22.4-19.2-32-48c-12.8 6.4-22.4 16-22.4 35.2 0 32 22.4 156.8 51.2 156.8 28.8 0 51.2-124.8 51.2-156.8 6.4-16-3.2-28.8-16-35.2z"></path>
            <path d="M384 20.8c-60.8 0-105.6 105.6-105.6 160l32 307.2c0 6.4 6.4 9.6 9.6 9.6h124.8c6.4 0 9.6-3.2 9.6-9.6l32-307.2c3.2-54.4-41.6-160-102.4-160z"></path>
        </g>
    </symbol>
    <symbol xmlns="http://www.w3.org/2000/svg" viewBox="0 0 768 768" id="icon3">
        <g fill="none" stroke="#F30" stroke-width="32" stroke-linecap="round" stroke-linejoin="round">
            <path stroke-miterlimit="10" d="M628.8 556.8C622.4 672 561.6 694.4 456 697.6m0 0c0 12.8-9.6 22.4-22.4 22.4h-44.8c-12.8 0-22.4-9.6-22.4-22.4h0c0-12.8 9.6-22.4 22.4-22.4h44.8c12.8 0 22.4 9.6 22.4 22.4h0zM206.4 556.8h-41.6c-28.8 0-51.2-19.2-51.2-44.8V374.4c0-25.6 22.4-44.8 51.2-44.8h41.6v227.2h0zm355.2-224h41.6c28.8 0 51.2 19.2 51.2 44.8v137.6c0 25.6-22.4 44.8-51.2 44.8h-41.6V332.8z"></path>
            <path d="M177.6 326.4V256c0-115.2 92.8-208 208-208s208 92.8 208 208v70.4"></path>
        </g>
    </symbol>
    <symbol xmlns="http://www.w3.org/2000/svg" viewBox="0 0 768 768" id="icon0">
        <g fill="none" stroke="#F30" stroke-width="32" stroke-linecap="round" stroke-linejoin="round">
            <path d="M462.4 578.7c22.4-57.6 163.2-51.2 128 70.4-44.8 156.8-204.8 70.4-204.8 70.4V41.1s137.6-83.2 179.2 102.4c0 0 76.8 9.6 86.4 121.6 0 0 115.2 92.8 16 204.8-35.2 38.4-73.6 16-99.2-3.2"></path>
            <path d="M98.9 462.7c-99.2-115.2 24.3-197.6 24.3-197.6 6.4-108.8 86.4-121.6 86.4-121.6 44.8-185.6 176-102.4 176-102.4v678.4c-76.8 41.6-166.4 38.4-201.6-48-19.2-51.2 3.2-89.6 3.2-89.6m403.2 67.2s121.3-39 76.5-173.4m-281.3-169s83.2-51.2 137.6-16m32-67.2c-19.2 22.4-48 70.4-28.8 131.2m-336 25.6S-24 466.7 184 665.1m25.6-521.6s57.6 3.2 51.2 76.8M248 281.1s92.8 41.6 70.4 121.6m-16 112s-73.6 54.4-16 112"></path>
        </g>
    </symbol>
</svg>